<?xml version="1.0" standalone="no"?><!DOCTYPE svg PUBLIC "-//W3C//DTD SVG 1.1//EN" "http://www.w3.org/Graphics/SVG/1.1/DTD/svg11.dtd" ><svg xmlns="http://www.w3.org/2000/svg"><metadata></metadata><defs><font id="fonteditor" horiz-adv-x="909"><font-face font-family="Quartz" font-weight="400" font-stretch="normal" units-per-em="1000" panose-1="0 0 0 0 0 0 0 0 0 0" ascent="1001" descent="-219" x-height="0" bbox="-14 -120 887 845" underline-thickness="43" underline-position="0" unicode-range="U+0021-00ad" /><missing-glyph horiz-adv-x="800" d="M50 0 L50 800 L750 800 L750 0 L50 0 ZM700 50 L700 750 L100 750 L100 50 L700 50 Z" /><glyph glyph-name="exclam" unicode="!" d="M43 0 L43 155 L129 155 L129 0 L43 0 ZM43 277 L43 634 L129 720 L129 212 L43 277 Z" /><glyph glyph-name="quotedbl" unicode="&quot;" d="M50 495 L50 720 L113 720 L113 495 L50 495 ZM174 495 L174 720 L237 720 L237 495 L174 495 Z" /><glyph glyph-name="numbersign" unicode="#" d="M50 229 L60 274 L175 274 L211 446 L96 446 L105 491 L221 491 L265 704 L310 704 L266 491 L374 491 L418 704 L463 704 L419 491 L534 491 L524 446 L409 446 L373 274 L488 274 L478 229 L363 229 L318 16 L273 16 L318 229 L210 229 L165 16 L120 16 L165 229 L50 229 ZM220 274 L328 274 L364 446 L256 446 L220 274 Z" /><glyph glyph-name="dollar" unicode="$" d="M43 371 L43 619 L86 662 L129 619 L129 421 L43 371 ZM63 360 L144 407 L353 407 L434 360 L353 320 L144 320 L63 360 ZM367 101 L367 306 L453 349 L453 101 L410 58 L367 101 ZM207 -79 L207 -11 L250 24 L294 -12 L294 -84 L251 -120 L207 -79 ZM50 0 L144 86 L355 86 L398 45 L356 0 L304 0 L250 47 L201 0 L50 0 ZM104 678 L145 720 L201 720 L250 671 L301 720 L412 720 L378 634 L145 634 L104 678 ZM208 736 L208 802 L250 845 L294 805 L294 736 L249 695 L208 736 Z" /><glyph glyph-name="percent" unicode="%" d="M22 450 L22 620 L67 662 L111 619 L111 450 L67 407 L22 450 ZM81 675 L124 720 L297 720 L339 675 L296 634 L124 634 L81 675 ZM311 450 L311 620 L353 663 L397 621 L397 451 L353 407 L311 450 ZM80 392 L125 438 L296 438 L339 392 L296 353 L124 353 L80 392 ZM445 428 L622 720 L723 720 L493 341 L445 428 ZM186 0 L381 320 L481 320 L287 0 L186 0 ZM512 104 L512 273 L557 316 L601 273 L601 103 L557 60 L512 104 ZM570 328 L614 369 L786 369 L829 329 L785 282 L614 282 L570 328 ZM801 104 L801 273 L842 317 L887 274 L887 104 L843 61 L801 104 ZM570 45 L614 86 L785 86 L829 45 L786 0 L613 0 L570 45 Z" /><glyph glyph-name="ampersand" unicode="&amp;" d="M43 101 L43 349 L129 306 L129 101 L86 58 L43 101 ZM43 371 L43 619 L86 662 L129 619 L129 421 L43 371 ZM100 676 L144 720 L353 720 L397 676 L353 634 L144 634 L100 676 ZM100 44 L144 86 L353 86 L397 44 L353 0 L144 0 L100 44 ZM195 361 L268 407 L355 407 L399 360 L355 320 L281 320 L195 361 ZM370 421 L370 512 L413 557 L457 512 L457 420 L412 373 L370 421 ZM427 359 L473 407 L514 407 L597 360 L525 320 L471 320 L427 359 ZM369 101 L369 305 L412 345 L456 304 L456 100 L411 59 L369 101 Z" /><glyph glyph-name="quotesingle" unicode="&#39;" d="M50 495 L70 720 L133 720 L113 495 L50 495 Z" /><glyph glyph-name="parenleft" unicode="(" d="M43 101 L43 349 L129 306 L129 101 L86 58 L43 101 ZM43 371 L43 619 L86 662 L129 619 L129 421 L43 371 ZM100 676 L144 720 L255 720 L191 634 L144 634 L100 676 ZM100 44 L144 86 L191 86 L255 0 L144 0 L100 44 Z" /><glyph glyph-name="parenright" unicode=")" d="M140 414 L140 619 L183 662 L226 619 L226 371 L140 414 ZM140 101 L140 299 L226 349 L226 101 L183 58 L140 101 ZM14 0 L79 86 L126 86 L170 44 L126 0 L14 0 ZM14 720 L126 720 L170 676 L126 634 L79 634 L14 720 Z" /><glyph glyph-name="asterisk" unicode="*" d="M22 437 L28 492 L150 563 L189 534 L189 486 L72 416 L22 437 ZM212 485 L212 536 L253 560 L373 494 L380 442 L336 416 L212 485 ZM158 585 L158 715 L202 748 L246 714 L246 583 L202 551 L158 585 Z" /><glyph glyph-name="plus" unicode="+" d="M42 317 L82 403 L190 403 L235 361 L189 317 L42 317 ZM266 360 L308 403 L455 403 L416 317 L305 317 L266 360 ZM204 156 L204 302 L248 346 L290 302 L290 195 L204 156 ZM203 419 L203 526 L290 565 L290 418 L248 374 L203 419 Z" /><glyph glyph-name="hyphen" unicode="-­" d="M22 216 L80 302 L321 302 L263 216 L22 216 Z" /><glyph glyph-name="period" unicode="." d="M22 0 L22 155 L108 155 L108 0 L22 0 Z" /><glyph glyph-name="slash" unicode="/" d="M22 0 L216 320 L316 320 L123 0 L22 0 ZM280 428 L457 720 L559 720 L329 341 L280 428 Z" /><glyph glyph-name="zero" unicode="0" d="M43 101 L43 349 L129 306 L129 101 L86 58 L43 101 ZM43 371 L43 619 L86 662 L129 619 L129 421 L43 371 ZM100 676 L144 720 L353 720 L397 676 L353 634 L144 634 L100 676 ZM367 421 L367 619 L410 662 L453 619 L453 371 L367 421 ZM367 101 L367 306 L453 349 L453 101 L410 58 L367 101 ZM100 44 L144 86 L353 86 L397 44 L353 0 L144 0 L100 44 Z" /><glyph glyph-name="one" unicode="1" d="M205 421 L205 634 L291 720 L291 371 L205 421 ZM205 86 L205 306 L291 349 L291 0 L205 86 Z" /><glyph glyph-name="two" unicode="2" d="M43 101 L43 349 L129 306 L129 101 L86 58 L43 101 ZM43 634 L144 720 L353 720 L397 676 L353 634 L43 634 ZM367 421 L367 619 L410 662 L453 619 L453 371 L367 421 ZM100 44 L144 86 L371 86 L453 0 L144 0 L100 44 ZM63 360 L144 407 L353 407 L434 360 L353 320 L144 320 L63 360 Z" /><glyph glyph-name="three" unicode="3" d="M25 720 L317 720 L361 676 L317 634 L108 634 L25 720 ZM331 421 L331 619 L374 662 L417 619 L417 371 L331 421 ZM331 101 L331 306 L417 349 L417 101 L374 58 L331 101 ZM25 0 L108 86 L317 86 L361 44 L317 0 L25 0 ZM27 360 L108 407 L317 407 L398 360 L317 320 L108 320 L27 360 Z" /><glyph glyph-name="four" unicode="4" d="M43 371 L43 720 L129 634 L129 421 L43 371 ZM367 421 L367 634 L453 720 L453 371 L367 421 ZM367 86 L367 306 L453 349 L453 0 L367 86 ZM63 360 L144 407 L353 407 L434 360 L353 320 L144 320 L63 360 Z" /><glyph glyph-name="five" unicode="5" d="M43 371 L43 619 L86 662 L129 619 L129 421 L43 371 ZM100 676 L144 720 L435 720 L353 634 L144 634 L100 676 ZM367 101 L367 306 L453 349 L453 101 L410 58 L367 101 ZM43 0 L126 86 L353 86 L397 44 L353 0 L43 0 ZM63 360 L144 407 L353 407 L434 360 L353 320 L144 320 L63 360 Z" /><glyph glyph-name="six" unicode="6" d="M43 101 L43 349 L129 306 L129 101 L86 58 L43 101 ZM43 371 L43 619 L86 662 L129 619 L129 421 L43 371 ZM100 676 L144 720 L435 720 L353 634 L144 634 L100 676 ZM367 101 L367 306 L453 349 L453 101 L410 58 L367 101 ZM100 44 L144 86 L353 86 L397 44 L353 0 L144 0 L100 44 ZM63 360 L144 407 L353 407 L434 360 L353 320 L144 320 L63 360 Z" /><glyph glyph-name="seven" unicode="7" d="M310 421 L310 619 L396 706 L396 371 L310 421 ZM310 86 L310 306 L396 349 L396 0 L310 86 ZM0 720 L382 720 L295 634 L86 634 L0 720 Z" /><glyph glyph-name="eight" unicode="8" d="M43 101 L43 349 L129 306 L129 101 L86 58 L43 101 ZM43 371 L43 619 L86 662 L129 619 L129 421 L43 371 ZM100 676 L144 720 L353 720 L397 676 L353 634 L144 634 L100 676 ZM367 421 L367 619 L410 662 L453 619 L453 371 L367 421 ZM367 101 L367 306 L453 349 L453 101 L410 58 L367 101 ZM100 44 L144 86 L353 86 L397 44 L353 0 L144 0 L100 44 ZM63 360 L144 407 L353 407 L434 360 L353 320 L144 320 L63 360 Z" /><glyph glyph-name="nine" unicode="9" d="M367 414 L367 619 L410 662 L453 619 L453 371 L367 414 ZM367 101 L367 299 L453 349 L453 101 L410 58 L367 101 ZM61 0 L144 86 L353 86 L397 44 L353 0 L61 0 ZM43 371 L43 619 L86 662 L129 619 L129 414 L43 371 ZM100 676 L144 720 L353 720 L397 676 L353 634 L144 634 L100 676 ZM63 360 L144 407 L353 407 L434 360 L353 320 L144 320 L63 360 Z" /><glyph glyph-name="colon" unicode=":" d="M29 0 L29 155 L115 155 L115 0 L29 0 ZM29 320 L29 468 L115 468 L115 320 L29 320 Z" /><glyph glyph-name="semicolon" unicode=";" d="M-14 -94 L33 155 L122 155 L75 -94 L-14 -94 ZM32 320 L32 468 L118 468 L118 320 L32 320 Z" /><glyph glyph-name="less" unicode="&lt;" d="M50 360 L471 598 L471 527 L168 360 L471 193 L471 122 L50 360 Z" /><glyph glyph-name="equal" unicode="=" d="M43 249 L85 336 L453 336 L411 249 L43 249 ZM43 387 L85 473 L453 473 L411 387 L43 387 Z" /><glyph glyph-name="greater" unicode="&gt;" d="M50 122 L50 193 L353 360 L50 527 L50 598 L471 360 L50 122 Z" /><glyph glyph-name="question" unicode="?" d="M109 0 L109 155 L196 155 L196 0 L109 0 ZM22 676 L66 720 L275 720 L319 676 L275 634 L66 634 L22 676 ZM289 421 L289 619 L332 662 L376 619 L376 371 L289 421 ZM110 203 L110 393 L196 310 L196 203 L110 203 ZM127 407 L275 407 L356 362 L275 320 L214 320 L127 407 Z" /><glyph glyph-name="at" unicode="@" d="M452 230 Q446 211 421 182 Q396 153 349 153 Q326 153 276 176.5 Q226 200 226 342 L230 378 Q240 441 265.5 488.5 Q291 536 329 563.5 Q367 591 405 591 Q462 591 490 537 L494 527 L504 586 L552 586 L513 369 L500 280 Q498 272 498 262.5 Q498 253 498 249 Q498 230 505 207.5 Q512 185 544 185 Q551 185 561.5 189 Q572 193 585.5 203.5 Q599 214 617 235 Q635 256 648 290.5 Q661 325 665.5 354 Q670 383 671 398 Q672 413 672 427 Q672 545 601 618 Q530 691 419 691 Q408 691 394.5 689.5 Q381 688 322 679.5 Q263 671 188 578 Q113 485 113 358 Q113 348 113 339 Q115 326 116.5 309.5 Q118 293 118.5 289.5 Q119 286 136 220.5 Q153 155 232 91 Q311 27 409 27 Q491 27 536 54 Q581 81 588 86 Q595 91 622 113 Q649 135 672 166 L694 135 L669 107 Q553 -13 405 -13 Q253 -13 155.5 99.5 Q58 212 58 385 Q58 439 77 489.5 Q96 540 136 594.5 Q176 649 240 687 Q304 725 344.5 729.5 Q385 734 395 734.5 Q405 735 418 735 Q549 735 635 648 Q721 561 721 426 Q721 410 720 393.5 Q719 377 710 321.5 Q701 266 655 209 Q609 152 578.5 148 Q548 144 537 144 Q498 144 473 169 Q448 194 452 230 ZM281 291 Q281 272 284.5 256.5 Q288 241 299.5 216.5 Q311 192 352 192 Q379 192 396 209 Q413 226 421.5 241 Q430 256 438 277 Q446 298 453.5 328.5 Q461 359 464 373 L466 384 L472 426 Q475 449 475 464 Q475 489 459.5 518.5 Q444 548 405 548 Q382 548 361.5 532.5 Q341 517 327 493.5 Q313 470 303 439.5 Q293 409 288.5 382.5 Q284 356 282.5 336.5 Q281 317 281 291 Z" /><glyph glyph-name="bracketleft" unicode="[" d="M43 14 L43 349 L129 306 L129 101 L43 14 ZM43 371 L43 706 L129 619 L129 421 L43 371 ZM57 0 L144 86 L173 86 L259 0 L57 0 ZM57 720 L259 720 L173 634 L144 634 L57 720 Z" /><glyph glyph-name="backslash" unicode="\" d="M50 720 L113 720 L239 0 L176 0 L50 720 Z" /><glyph glyph-name="bracketright" unicode="]" d="M137 414 L137 619 L223 706 L223 371 L137 414 ZM137 101 L137 299 L223 349 L223 14 L137 101 ZM7 0 L93 86 L122 86 L209 0 L7 0 ZM7 720 L209 720 L122 634 L93 634 L7 720 Z" /><glyph glyph-name="asciicircum" unicode="^" d="M50 174 L288 595 L527 174 L455 174 L288 477 L122 174 L50 174 Z" /><glyph glyph-name="underscore" unicode="_" d="M50 -27 L50 0 L410 0 L410 -27 L50 -27 Z" /><glyph glyph-name="bar" unicode="|" d="M50 0 L50 720 L113 720 L113 0 L50 0 Z" /><glyph glyph-name="asciitilde" unicode="~" d="M50 292 L50 309 Q50 362 74 390 Q98 418 140 418 Q169 418 199 405 L276 373 L288 368 Q308 362 320 362 Q336 362 344.5 372.5 Q353 383 358 409 L359 418 L409 418 L409 402 Q409 349 385 321 Q361 293 319 293 Q290 293 260 306 L183 338 L170 342 Q150 348 138 348 Q109 348 101 302 L100 292 L50 292 Z" /></font>
</defs>
</svg>
