<?xml version="1.0" standalone="no"?><!DOCTYPE svg PUBLIC "-//W3C//DTD SVG 1.1//EN" "http://www.w3.org/Graphics/SVG/1.1/DTD/svg11.dtd" ><svg xmlns="http://www.w3.org/2000/svg"><metadata></metadata><defs><font id="fonteditor" horiz-adv-x="1000"><font-face font-family="Long Cang" font-weight="400" font-stretch="normal" units-per-em="1000" panose-1="0 0 5 0 0 0 0 0 0 0" ascent="880" descent="-120" x-height="0" bbox="-102 -184 1028 787" underline-thickness="50" underline-position="-75" unicode-range="U+0041-9996" /><missing-glyph horiz-adv-x="1000"  /><glyph glyph-name="A" unicode="a" d="M324 221 Q297 213 277.5 211.5 Q258 210 230 212.5 Q202 215 184 215 Q138 215 126 186 L111 118 Q104 82 71 68 Q64 94 64 111.5 Q64 129 70.5 150 Q77 171 84.5 186.5 Q92 202 100 224 Q108 246 110 265 Q109 274 118.5 283 Q128 292 138.5 298 Q149 304 150 305 Q172 321 208.5 376.5 Q245 432 244 458 Q244 467 239 481 Q234 495 232 501 Q230 507 237 519 Q241 526 271.5 537 Q302 548 316 550 Q317 542 321 496 Q325 450 332 439 Q354 399 396 316 Q438 233 475 172 Q506 120 506 84 Q476 89 456 111 Q446 121 410 194 Q388 240 324 221 ZM220 341 Q200 316 202.5 293 Q205 270 237 265 Q320 253 371 265 Q358 306 330.5 350 Q303 394 276 415 Q268 405 220 341 Z" /><glyph glyph-name="B" unicode="b" d="M70 165 Q70 186 72.5 216 Q75 246 78 268 Q81 290 79.5 313.5 Q78 337 70.5 352.5 Q63 368 62.5 380.5 Q62 393 65.5 402 Q69 411 73 426.5 Q77 442 77 459 Q77 489 78 495 Q113 495 125 476 Q127 473 141 424 Q143 424 229 447.5 Q315 471 338 471 Q367 471 377 462.5 Q387 454 387 429 Q387 413 377 400 Q367 387 346.5 371 Q326 355 323 352 Q331 351 403 349 Q450 347 472.5 329.5 Q495 312 495 272 Q495 241 473.5 215 Q452 189 424.5 174 Q397 159 362 147 Q355 144 307 125.5 Q259 107 220 94.5 Q181 82 165 84 Q162 77 153.5 76.5 Q145 76 141 84 Q119 79 113 79 Q98 79 89.5 85.5 Q81 92 77 107 Q73 122 72 132.5 Q71 143 70 165 ZM276 392 Q215 399 172 370.5 Q129 342 141 289 Q156 296 188.5 321.5 Q221 347 247 369 Q273 391 276 392 ZM449 281 Q413 294 367.5 295.5 Q322 297 278.5 285.5 Q235 274 200 254 Q165 234 146 201.5 Q127 169 133 131 Q375 174 449 281 Z" /><glyph glyph-name="C" unicode="c" d="M130 139 Q168 139 213.5 154.5 Q259 170 293.5 187 Q328 204 374 214.5 Q420 225 462 218 Q445 189 420 176.5 Q395 164 343 149 Q338 148 335 147 Q314 141 251 120 Q188 99 153 91 Q111 82 87 103 Q63 124 59.5 160.5 Q56 197 64.5 237 Q73 277 90 305 Q115 346 159.5 391.5 Q204 437 240 455 Q246 457 261 465.5 Q276 474 286.5 478.5 Q297 483 306 483 Q320 483 326 470 Q332 457 324 446 Q320 439 316.5 435 Q313 431 306 426.5 Q299 422 295.5 420 Q292 418 278.5 412 Q265 406 258 402 Q227 388 204.5 368.5 Q182 349 157 320 Q148 310 141.5 300.5 Q135 291 131 284.5 Q127 278 123 267.5 Q119 257 117 252.5 Q115 248 110.5 233.5 Q106 219 104 212 Q100 200 98.5 187.5 Q97 175 98.5 163.5 Q100 152 108 145.5 Q116 139 130 139 Z" /><glyph glyph-name="D" unicode="d" d="M130 91 Q119 88 110 87.5 Q101 87 95.5 91 Q90 95 86.5 100.5 Q83 106 81.5 114.5 Q80 123 79 132 Q78 141 79 152.5 Q80 164 80.5 173 Q81 182 82 192.5 Q83 203 83 210 Q85 257 76 289 Q67 321 48 360 Q45 372 45.5 378.5 Q46 385 48.5 397 Q51 409 51 415 Q53 474 74 477 Q85 477 106 456 Q127 435 140 438 Q142 438 174 444 Q206 450 217.5 451 Q229 452 254 454 Q279 456 298.5 454 Q318 452 336 447 Q366 438 386.5 405.5 Q407 373 408.5 336 Q410 299 391 265 Q356 215 282.5 168 Q209 121 130 91 ZM305 400 Q275 407 241.5 404 Q208 401 181 392.5 Q154 384 137 363.5 Q120 343 122 313 Q123 306 124.5 285.5 Q126 265 127 256.5 Q128 248 129.5 230 Q131 212 133.5 201.5 Q136 191 139 178 Q142 165 146 155 Q228 194 328 281 Q348 298 353 324.5 Q358 351 345 373 Q332 395 305 400 Z" /><glyph glyph-name="E" unicode="e" d="M177 107 Q155 100 136.5 108 Q118 116 115 131 Q112 146 126 162 Q138 175 161 178 Q173 180 243 190.5 Q313 201 351 210 Q367 214 397 226.5 Q427 239 445 240 Q461 242 473 229.5 Q485 217 486 203 Q486 195 479 188.5 Q472 182 458 179 Q318 153 177 107 ZM454 353 Q471 354 484 346 Q497 338 497 325 Q497 303 463 297 Q453 296 431 292.5 Q409 289 403 288 Q397 287 381.5 284 Q366 281 355 277.5 Q344 274 326 269 Q308 264 286 257 Q228 239 208 226 Q165 198 165 145 Q165 96 159 76 Q127 81 119 114 Q109 156 96 171 Q94 173 88.5 178 Q83 183 82 184 Q81 185 77.5 189 Q74 193 74 194.5 Q74 196 72 199 Q70 202 71 203.5 Q72 205 72.5 208 Q73 211 74.5 213.5 Q76 216 78.5 219.5 Q81 223 85 227 Q87 230 92 235 Q97 240 98 241.5 Q99 243 102 246.5 Q105 250 105.5 253 Q106 256 108 261 Q110 266 112 273 Q123 320 92 321 Q72 322 63 340 Q54 358 70 370 Q84 380 92 388 Q100 396 107.5 411 Q115 426 116 445 Q119 489 143 502 Q145 500 148.5 497.5 Q152 495 153.5 493 Q155 491 158 488.5 Q161 486 162.5 483 Q164 480 166 475 Q168 470 170 464 L183 424 Q195 428 216.5 437.5 Q238 447 254.5 455 Q271 463 294.5 471.5 Q318 480 335.5 484 Q353 488 375.5 489 Q398 490 414 483 Q426 479 435 463 Q402 442 319.5 414.5 Q237 387 208 373 Q152 346 167 281 Q213 287 308 318 Q403 349 454 353 Z" /><glyph glyph-name="F" unicode="f" d="M454 353 Q471 354 484 346 Q497 338 497 325 Q497 303 463 297 Q453 296 431 292.5 Q409 289 403 288 Q397 287 381.5 284 Q366 281 355 277.5 Q344 274 326 269 Q308 264 286 257 Q228 239 208 226 Q165 198 165 145 Q165 96 159 76 Q127 81 119 114 Q109 156 96 171 Q94 173 88.5 178 Q83 183 82 184 Q81 185 77.5 189 Q74 193 74 194.5 Q74 196 72 199 Q70 202 71 203.5 Q72 205 72.5 208 Q73 211 74.5 213.5 Q76 216 78.5 219.5 Q81 223 85 227 Q87 230 92 235 Q97 240 98 241.5 Q99 243 102 246.5 Q105 250 105.5 253 Q106 256 108 261 Q110 266 112 273 Q123 320 92 321 Q72 322 63 340 Q54 358 70 370 Q84 380 92 388 Q100 396 107.5 411 Q115 426 116 445 Q119 489 143 502 Q145 500 148.5 497.5 Q152 495 153.5 493 Q155 491 158 488.5 Q161 486 162.5 483 Q164 480 166 475 Q168 470 170 464 L183 424 Q195 428 216.5 437.5 Q238 447 254.5 455 Q271 463 294.5 471.5 Q318 480 335.5 484 Q353 488 375.5 489 Q398 490 414 483 Q426 479 435 463 Q402 442 319.5 414.5 Q237 387 208 373 Q152 346 167 281 Q213 287 308 318 Q403 349 454 353 Z" /><glyph glyph-name="G" unicode="g" d="M245 249 Q243 283 270 314 Q297 345 336.5 361.5 Q376 378 411 378 Q428 378 434 368 Q440 358 441 338 Q442 323 438.5 291.5 Q435 260 435 257 Q436 248 440 229.5 Q444 211 446 197.5 Q448 184 447.5 169.5 Q447 155 438 147 Q429 139 411 139 Q362 139 274 109.5 Q186 80 138 80 Q57 80 56 162 Q55 214 86 271.5 Q117 329 164 375.5 Q211 422 264.5 458.5 Q318 495 363 511 Q381 516 400.5 511.5 Q420 507 427 495.5 Q434 484 422 468 Q415 461 395 455 Q320 432 253.5 375.5 Q187 319 136 244 Q102 194 102 165 Q102 143 122.5 137.5 Q143 132 166 139 Q200 146 223.5 154 Q247 162 284 177 Q321 192 348 202 Q376 212 383.5 242 Q391 272 379 305 Q374 304 319.5 275 Q265 246 245 249 Z" /><glyph glyph-name="H" unicode="h" d="M78 180 Q78 200 81.5 235.5 Q85 271 85.5 290 Q86 309 80 347 Q78 358 73.5 388 Q69 418 64 434 Q58 453 64.5 468.5 Q71 484 87 484 Q104 484 116 463 Q132 434 134 364 Q135 291 140 273 Q157 274 197.5 281.5 Q238 289 292 300.5 Q346 312 354 313 Q387 319 400.5 330 Q414 341 414 369 Q414 383 411.5 407.5 Q409 432 409 452.5 Q409 473 414 489 Q422 514 433 514 Q474 502 470 400 Q469 361 478 343 Q487 325 512 313 Q483 280 475.5 239 Q468 198 475 126 Q476 114 478 100 Q480 86 480 83 Q480 48 448 52 Q425 56 419 88.5 Q413 121 416.5 159.5 Q420 198 416 232 Q413 254 409 273 Q309 260 188 212 Q173 206 165 202 Q157 198 147 188.5 Q137 179 135 167 Q139 153 140 137.5 Q141 122 134.5 108 Q128 94 113 94 Q78 94 78 180 Z" /><glyph glyph-name="I" unicode="i" d="M190 471 Q172 463 154.5 457.5 Q137 452 117.5 450 Q98 448 84 456.5 Q70 465 66 485 Q64 497 83 509 Q102 521 126.5 528.5 Q151 536 166 534 Q178 533 193.5 542 Q209 551 221 550 Q248 542 259.5 539.5 Q271 537 290.5 534.5 Q310 532 337 532 Q368 532 381 522.5 Q394 513 403 486 Q396 485 323 484 Q253 482 253 439 Q254 404 249.5 293 Q245 182 245 178 Q245 158 255 146.5 Q265 135 284.5 132.5 Q304 130 322 131 Q340 132 365.5 135.5 Q391 139 403 139 Q389 121 364 109.5 Q339 98 316.5 93 Q294 88 256 81 Q218 74 198 69 Q121 50 82 42 Q69 40 62 51 Q55 62 54 77 Q54 92 72 98 Q90 104 119.5 104.5 Q149 105 158 107 Q192 116 192 175 Q192 177 192 181 Q192 185 192 190 Q192 195 191.5 200 Q191 205 190.5 210.5 Q190 216 190 220.5 Q190 225 189.5 229 Q189 233 189 236.5 Q189 240 189 241 L189 243 Q189 251 198 329.5 Q207 408 200 436 Q193 463 190 471 Z" /><glyph glyph-name="J" unicode="j" d="M133 456 Q133 466 138 471.5 Q143 477 151.5 477.5 Q160 478 168.5 476.5 Q177 475 188 473 Q199 471 205 471 Q208 471 222 470.5 Q236 470 244.5 470.5 Q253 471 264.5 471.5 Q276 472 283.5 473.5 Q291 475 294 478 Q299 483 299.5 508.5 Q300 534 296 547 Q296 566 315 566 Q329 565 337 553 Q345 541 348 526.5 Q351 512 358.5 498.5 Q366 485 379 482 Q392 479 461 479 Q484 479 499.5 473.5 Q515 468 514 453 Q513 440 506.5 432 Q500 424 487 422 Q474 420 462 420 Q450 420 432 422 Q414 424 404.5 424 Q395 424 388.5 421 Q382 418 378.5 415.5 Q375 413 373.5 405 Q372 397 371.5 393.5 Q371 390 371 377.5 Q371 365 371 361 Q370 258 360.5 198 Q351 138 318 89 Q273 23 218.5 21.5 Q164 20 112 84 Q63 145 55 194 Q72 186 93.5 165.5 Q115 145 131.5 126 Q148 107 170 92.5 Q192 78 212 78 Q230 78 242.5 87 Q255 96 268 115 Q325 193 324 376 Q324 394 315.5 404 Q307 414 290.5 416 Q274 418 259 417.5 Q244 417 221 415 Q198 413 186 413 Q133 413 133 456 Z" /><glyph glyph-name="K" unicode="k" d="M54 125 Q54 132 56.5 149 Q59 166 61.5 179.5 Q64 193 63 194 Q63 224 61.5 310.5 Q60 397 60 443 Q60 462 61 472 Q62 482 68 492 Q74 502 87 502 Q100 503 107 497 Q114 491 115 479.5 Q116 468 115 456.5 Q114 445 112 430 Q110 415 110 408 Q110 396 108 370 Q106 344 106 324 Q106 304 110 289 Q126 300 150 314 Q174 328 192 337.5 Q210 347 242 362.5 Q274 378 284 384 Q288 384 309.5 401 Q331 418 355.5 437.5 Q380 457 407.5 470.5 Q435 484 450 479 Q443 448 411.5 419.5 Q380 391 346 374 Q312 357 269.5 336.5 Q227 316 210 304 Q144 259 142 257 Q200 224 365 173 Q410 159 428.5 140.5 Q447 122 442 91 Q420 94 323 135 L292 147 Q149 185 110 202 Q108 194 105 169.5 Q102 145 99 117 Q96 89 95 84 Q74 87 64.5 96 Q55 105 54 125 Z" /><glyph glyph-name="L" unicode="l" d="M66 125 Q75 154 77.5 199 Q80 244 77.5 311 Q75 378 75 392 Q75 405 75 411.5 Q75 418 76 429.5 Q77 441 79 447.5 Q81 454 85 461 Q89 468 95.5 470 Q102 472 110 471 Q123 469 129 458 Q135 447 135 429.5 Q135 412 133.5 396.5 Q132 381 129 364.5 Q126 348 126 344 L118 178 Q119 144 125.5 137.5 Q132 131 165 131 Q194 131 248 128 Q302 125 336 125 Q358 125 368.5 118 Q379 111 379 91 Q380 80 375 75 Q370 70 361 69.5 Q352 69 343.5 70.5 Q335 72 324 74 Q313 76 308 76 Q169 80 100 67 Q78 63 68 82.5 Q58 102 66 125 Z" /><glyph glyph-name="M" unicode="m" d="M483 542 L483 558 Q495 576 509 576 Q523 573 532 560.5 Q541 548 543 531.5 Q545 515 546 495 Q547 475 545.5 454.5 Q544 434 545 415 Q543 400 560 279 Q577 158 577 123 Q577 107 569.5 97 Q562 87 549 86 Q523 86 514 122 Q509 141 505 234.5 Q501 328 500 338 Q491 403 474 439 Q390 349 346 233 Q344 229 339 205.5 Q334 182 326.5 170.5 Q319 159 304 160 Q293 156 259.5 183 Q226 210 195 238.5 Q164 267 158 265 L141 201 Q131 166 111 147 Q101 166 100 191 Q99 216 104.5 256.5 Q110 297 111 305 Q112 324 83.5 366.5 Q55 409 56 424 Q62 424 82 427.5 Q102 431 103 431 Q101 461 102 467.5 Q103 474 111 502 Q137 485 144 466.5 Q151 448 157 392 Q163 344 196.5 303 Q230 262 277 233 L483 542 Z" /><glyph glyph-name="N" unicode="n" d="M389 542 Q407 520 415.5 480.5 Q424 441 423 400.5 Q422 360 421 313 Q420 292 424.5 255.5 Q429 219 433.5 189.5 Q438 160 435.5 127.5 Q433 95 421 76 Q289 159 136 265 Q127 247 116 189.5 Q105 132 105 131 Q94 133 74 131 Q67 158 73.5 202 Q80 246 85.5 275 Q91 304 81 336 Q81 338 74 349 Q67 360 61 372 Q55 384 58 392 Q59 395 64.5 398.5 Q70 402 72.5 407 Q75 412 74 420 Q72 434 73 458 Q74 482 78 488 Q84 498 105 511 Q118 499 128.5 427.5 Q139 356 141 351 Q148 328 159.5 312 Q171 296 181 287.5 Q191 279 212.5 263.5 Q234 248 248 236 Q294 198 311 188 Q344 171 389 171 Q374 237 374 400 Q374 407 369.5 435.5 Q365 464 364 482 Q363 500 369 519 Q376 534 389 542 Z" /><glyph glyph-name="O" unicode="o" d="M234 100 Q180 80 140 93.5 Q100 107 77.5 147.5 Q55 188 58 242 Q60 303 68.5 335.5 Q77 368 104 409 Q118 430 122.5 436.5 Q127 443 139 456.5 Q151 470 159 475 Q167 480 180.5 485 Q194 490 211 492 Q225 493 246 484.5 Q267 476 293.5 468.5 Q320 461 346 465 Q399 473 424 452.5 Q449 432 446 381 Q442 283 381.5 210 Q321 137 234 100 ZM381 430 Q358 429 328.5 413 Q299 397 266.5 374.5 Q234 352 216 344 Q215 357 226 375 Q237 393 249.5 409 Q262 425 263 431 Q234 442 208.5 435 Q183 428 161 407 Q139 386 123 359 Q107 332 98 303 Q89 274 89 249 Q89 223 96.5 197.5 Q104 172 118 152.5 Q132 133 153.5 125.5 Q175 118 204 127 Q283 153 346.5 219 Q410 285 413 368 Q413 388 412 400 Q411 412 403.5 421 Q396 430 381 430 Z" /><glyph glyph-name="P" unicode="p" d="M96 91 Q95 229 61 440 Q60 448 61.5 454.5 Q63 461 66 465.5 Q69 470 75.5 474 Q82 478 86.5 480 Q91 482 100 484.5 Q109 487 113 487.5 Q117 488 126.5 489.5 Q136 491 137 491 Q227 505 310 480.5 Q393 456 356 392 Q332 348 289 327 Q246 306 167 289 Q144 285 135.5 269.5 Q127 254 125 224 Q125 209 127.5 187.5 Q130 166 132 151.5 Q134 137 133 123 Q132 109 123 101 Q114 93 96 91 ZM308 420 Q303 443 273 453 Q243 463 208 458.5 Q173 454 153 441 Q120 418 120 384 Q120 370 123.5 360.5 Q127 351 130.5 345.5 Q134 340 143.5 337.5 Q153 335 158.5 334.5 Q164 334 177 336 Q190 338 195 339 Q200 340 214 344 Q239 350 275 376 Q311 402 308 420 Z" /><glyph glyph-name="Q" unicode="q" d="M341 176 Q321 173 281 158.5 Q241 144 213.5 136 Q186 128 151.5 132.5 Q117 137 92 162 Q67 187 62 223.5 Q57 260 69 296.5 Q81 333 97 362 Q113 391 131 415 Q175 473 245.5 497.5 Q316 522 403 502 Q445 492 473 456.5 Q501 421 501 372 Q501 334 481 296.5 Q461 259 433 235 Q424 228 424 220 Q429 202 442 183 Q455 164 466.5 150.5 Q478 137 486.5 117.5 Q495 98 495 76 Q462 76 431 107 Q364 176 341 176 ZM271 288 Q271 301 282 305.5 Q293 310 305 305 Q314 306 325.5 291 Q337 276 349.5 262 Q362 248 371 249 Q399 256 422 279.5 Q445 303 454 331.5 Q463 360 456 392 Q449 424 422 445 Q390 472 344 476 Q298 480 257 460 Q229 445 185 399.5 Q141 354 122 319 Q99 276 100 247 Q101 214 123 193.5 Q145 173 181 171 Q213 169 305 210 Q273 264 271 288 Z" /><glyph glyph-name="R" unicode="r" d="M83 462 Q111 467 182.5 465 Q254 463 278 471 Q287 470 305 469 Q323 468 335 466 Q347 464 360.5 461 Q374 458 381 450 Q388 442 388 430 Q388 415 377 401.5 Q366 388 354.5 381 Q343 374 322.5 362.5 Q302 351 296 347 Q276 335 167 281 Q211 240 269.5 210.5 Q328 181 413 147 Q454 131 459 84 Q440 82 416 90 Q392 98 364.5 112.5 Q337 127 325 131 Q301 139 224.5 185.5 Q148 232 128 231 Q110 230 107 209.5 Q104 189 104.5 160.5 Q105 132 97 119 Q89 118 72 115 Q69 125 67 135.5 Q65 146 63.5 160.5 Q62 175 61 183 Q60 191 59.5 209.5 Q59 228 59 234 Q59 240 59 263 Q59 286 59 290 Q59 308 56 340 Q53 372 53.5 396 Q54 420 61 440 Q69 459 83 462 ZM309 415 Q167 434 122 390 Q118 385 116 379.5 Q114 374 114 364.5 Q114 355 114.5 350 Q115 345 117.5 333.5 Q120 322 120 320 Q175 331 217.5 353.5 Q260 376 309 415 Z" /><glyph glyph-name="S" unicode="s" d="M114 87 Q91 80 74.5 87.5 Q58 95 58 115 Q58 122 63 127 Q68 132 77.5 135 Q87 138 96 140 Q105 142 116.5 144 Q128 146 134 147 Q194 163 249 209 Q304 255 339 313 Q302 320 261.5 309.5 Q221 299 178 282 Q135 265 105 263 Q87 262 76 273.5 Q65 285 65 302 Q65 342 125 392 L242 492 Q294 536 326 536 Q349 536 355 511 Q240 462 142 336 Q157 334 244.5 350.5 Q332 367 346 365 Q361 364 368 363 Q375 362 384 359 Q393 356 396.5 350 Q400 344 401 333 Q401 317 386 289 Q349 221 275.5 167.5 Q202 114 114 87 Z" /><glyph glyph-name="T" unicode="t" d="M264 511 Q294 496 310.5 493.5 Q327 491 369 496 Q397 500 412 500 Q427 500 442 492 Q454 486 454 463 Q425 463 351 447 Q337 444 328.5 434 Q320 424 318.5 407 Q317 390 317 375 Q317 360 319 338.5 Q321 317 321 306 Q321 277 317 225 Q313 173 313 145 Q313 99 306 87 Q300 73 283 72 Q266 71 256 91 Q246 111 248 131 Q249 141 256 190 Q263 239 266 271.5 Q269 304 269 338 Q269 358 268 371.5 Q267 385 262.5 400 Q258 415 251 424 Q244 433 231.5 439 Q219 445 202 445 Q189 445 155.5 439.5 Q122 434 96.5 434.5 Q71 435 57 446 Q39 461 35 495 Q75 504 113 499.5 Q151 495 196 495.5 Q241 496 264 511 Z" /><glyph glyph-name="U" unicode="u" d="M391 392 Q391 267 387 230 Q376 120 317 90 Q291 77 256 76 Q221 75 195 77.5 Q169 80 145.5 88 Q122 96 109.5 111.5 Q97 127 97 151 Q97 159 97 175 Q97 243 96 280 Q95 317 87 368.5 Q79 420 63 451 Q53 468 56.5 481.5 Q60 495 82 495 Q102 494 119.5 463.5 Q137 433 145 395.5 Q153 358 153 329 Q152 316 151 295 Q150 274 149.5 262 Q149 250 149 232.5 Q149 215 151 204 Q153 193 156 180 Q159 167 165.5 159.5 Q172 152 181 144.5 Q190 137 203 134 Q216 131 233 131 Q271 131 296.5 162 Q322 193 333 236.5 Q344 280 342 329 Q342 349 336.5 389.5 Q331 430 333.5 454 Q336 478 351 495 Q373 476 382 453.5 Q391 431 391 392 Z" /><glyph glyph-name="V" unicode="v" d="M30 392 Q63 404 84.5 393 Q106 382 137 344 Q149 330 172.5 298 Q196 266 216 243.5 Q236 221 259 202 Q270 194 280 193 Q290 192 298 198 Q306 204 312.5 211 Q319 218 326.5 228 Q334 238 338 242 Q391 297 418 335 Q445 373 468 431 Q481 464 502 464 Q513 464 525 450.5 Q537 437 536 424 Q536 409 516.5 378 Q497 347 496 344 Q484 319 420 243.5 Q356 168 354 157 Q341 127 320 100 Q299 73 282 73 Q267 73 260 84 Q253 95 252 109 Q251 123 247 139 Q243 155 235 162 L75 325 Q42 358 30 392 Z" /><glyph glyph-name="W" unicode="w" d="M542 205 Q533 187 540 168.5 Q547 150 544.5 134 Q542 118 518 115 Q502 113 488.5 95.5 Q475 78 459 76 Q454 91 452 130 Q450 149 445.5 162.5 Q441 176 429.5 189.5 Q418 203 412.5 208 Q407 213 388 229 Q359 253 338 256.5 Q317 260 298.5 246.5 Q280 233 256 199 Q251 191 240 165.5 Q229 140 217 124.5 Q205 109 185 107 Q167 105 159.5 119.5 Q152 134 148 160.5 Q144 187 140 196 Q128 223 98 277 Q68 331 50.5 373.5 Q33 416 33 454 Q33 473 39 486 Q62 470 79 434.5 Q96 399 112.5 356.5 Q129 314 142 294 Q144 291 161.5 262 Q179 233 190 218 Q226 244 250 269.5 Q274 295 297 335 Q314 364 340 376 Q345 367 353 349 Q361 331 369 317.5 Q377 304 388 296 Q424 268 482 210 Q530 290 556.5 346 Q583 402 608 479 Q617 506 633 489 Q648 471 650 444 Q650 415 631 371.5 Q612 328 580 273 Q548 218 542 205 Z" /><glyph glyph-name="X" unicode="x" d="M482 566 Q485 560 490 555 Q495 550 502.5 544 Q510 538 514 536 Q513 528 507 516 Q501 504 493 489.5 Q485 475 482 471 Q478 456 451.5 425 Q425 394 390 358 Q355 322 348 313 Q326 287 319.5 273 Q313 259 319 244.5 Q325 230 348 210 Q368 192 376 184 Q384 176 392 161 Q400 146 403 123 Q382 120 361.5 128.5 Q341 137 327.5 148.5 Q314 160 296 177.5 Q278 195 268 202 L197 76 Q185 86 182 89 Q179 92 173 98.5 Q167 105 167 109.5 Q167 114 168 121.5 Q169 129 172 139 Q174 150 181 164 Q188 178 195.5 190.5 Q203 203 208 217 Q213 231 211 245 Q209 259 198 272 L84 397 Q65 418 64 436 Q63 454 79 479 Q114 457 155 404 L221 320 Q235 304 248 299 Q261 294 274 302.5 Q287 311 295 319.5 Q303 328 316 344 Q339 374 396 451.5 Q453 529 482 566 Z" /><glyph glyph-name="Y" unicode="y" d="M15 479 Q32 486 51 485 Q70 484 81 469 Q123 408 150 382 L204 329 Q229 352 276 395.5 Q323 439 347 463 Q360 475 377.5 494.5 Q395 514 403.5 522 Q412 530 428 541 Q444 552 465 561 Q469 562 480 550.5 Q491 539 489 532 Q489 525 484.5 517.5 Q480 510 472 501.5 Q464 493 457 487 Q450 481 439 472.5 Q428 464 426 463 Q414 448 383 420 Q352 392 328 369 Q304 346 285 311 Q266 276 268 242 Q275 130 267 98 Q260 71 244 68 Q232 67 223.5 76.5 Q215 86 210 107 Q204 134 204 210 Q204 238 191.5 263.5 Q179 289 159.5 308.5 Q140 328 116 349 Q92 370 71.5 388 Q51 406 35 430 Q19 454 15 479 Z" /><glyph glyph-name="Z" unicode="z" d="M162 290 Q166 310 192 311.5 Q218 313 249 313 Q280 313 292 329 Q324 356 355 408 Q344 410 326 410 Q301 411 254 400.5 Q207 390 171.5 381 Q136 372 132 375 Q104 374 79.5 383.5 Q55 393 55 410 Q55 431 72.5 436 Q90 441 125 440 Q180 436 283.5 463.5 Q387 491 435 491 Q468 491 468 463 Q468 443 445.5 412 Q423 381 398.5 353.5 Q374 326 371 320 Q376 320 390 319 Q404 318 408.5 317 Q413 316 424 314 Q435 312 439 309.5 Q443 307 449 303 Q455 299 457.5 293 Q460 287 460 278 Q461 270 457 265 Q453 260 445 258.5 Q437 257 430.5 256.5 Q424 256 412 256.5 Q400 257 395 257 Q359 256 334.5 249.5 Q310 243 290.5 227 Q271 211 259 194.5 Q247 178 229 147 Q297 132 458 139 Q470 139 489.5 141.5 Q509 144 521 145.5 Q533 147 546 145.5 Q559 144 565 135 Q571 126 571 110 Q571 100 565 94 Q559 88 545.5 86 Q532 84 521.5 83.5 Q511 83 492 83.5 Q473 84 466 84 L324 84 Q314 85 289 81 Q264 77 238 73 Q212 69 187 67.5 Q162 66 146 74.5 Q130 83 130 103 Q130 121 143.5 145 Q157 169 184 204 Q211 239 213 242 Q195 246 179 260 Q163 274 162 290 Z" /><glyph glyph-name="a" unicode="a" d="M395 281 Q396 312 389 338 Q382 364 363 378.5 Q344 393 317 384 Q238 357 183 300 Q165 283 150.5 293.5 Q136 304 136 326 Q136 343 154.5 359.5 Q173 376 194 386.5 Q215 397 245 410.5 Q275 424 285 429 Q309 443 321.5 448 Q334 453 349.5 453.5 Q365 454 382 446 Q394 441 403 424 Q459 324 459 233 Q459 223 478.5 175.5 Q498 128 498 115 Q498 100 489.5 84 Q481 68 469 68 Q454 69 444 77.5 Q434 86 429.5 95.5 Q425 105 419 123 Q405 118 372 104 Q339 90 320.5 83.5 Q302 77 274.5 67.5 Q247 58 223.5 54 Q200 50 177 50 Q100 50 71 107 Q66 123 65.5 135.5 Q65 148 74.5 161.5 Q84 175 94 184.5 Q104 194 119.5 204 Q135 214 147.5 221 Q160 228 174 233 Q244 265 374 278 Q388 280 395 281 ZM126 123 Q167 112 205 111.5 Q243 111 282.5 122 Q322 133 353 146.5 Q384 160 411 178 Q389 211 342.5 220.5 Q296 230 250.5 218.5 Q205 207 168 181 Q131 155 126 123 Z" /><glyph glyph-name="b" unicode="b" d="M110 455 Q110 464 109 482.5 Q108 501 107.5 514.5 Q107 528 108.5 542.5 Q110 557 116 565 Q122 573 134 573 Q175 573 172 511 Q171 477 158 404 Q145 331 149 289 Q176 294 254 331 Q332 368 339 368 Q346 370 366 375 Q386 380 394 382 Q402 384 418.5 386.5 Q435 389 446 388.5 Q457 388 470 386 Q483 384 496 378 Q510 372 512 347 Q514 322 505 305 Q495 279 471 253.5 Q447 228 411 204.5 Q375 181 352 168 Q329 155 293 137 Q267 124 241 115.5 Q215 107 177.5 97.5 Q140 88 123 84 Q109 86 102.5 97.5 Q96 109 94 131 L102 139 Q100 143 85 157 Q70 171 70 186 Q70 193 83 227.5 Q96 262 94 273 Q92 286 101 362 Q110 438 110 455 ZM425 333 Q401 333 388.5 331 Q376 329 369 326.5 Q362 324 340 315 Q318 306 292 297 Q268 288 245 276 Q222 264 200 246 Q178 228 166 204 Q154 180 158 155 Q255 171 333 216.5 Q411 262 458 329 Q441 333 425 333 Z" /><glyph glyph-name="c" unicode="c" d="M128 139 Q167 134 208.5 144.5 Q250 155 310 180.5 Q370 206 381 210 Q387 210 403.5 220.5 Q420 231 435.5 241 Q451 251 469.5 256 Q488 261 498 250 Q509 239 515 226 Q493 214 462 197 Q431 180 419.5 173.5 Q408 167 387.5 156.5 Q367 146 348 137.5 Q329 129 303 118 Q212 80 119 72 Q93 69 81 86.5 Q69 104 70 132 Q72 169 91.5 207.5 Q111 246 142 278 Q173 310 205 335 Q237 360 270 379 Q296 395 315.5 386 Q335 377 335 348 Q335 335 325 325 Q315 315 303 310 Q291 305 272 298.5 Q253 292 246 289 Q211 274 172.5 226 Q134 178 128 139 Z" /><glyph glyph-name="d" unicode="d" d="M433 5 Q416 9 404.5 23 Q393 37 388.5 59 Q384 81 383 101 Q382 121 381 149.5 Q380 178 378 194 Q367 188 309.5 155 Q252 122 220 107 Q162 80 117 78 Q92 77 69 94.5 Q46 112 45 134 Q45 168 101 203 Q122 216 163.5 243.5 Q205 271 224 282.5 Q243 294 275 310 Q307 326 339 336 Q377 350 387.5 369 Q398 388 394 439 Q394 443 393.5 455.5 Q393 468 392.5 475 Q392 482 392 493.5 Q392 505 393.5 512 Q395 519 397.5 526.5 Q400 534 405.5 537.5 Q411 541 418 542 Q432 543 439.5 536.5 Q447 530 448 516 Q449 502 448.5 492 Q448 482 445 462.5 Q442 443 442 439 Q436 386 435.5 320 Q435 254 437 169 Q439 84 439 48 Q439 25 433 5 ZM110 139 Q139 134 169 142 Q199 150 242.5 171 Q286 192 291 194 Q298 197 313.5 202 Q329 207 339 210.5 Q349 214 360 221 Q371 228 377 237.5 Q383 247 383 260 Q383 274 378 289 Q249 264 110 139 Z" /><glyph glyph-name="e" unicode="e" d="M269 338 Q302 357 339.5 362.5 Q377 368 405 353 Q433 338 433 302 Q433 274 406.5 247.5 Q380 221 349 210 Q332 203 307.5 195.5 Q283 188 270.5 184 Q258 180 242.5 170 Q227 160 215 147 Q258 136 309.5 145.5 Q361 155 398 171 Q435 187 485.5 202.5 Q536 218 578 218 Q572 191 548 176 Q537 169 504 155 Q471 141 415 119.5 Q359 98 356 97 Q325 84 293 78.5 Q261 73 229 77.5 Q197 82 176 100 Q172 102 160 115 Q148 128 140 129 Q133 129 107.5 122.5 Q82 116 71 115 Q56 114 48 125 Q40 136 40 150 Q40 162 49 166.5 Q58 171 69.5 170.5 Q81 170 95.5 170.5 Q110 171 119 176 Q144 183 151 191.5 Q158 200 171 234 Q176 249 181.5 260.5 Q187 272 195.5 282 Q204 292 208 297 Q212 302 226 311 Q240 320 244.5 323 Q249 326 269 338 ZM223 226 Q259 224 291 236 Q323 248 342 263 Q361 278 389 305 Q334 312 291 289 Q248 266 223 226 Z" /><glyph glyph-name="f" unicode="f" d="M84 322 Q95 344 92.5 370.5 Q90 397 86.5 427 Q83 457 81 483 Q79 509 90.5 530 Q102 551 130 558 L138 550 Q144 556 159 558 Q174 560 186 558.5 Q198 557 217.5 553.5 Q237 550 241 550 Q304 539 334 525.5 Q364 512 391 479 Q371 479 331 487.5 Q291 496 259.5 500.5 Q228 505 195.5 503.5 Q163 502 145.5 482 Q128 462 130 423 Q133 377 146 320 Q212 330 312 313 Q301 306 282.5 299 Q264 292 249 287.5 Q234 283 210.5 276 Q187 269 177 265 Q156 258 147 242 Q138 226 138 198 Q138 183 140.5 162 Q143 141 145 126.5 Q147 112 145.5 95.5 Q144 79 138 68 Q108 77 101 108.5 Q94 140 99 194 Q100 211 96 222 Q92 233 86 238.5 Q80 244 70 253 Q60 262 54 272 Q51 275 50.5 280.5 Q50 286 50 290 Q50 294 50.5 302 Q51 310 51 313 Q76 313 84 322 Z" /><glyph glyph-name="g" unicode="g" d="M333 186 Q322 180 274 146.5 Q226 113 193 99 Q160 85 121 83 Q92 82 80 99 Q68 116 73 147 Q78 180 94.5 206 Q111 232 130.5 248.5 Q150 265 183 279.5 Q216 294 241.5 302 Q267 310 310 320 Q319 320 333 341 Q347 362 357 360 Q368 358 376 348.5 Q384 339 388.5 328.5 Q393 318 395 299 Q397 280 397 269 Q397 258 397 237 Q397 234 397 233 Q397 198 392.5 113.5 Q388 29 392 -14 Q393 -38 388.5 -57 Q384 -76 375.5 -89.5 Q367 -103 351 -112 Q335 -121 319 -126 Q303 -131 279.5 -134 Q256 -137 237.5 -137.5 Q219 -138 192 -138 Q137 -138 102.5 -125.5 Q68 -113 60 -78 Q61 -61 83 -46 Q105 -31 131.5 -22.5 Q158 -14 184 -10 L128 -66 Q172 -85 222.5 -82.5 Q273 -80 310 -58 Q335 -43 343 5 Q351 53 347 98 Q343 143 333 186 ZM112 139 Q158 132 207 148.5 Q256 165 291 197.5 Q326 230 333 265 Q264 281 194.5 239.5 Q125 198 112 139 Z" /><glyph glyph-name="h" unicode="h" d="M79 338 Q80 365 75.5 401 Q71 437 65.5 463.5 Q60 490 60 519 Q60 548 70 566 Q72 568 76 566 Q80 564 83 561 L86 558 Q98 547 106 530 Q114 513 117 485.5 Q120 458 120.5 442 Q121 426 120.5 387.5 Q120 349 120 340 Q120 328 125 305 Q128 308 145 321.5 Q162 335 167.5 339 Q173 343 188 354 Q203 365 210.5 369.5 Q218 374 232 382 Q246 390 255.5 393 Q265 396 277.5 399 Q290 402 301 402 Q354 402 354 320 Q354 283 359.5 217.5 Q365 152 365 144 Q365 136 372.5 128.5 Q380 121 388 118 Q394 125 402 123 Q408 122 420.5 119 Q433 116 436.5 115.5 Q440 115 447.5 112.5 Q455 110 456.5 107.5 Q458 105 462 100.5 Q466 96 468 90.5 Q470 85 473 76 L370 51 Q344 52 329 67.5 Q314 83 311 106.5 Q308 130 307.5 159.5 Q307 189 309.5 218.5 Q312 248 310 275 Q309 288 307.5 296.5 Q306 305 304 315 Q302 325 298 330 Q294 335 288 339 Q282 343 273 342 Q264 341 251 336 Q218 324 182.5 285 Q147 246 133 210 Q126 191 122 141 Q118 89 86 76 Q70 109 67 149 Q64 189 71.5 255.5 Q79 322 79 338 Z" /><glyph glyph-name="i" unicode="i" d="M74 597 Q88 601 98.5 584.5 Q109 568 107.5 548 Q106 528 89 526 Q68 523 60.5 543 Q53 563 58 589 Q59 595 62.5 596 Q66 597 74 597 ZM66 76 Q58 91 56.5 111 Q55 131 58 147.5 Q61 164 63.5 189 Q66 214 66 233 Q65 249 74 295 Q83 341 82 344 Q82 347 80.5 363 Q79 379 78.5 387.5 Q78 396 78.5 408 Q79 420 83 427.5 Q87 435 94 437 Q109 435 123 412.5 Q137 390 134 367 Q136 359 131 329 Q126 299 119.5 270.5 Q113 242 113 242 Q113 233 112 215 Q111 197 110 185 Q109 173 107 155.5 Q105 138 101.5 126 Q98 114 93.5 102.5 Q89 91 82 84.5 Q75 78 66 76 Z" /><glyph glyph-name="j" unicode="j" d="M66 531 Q66 543 75 554 Q84 565 94 564 Q114 563 124 543 Q134 523 123 505 Q110 487 110 486 Q66 502 66 531 ZM-102 -129 Q22 -135 46 -107 Q63 -96 68.5 -69 Q74 -42 73 5.5 Q72 53 73 61 Q85 231 72 297 Q67 322 75 347 Q83 372 101 376 Q116 370 125 356 Q134 342 136 319.5 Q138 297 138 277.5 Q138 258 136 229 Q134 200 134 186 Q134 59 110 -74 Q107 -94 102.5 -108.5 Q98 -123 90 -138 Q82 -153 71.5 -162.5 Q61 -172 45 -178 Q29 -184 8 -184 Q-48 -184 -93 -156 Q-98 -149 -102 -129 Z" /><glyph glyph-name="k" unicode="k" d="M97 360 Q91 506 70 591 Q71 624 95 637 L98 633 Q101 630 103.5 629 Q106 628 111 629 Q123 624 132 604 Q141 584 142 566 Q145 524 150 439.5 Q155 355 158 313 Q169 319 175.5 322.5 Q182 326 188 329.5 Q194 333 199 337 Q204 341 208 343.5 Q212 346 219.5 353 Q227 360 231.5 364 Q236 368 248.5 380 Q261 392 269 400 Q277 408 287.5 422 Q298 436 307 445 Q316 454 328 457 Q335 459 341.5 447.5 Q348 436 349 422 Q350 416 346.5 409 Q343 402 339.5 396.5 Q336 391 328 383.5 Q320 376 315.5 372 Q311 368 303 361 Q295 354 293 352 Q267 331 247.5 313.5 Q228 296 221.5 290 Q215 284 202.5 274.5 Q190 265 166 249 Q206 226 307.5 190.5 Q409 155 442 139 Q457 132 464 118.5 Q471 105 465 94.5 Q459 84 441 82 Q435 81 425.5 84 Q416 87 402.5 93 Q389 99 387 100 Q382 102 357 112 Q332 122 311.5 129.5 Q291 137 265.5 146.5 Q240 156 219.5 161 Q199 166 187 166 Q169 166 150 162 Q162 116 142 84 Q103 100 94 136 Q79 200 75 235 Q77 246 84 271 Q91 296 94.5 317 Q98 338 97 360 Z" /><glyph glyph-name="l" unicode="l" d="M69 557 Q52 601 80 629 Q97 630 106 622.5 Q115 615 123 594 Q135 560 135 486 Q135 409 141.5 302 Q148 195 148 150 Q148 98 135 68 Q108 80 97 116 Q86 152 87 187.5 Q88 223 92 277.5 Q96 332 96 357 Q96 370 95.5 399.5 Q95 429 94.5 437 Q94 445 92.5 464 Q91 483 88 493.5 Q85 504 80.5 520.5 Q76 537 69 557 Z" /><glyph glyph-name="m" unicode="m" d="M50 210 Q97 268 89 360 Q89 363 85 388 Q81 413 81 418 Q81 419 81.5 422 Q82 425 82 426 Q82 427 82.5 430.5 Q83 434 84 436 Q85 438 85.5 439 Q86 440 87 441 Q88 442 89.5 442.5 Q91 443 93 443 Q95 443 97 443 Q111 443 120 435.5 Q129 428 133.5 417 Q138 406 139 388.5 Q140 371 139.5 356.5 Q139 342 137.5 321.5 Q136 301 136 289 Q159 297 189.5 322 Q220 347 244 366.5 Q268 386 280 384 Q294 383 305.5 367 Q317 351 321.5 334.5 Q326 318 332.5 292 Q339 266 342 257 Q347 264 361.5 282.5 Q376 301 383 309.5 Q390 318 403.5 327 Q417 336 430 339 Q457 332 466.5 308.5 Q476 285 476 242 Q476 194 486.5 175 Q497 156 532 155 Q591 153 606 148 Q620 144 642 131 Q637 129 610 117 Q583 105 569.5 100 Q556 95 533.5 89.5 Q511 84 492.5 84 Q474 84 460.5 95 Q447 106 440 126.5 Q433 147 428.5 166 Q424 185 420 211 Q416 237 413 249 Q399 233 363.5 157.5 Q328 82 318 68 Q298 82 292 92 Q286 102 286 125 Q286 177 285.5 199 Q285 221 281.5 256.5 Q278 292 271 320 Q242 298 206 265.5 Q170 233 152 218 Q142 209 136 193.5 Q130 178 129.5 160.5 Q129 143 129 122.5 Q129 102 129 84 Q85 89 78 132 Q67 192 50 210 Z" /><glyph glyph-name="n" unicode="n" d="M87 447 Q91 441 98.5 429.5 Q106 418 109 413 Q112 408 115 398 Q118 388 118 376 Q118 369 118.5 356.5 Q119 344 119 338.5 Q119 333 120 323.5 Q121 314 122.5 306 Q124 298 126 289 Q128 290 153 318 Q178 346 196 359 Q214 372 230 372 Q241 372 248.5 366.5 Q256 361 259 356 Q262 351 269 336 Q276 322 285.5 253.5 Q295 185 300 172 Q304 145 403 131 Q398 107 370 92 Q342 77 309 80.5 Q276 84 261 107 Q243 135 238 174 Q226 286 221 297 Q112 221 110 68 Q89 70 77.5 84 Q66 98 64 120.5 Q62 143 63 164.5 Q64 186 67.5 214.5 Q71 243 71 257 Q71 280 64.5 328 Q58 376 62 402.5 Q66 429 87 447 Z" /><glyph glyph-name="o" unicode="o" d="M135 95 Q102 73 81 84.5 Q60 96 60 141 Q60 199 128 284.5 Q196 370 249 400 Q277 415 287 417.5 Q297 420 328 415 Q390 407 388 332 Q386 292 368 256.5 Q350 221 319 195 Q288 169 253.5 149.5 Q219 130 178 115 Q178 115 171.5 112.5 Q165 110 155.5 105.5 Q146 101 135 95 ZM107 147 Q149 144 206.5 172 Q264 200 306 245 Q348 290 344 329 Q342 347 337.5 355.5 Q333 364 320 364 Q306 364 288.5 354 Q271 344 246 326 Q221 308 217 305 Q188 286 153 235.5 Q118 185 107 147 Z" /><glyph glyph-name="p" unicode="p" d="M59 -121 Q52 -94 50.5 -54.5 Q49 -15 51 20 Q53 55 56 99.5 Q59 144 59 171 Q59 185 68 233 Q77 281 74 303 Q68 349 71 371 Q74 393 91 424 Q105 415 113 395.5 Q121 376 123 358 Q125 340 126.5 310 Q128 280 130 265 Q156 274 216 301.5 Q276 329 328.5 345 Q381 361 430 360 Q432 356 435.5 353.5 Q439 351 445 348.5 Q451 346 454 344 Q461 330 461.5 318 Q462 306 457 293.5 Q452 281 444 270.5 Q436 260 421 245 Q411 233 399.5 223.5 Q388 214 380.5 207 Q373 200 359 192.5 Q345 185 339 182 Q333 179 313 172.5 Q293 166 287.5 163.5 Q282 161 254 152.5 Q226 144 217 142 L130 115 Q107 107 99.5 78.5 Q92 50 95 23 Q98 -4 106 -34 L114 -34 Q116 -46 116 -47 Q116 -46 115 -44 Q114 -42 113 -39.5 Q112 -37 111 -35 Q110 -33 109.5 -32.5 Q109 -32 109 -32 Q106 -35 105.5 -54.5 Q105 -74 102 -81 L91 -121 Q78 -119 59 -121 ZM130 178 Q178 168 236 186 Q294 204 338 237.5 Q382 271 398 305 Q350 313 294 293.5 Q238 274 195.5 242.5 Q153 211 130 178 Z" /><glyph glyph-name="q" unicode="q" d="M404 273 Q404 258 404.5 216 Q405 174 405 152.5 Q405 131 403 99.5 Q401 68 397 45 L404 45 Q403 42 401 40 Q399 38 401 34 Q403 31 404 29 Q400 21 398 22 Q400 22 404 13 Q404 12 402 10 Q395 0 395 -4 Q395 -5 395 -6 Q397 -12 397 -19 Q444 -10 539 5 Q525 -15 494 -35 Q434 -76 420 -97 Q419 -99 414.5 -115 Q410 -131 405 -145.5 Q400 -160 397 -161 Q384 -168 374.5 -168.5 Q365 -169 358.5 -161.5 Q352 -154 347.5 -144 Q343 -134 340.5 -119 Q338 -104 337 -91 Q336 -78 336 -64 Q336 -29 344 31 Q352 91 351 132 Q350 173 333 202 Q298 185 266.5 168.5 Q235 152 211 139.5 Q187 127 144 107 Q132 102 117.5 97.5 Q103 93 84.5 88.5 Q66 84 57 81 Q36 82 26.5 98.5 Q17 115 22 136 Q27 157 41 171 Q90 219 151 270.5 Q212 322 260 353 Q304 382 365 400 Q366 399 368.5 396 Q371 393 373.5 392 Q376 391 381 392 Q404 391 411 383.5 Q418 376 423 354 Q424 351 414 317 Q404 283 404 273 ZM80 147 Q110 141 141.5 151 Q173 161 211 183 Q249 205 262 210 Q301 226 316 250 Q331 274 325 320 Q270 312 191 254 Q112 196 80 147 Z" /><glyph glyph-name="r" unicode="r" d="M119 76 Q89 80 71.5 106.5 Q54 133 51.5 172 Q49 211 52 248 Q55 285 64 320 Q64 326 69 382 Q75 439 103 439 Q111 439 117 437 Q123 435 126.5 430 Q130 425 132.5 421 Q135 417 135 409.5 Q135 402 135.5 397 Q136 392 134.5 382.5 Q133 373 132.5 369 Q132 365 130 355.5 Q128 346 127 344 Q151 338 214.5 342 Q278 346 301 337 Q323 330 340 313 Q325 303 289 296.5 Q253 290 221 287.5 Q189 285 161 273 Q133 261 128 239 Q123 216 123 157 Q123 98 119 76 Z" /><glyph glyph-name="s" unicode="s" d="M95 249 Q131 244 152.5 244 Q174 244 216.5 247 Q259 250 279 250 Q323 250 342.5 235 Q362 220 348 186 Q340 169 321 153 Q302 137 283.5 128 Q265 119 235.5 106 Q206 93 193 86 Q172 75 156 74.5 Q140 74 119 84 Q121 91 129.5 101 Q138 111 150.5 121 Q163 131 177.5 141.5 Q192 152 206 161 Q220 170 231 177 Q242 184 248 189 Q254 194 253 194 Q236 198 168.5 189 Q101 180 91 180 Q50 180 31.5 197.5 Q13 215 24 249 Q33 280 65 308 Q68 312 128 349 Q188 386 224 406 Q245 418 258.5 423 Q272 428 287 427 Q302 426 316 415 Q339 398 334 383 Q329 368 297 360 Q186 329 95 249 Z" /><glyph glyph-name="t" unicode="t" d="M134 80 Q82 82 82 139 Q82 153 84 190.5 Q86 228 85.5 257 Q85 286 82 303 Q79 316 58 339.5 Q37 363 40 376 Q42 383 57.5 392.5 Q73 402 73 415 Q77 435 69.5 485.5 Q62 536 71 549 Q76 558 90 558 Q121 558 127 495 Q131 431 137 424 Q143 416 157 411 Q171 406 194 403 Q217 400 232.5 398 Q248 396 277 394 Q306 392 312 392 Q217 364 201 360 Q157 351 148 344 Q130 331 130 297 Q130 242 134.5 207.5 Q139 173 153 139 Q167 143 179 146.5 Q191 150 195.5 151.5 Q200 153 208.5 154 Q217 155 232 155 Q228 127 197 103.5 Q166 80 134 80 Z" /><glyph glyph-name="u" unicode="u" d="M113 374 Q98 216 114 147 Q156 150 206.5 183.5 Q257 217 272 249 Q283 265 288.5 332.5 Q294 400 304 415 Q335 404 343.5 373 Q352 342 351 281 Q351 273 355 245.5 Q359 218 359 210 Q357 194 364.5 183.5 Q372 173 387 166 Q402 159 415 155.5 Q428 152 446 148 Q451 148 453 147 Q438 132 428 123.5 Q418 115 401 107.5 Q384 100 366 100 Q325 100 308 136 Q299 153 288 178 Q168 83 107 80 Q94 80 84.5 85 Q75 90 70 98 Q65 106 62 120 Q59 134 59 146 Q59 158 59 176 Q61 266 50 388 Q49 407 57.5 426 Q66 445 80 447 Q93 448 104 421 Q115 394 113 374 Z" /><glyph glyph-name="v" unicode="v" d="M336 455 Q380 427 361 384 Q348 357 324 298 Q300 239 279 198 Q271 184 266 166 Q261 148 257.5 126 Q254 104 252 95 Q245 66 222 77 Q203 86 195 107 Q193 112 192 116 Q191 129 185.5 144 Q180 159 174.5 169 Q169 179 160.5 194.5 Q152 210 148 217 Q146 223 139.5 232 Q133 241 122 257.5 Q111 274 103 288 Q68 342 57.5 368.5 Q47 395 52 431 Q90 424 119 379 Q123 374 163 287 Q192 228 218 210 Q224 222 250.5 282.5 Q277 343 298.5 386 Q320 429 336 455 Z" /><glyph glyph-name="w" unicode="w" d="M604 431 Q613 466 630 452 Q646 439 651 409 Q651 404 651 400 Q651 361 632 314 Q613 267 591.5 219 Q570 171 567 133 Q563 91 527 91 Q488 91 422 161 Q381 204 359 218 Q354 210 342 180 Q330 150 319 125 Q308 100 304 100 Q290 86 276 83.5 Q262 81 249 89.5 Q236 98 226.5 108 Q217 118 209 131 L66 350 Q39 388 35 415 Q75 420 97 399.5 Q119 379 138 336 Q192 219 264 147 Q272 156 299 218.5 Q326 281 335 297 Q358 336 380 360.5 Q402 385 430 392 Q432 370 427.5 350 Q423 330 418.5 320 Q414 310 402 290 Q399 284 399 280 Q412 246 441 212 Q470 178 499 178 Q522 178 534 214 Q559 283 588 352 Q601 422 604 431 Z" /><glyph glyph-name="x" unicode="x" d="M140 242 Q131 262 94.5 309 Q58 356 51 384 Q77 390 92.5 381.5 Q108 373 129 345 Q170 291 186 281 Q234 359 298 434 Q312 452 325 450 Q338 448 344 424 Q349 403 290 342 L227 274 Q218 265 218 255.5 Q218 246 225 233 Q227 230 316 158 Q335 142 341.5 128 Q348 114 344 91 Q323 95 292 120.5 Q261 146 232.5 169.5 Q204 193 186 193 Q162 193 134 164 Q54 77 51 76 Q48 101 59 125.5 Q70 150 85 166.5 Q100 183 117 204 Q134 225 140 242 Z" /><glyph glyph-name="y" unicode="y" d="M35 352 Q67 352 97 325.5 Q127 299 145 266 Q163 233 186.5 194 Q210 155 225 139 Q249 180 297 294 Q345 408 359 439 Q362 435 370.5 428 Q379 421 383 413.5 Q387 406 387 395 Q387 377 376.5 350.5 Q366 324 349 291.5 Q332 259 328 249 Q317 225 286 150.5 Q255 76 233 26.5 Q211 -23 194 -51 Q168 -93 130 -113 Q119 -95 125 -71.5 Q131 -48 145.5 -27.5 Q160 -7 175 17.5 Q190 42 197 63 Q204 84 194 107 Q189 127 123 211 Q105 233 107 233 Q106 239 85.5 261 Q65 283 48 309 Q31 335 35 352 Z" /><glyph glyph-name="z" unicode="z" d="M73 301 Q63 300 54 311 Q45 322 45 333 Q45 354 118 381 Q122 383 124 384 Q144 391 290 463 Q293 464 297 462.5 Q301 461 304 457 L306 455 Q324 445 324 423 Q324 412 319 396.5 Q314 381 309 370.5 Q304 360 294 341.5 Q284 323 282 320 Q297 318 340.5 323.5 Q384 329 393 329 Q393 283 345 274 Q339 273 321.5 270.5 Q304 268 300.5 267 Q297 266 285 263.5 Q273 261 269.5 258.5 Q266 256 257.5 251.5 Q249 247 242.5 241 Q236 235 229 226 Q207 202 188 162 Q218 160 246.5 169 Q275 178 336 205 Q355 214 372.5 223 Q390 232 397.5 235.5 Q405 239 417 242 Q429 245 447 247 Q467 249 477.5 238 Q488 227 480 210 Q477 202 458 195 Q439 188 412.5 181.5 Q386 175 377 171 Q209 100 135 50 Q90 20 85 68 Q83 86 94.5 111 Q106 136 129.5 170 Q153 204 156 210 Q122 214 93 210 Q80 258 122 268 Q129 269 152 273.5 Q175 278 188 281 Q213 288 228 317 Q243 346 243 384 Q216 375 187 361 Q158 347 125 328.5 Q92 310 73 301 Z" /><glyph glyph-name="uni4E00" unicode="&#x4e00;" d="M541 362 Q600 367 605 367.5 Q610 368 700 361 Q790 354 815 354 Q834 354 866.5 344 Q899 334 908 326 Q915 319 910.5 303 Q906 287 895 283 Q873 274 838 291 Q824 298 814 294 Q803 287 793 287.5 Q783 288 780 295 Q776 305 696.5 304.5 Q617 304 582 294 Q572 291 563.5 289 Q555 287 551 286 Q547 285 547 287 Q547 290 533 280.5 Q519 271 496 267 Q388 249 345 238 Q327 234 282 231 Q241 228 216 234.5 Q191 241 162 260 Q135 278 111 288 Q93 295 89.5 302 Q86 309 94 319 Q111 340 178 329 Q206 325 226 329 Q265 337 366 347.5 Q467 358 541 362 Z" /><glyph glyph-name="uni4E0A" unicode="&#x4e0a;" d="M631 418 Q657 421 667 431 Q677 441 683.5 441 Q690 441 694 449.5 Q698 458 703.5 456 Q709 454 728 443 Q787 404 793 369 Q797 348 802 342 Q816 323 768 325 Q735 326 636 323 Q537 320 534.5 327.5 Q532 335 534.5 342 Q537 349 527.5 352 Q518 355 547 376 Q576 397 583.5 395 Q591 393 591 400 Q591 414 631 418 ZM312 557 Q311 569 313 571 Q315 573 327 570 Q356 565 395 528 Q410 514 415 517 Q419 521 433.5 502.5 Q448 484 452 466 Q461 433 455 378 Q452 356 457.5 251 Q463 146 469 143 Q471 142 525 149 L645 165 Q731 175 770 168.5 Q809 162 846 128 Q862 113 859 111 Q856 109 815 102 Q774 95 749 103 Q699 117 587 99 Q529 88 502 84 Q477 81 436 71.5 Q395 62 386 58 Q375 51 352.5 48.5 Q330 46 321 37.5 Q312 29 284.5 27 Q257 25 244 34.5 Q231 44 222.5 44 Q214 44 206 57 Q198 70 186 70 Q176 70 161.5 80.5 Q147 91 147 99 Q147 106 143 115.5 Q139 125 141 126.5 Q143 128 177 131.5 Q211 135 256.5 140.5 Q302 146 329 146 Q348 146 354 148 Q360 150 366 158 Q374 172 388 175 L400 178 L396 246 Q393 312 390.5 316 Q388 320 375 366 Q344 488 334 499 Q315 522 312 557 Z" /><glyph glyph-name="uni4E0D" unicode="&#x4e0d;" d="M685 257 Q701 257 701 263.5 Q701 270 726.5 258 Q752 246 784.5 238 Q817 230 829.5 216 Q842 202 850 202 Q859 202 874.5 186.5 Q890 171 899 154 Q917 118 928 103 Q936 91 936 82 Q936 73 931.5 71.5 Q927 70 902 73 Q867 76 864 78.5 Q861 81 849 75 Q837 69 819.5 77 Q802 85 793 87 Q787 87 786 91 Q785 95 786 112 Q789 145 770 170.5 Q751 196 717 207 Q699 213 678 223.5 Q657 234 653 239 Q650 243 654 247.5 Q658 252 666 254.5 Q674 257 685 257 ZM582 492 Q604 516 628 496 Q635 490 652 478 Q669 466 669 461 Q669 456 655.5 442.5 Q642 429 636 429 Q629 429 609.5 417.5 Q590 406 583 406 Q576 406 564.5 396.5 Q553 387 547 387 Q541 387 527 377 Q518 370 517 365.5 Q516 361 519 343 Q523 318 518 308 Q510 298 503.5 213.5 Q497 129 498 74 Q499 26 498 15.5 Q497 5 490 0 Q481 -7 468 -4 Q455 -1 449 7.5 Q443 16 416 30 Q389 44 380 62 Q367 85 371.5 89.5 Q376 94 406 91 Q430 89 437 90 Q444 91 446 97 Q453 108 454.5 193.5 Q456 279 452 296 Q446 315 444.5 315 Q443 315 401 284 Q364 258 323.5 218.5 Q283 179 263 151 Q244 125 228 117 Q212 109 212 106 Q212 103 200 95 L173 81 Q159 72 148 64 Q138 59 104 51.5 Q70 44 66 47 Q62 49 72 67 Q82 85 93 94 Q103 104 125 118 Q198 163 283 235 Q328 273 355 293.5 Q382 314 408 337 L431 359 L414 378 Q396 397 380 405 Q367 410 357.5 417 Q348 424 348 429 Q348 431 367.5 435 Q387 439 409 440 Q453 444 474 424 Q488 410 493 412 Q496 412 532.5 445 Q569 478 582 492 ZM680 600 Q722 603 735 604 Q748 605 770 600 Q792 595 807.5 574.5 Q823 554 823 550 Q823 546 814 537 Q799 521 737 542 Q702 554 633.5 554 Q565 554 513 541 Q478 532 459 532 Q440 532 420.5 527.5 Q401 523 384 522 Q327 517 236 498 Q208 493 196.5 495.5 Q185 498 159 516 L131 536 Q118 545 106 556 Q94 567 94 572 Q94 576 135 573 Q173 570 303 574 Q433 578 477 582 Q518 588 578 591 L680 600 Z" /><glyph glyph-name="uni4E1A" unicode="&#x4e1a;" d="M570 590 Q574 600 578.5 602 Q583 604 592 603 Q609 599 638 579 Q667 559 664 552 Q661 545 671 530 Q689 505 667 498 Q654 494 638.5 440.5 Q623 387 619 334 Q615 296 612 272 L609 247 L634 274 Q657 298 674.5 324.5 Q692 351 692 361 Q692 369 707 377 Q718 383 724.5 381 Q731 379 760 362 Q772 355 774 350 Q776 345 773 331 Q770 312 759 295 Q749 279 710.5 247 Q672 215 654 205 Q639 197 622 181 Q612 172 609 165 Q606 158 606 142 Q606 124 607.5 120.5 Q609 117 619 117 Q633 117 704 116 Q818 113 818 97 Q818 93 835.5 82.5 Q853 72 853 66 Q853 60 865 47 L879 33 L865 27 Q829 13 770 37 Q688 69 637 65 Q606 61 606 54.5 Q606 48 599 42.5 Q592 37 584 50 Q577 60 571.5 61 Q566 62 546 60 Q518 57 493 47 Q468 37 432 32 Q396 27 361 19.5 Q326 12 295.5 7 Q265 2 255 -2 Q230 -16 170 16 Q144 29 129.5 43.5 Q115 58 122 64 Q128 69 202 70 Q276 71 321.5 80 Q367 89 392 92 Q409 95 412.5 97 Q416 99 416 107 Q415 120 409 198.5 Q403 277 402 278 Q401 279 373.5 261 Q346 243 333 232 Q305 207 311 179 Q314 169 312 166 Q310 163 303 162 Q290 159 273 169 Q256 179 243 179 Q230 179 209 209 Q171 261 192 281 Q202 289 216 282 Q275 254 354 286 Q388 299 396 299 Q405 299 407.5 313.5 Q410 328 405 351 Q399 377 395.5 415.5 Q392 454 381 474 Q346 530 352 544 Q359 565 387 543 Q423 513 430 503.5 Q437 494 445 466 Q452 438 453 418 Q454 398 450 324 Q445 240 448 199 Q451 158 464 128 L472 107 L507 110 Q543 113 549 121 Q556 131 559 171.5 Q562 212 563 349 Q566 516 568 519.5 Q570 523 566 548 Q562 573 570 590 Z" /><glyph glyph-name="uni4E2A" unicode="&#x4e2a;" d="M407 471 L421 468 Q488 458 502 454.5 Q516 451 522 440 Q542 408 518 237 Q507 156 504.5 108.5 Q502 61 496.5 -3.5 Q491 -68 495 -82 Q498 -99 491 -99 Q486 -99 473 -86 Q459 -71 450.5 -44.5 Q442 -18 448 -4 Q452 10 455 49.5 Q458 89 465.5 89 Q473 89 470 229 Q469 363 464.5 392.5 Q460 422 441 433 Q424 441 416 457 L407 471 ZM501 537 Q493 537 482.5 542.5 Q472 548 472 552 Q472 556 488.5 561 Q505 566 535 566 Q554 566 562 564 Q570 562 578 552 Q592 537 659 504.5 Q726 472 760 464 Q787 458 810.5 444 Q834 430 834 420 Q834 412 754 401 Q711 394 691 401 Q651 413 596 467 Q565 495 545 507.5 Q525 520 518.5 528.5 Q512 537 501 537 ZM452 692 Q465 698 469 698 Q473 698 484 692 Q497 686 500.5 675 Q504 664 521 647 Q542 626 537 609.5 Q532 593 505 593 Q493 593 490 587 Q487 581 479 581 Q469 581 441 558 Q413 535 403 517 Q389 493 376 476 Q358 451 332 406 Q316 378 309 343 Q306 331 292 327.5 Q278 324 251 311.5 Q224 299 213.5 301.5 Q203 304 192 294 Q183 286 174 287.5 Q165 289 165 299 Q165 310 186 350.5 Q207 391 218 404 Q234 419 251.5 432.5 Q269 446 298 493 Q327 544 420 660 Q439 685 452 692 Z" /><glyph glyph-name="uni4E3B" unicode="&#x4e3b;" d="M465 271 Q469 296 470 313 Q471 330 481.5 334 Q492 338 496.5 337.5 Q501 337 522 328 Q549 318 559.5 318 Q570 318 573 309 Q576 300 588 283 Q598 272 603.5 270 Q609 268 627 269 Q654 272 664 264 Q672 258 673 252.5 Q674 247 669 226 Q665 202 658 194.5 Q651 187 637 187 Q623 187 601 184 L578 181 L581 155 Q584 135 578.5 109 Q573 83 564 73 Q559 66 562.5 62.5 Q566 59 672.5 59 Q779 59 793 51 Q814 41 801 34 Q795 30 798 22 Q811 -25 797 -39 Q777 -58 737 -37 Q689 -13 625 -13 Q545 -15 448 -50 Q417 -61 367.5 -60.5 Q318 -60 283 -47 Q248 -34 234 -19 L220 -4 L233 6 Q245 16 280 16 Q353 17 387 26 Q406 30 435 33.5 Q464 37 466.5 42 Q469 47 470 88 Q471 129 475 144 Q479 159 475 163 Q468 170 352 131 Q312 118 300.5 117.5 Q289 117 285.5 128 Q282 139 265.5 156 Q249 173 255 181 Q262 192 279.5 200 Q297 208 311 205 Q326 202 394 225 L461 247 L465 271 ZM735 443 Q744 444 755 435 Q766 426 766 418 Q766 411 752 394 L738 377 L696 383 Q613 397 548 373 Q520 363 509.5 363 Q499 363 468.5 350.5 Q438 338 435.5 340 Q433 342 407 335 Q381 328 338 325 Q307 323 295 325 Q283 327 252 341 Q224 352 215 358.5 Q206 365 200 377 Q192 395 195 397.5 Q198 400 257.5 401 Q317 402 374 414 Q485 433 573 435 Q623 435 674 439 L735 443 ZM349 647 Q350 649 365.5 654.5 Q381 660 388.5 657 Q396 654 420.5 649.5 Q445 645 461 635 Q532 590 544.5 576.5 Q557 563 548 545 Q542 534 543.5 529 Q545 524 560 509 Q574 496 576 490 Q578 484 576 475 Q570 460 552 460 Q534 460 493 478 Q447 496 420 521 Q401 538 384.5 564 Q368 590 368 601 Q368 608 359 628 Q356 633 354 637.5 Q352 642 350.5 644.5 Q349 647 349 647 Z" /><glyph glyph-name="uni4E50" unicode="&#x4e50;" d="M396 138 Q406 145 417 148 Q428 151 435.5 149.5 Q443 148 443 142 Q443 135 404 99 Q365 63 316 24 Q261 -18 246 -37 Q231 -56 215 -56 Q205 -56 200.5 -52 Q196 -48 187 -30 Q165 13 177 42 Q178 47 180.5 47 Q183 47 190 41 Q199 32 205.5 37 Q212 42 224 42 Q240 44 344 108 L396 138 ZM681 191 Q691 202 750 180 L793 166 Q806 160 818 124 Q828 94 826.5 83 Q825 72 809 69 L754 57 Q709 48 701.5 48.5 Q694 49 694 66 Q696 83 699.5 107.5 Q703 132 689 157.5 Q675 183 681 191 ZM225 517 Q243 538 290 488 L321 457 L318 416 Q315 374 313 313 Q313 260 318.5 254 Q324 248 362 261 Q393 273 416.5 279.5 Q440 286 460 295 Q474 302 477 307.5 Q480 313 480 327 Q480 349 472 376 Q465 407 468 407 Q472 404 490.5 409 Q509 414 534 408 Q549 405 554.5 400.5 Q560 396 563 386 Q569 370 569 358 Q569 345 575 344 Q581 343 603 351 Q663 371 685 358 Q702 351 702 345 Q702 335 628 311 Q582 296 578 292 Q566 283 556 159.5 Q546 36 553 16 Q559 1 559 -33 Q559 -55 557 -61.5 Q555 -68 549 -70 Q537 -74 524.5 -65 Q512 -56 486 -50.5 Q460 -45 442.5 -28 Q425 -11 399 4 Q363 26 363 38 Q362 47 388 36 Q409 29 450 27 L491 26 L491 133 Q491 242 485.5 247 Q480 252 412 217 Q344 182 330 182 Q315 182 298 196.5 Q281 211 275 229 Q269 248 263.5 290 Q258 332 241 380 Q228 421 223 464.5 Q218 508 225 517 ZM478 658 Q484 667 487.5 667.5 Q491 668 503 660 Q516 651 521.5 654.5 Q527 658 544.5 655 Q562 652 574 627 Q588 595 588 583 Q588 571 574 563 Q556 552 541.5 552 Q527 552 503.5 539 Q480 526 474 526 Q468 526 422 505 Q333 464 318 479 Q312 485 312.5 490 Q313 495 324 510 Q346 542 433 614 Q472 648 478 658 Z" /><glyph glyph-name="uni4E60" unicode="&#x4e60;" d="M565 283 Q592 293 596 290 Q603 286 545 225.5 Q487 165 421 107.5 Q355 50 343 50 Q335 50 335 42 Q335 34 330 31 Q325 27 307.5 36.5 Q290 46 290 51 Q290 56 274 56 Q257 56 249 68 Q241 80 251 90 Q259 99 279.5 110.5 Q300 122 309 122 Q316 122 356 157 Q396 192 438.5 218.5 Q481 245 484 250 Q490 256 565 283 ZM247 386 Q257 398 346 375 Q396 362 413.5 354 Q431 346 433 334.5 Q435 323 421 307 L408 291 L366 297 Q326 304 305.5 314 Q285 324 263 350 Q238 378 247 386 ZM490 638 Q532 644 598 639 Q635 635 651 630.5 Q667 626 691 612 Q762 573 762 539 Q762 524 754 498 Q739 452 733 349 Q730 313 723 244 Q717 166 723.5 80 Q730 -6 742 -28 Q745 -31 741 -36 Q737 -41 731.5 -42.5 Q726 -44 722 -41 Q714 -34 706 -39.5 Q698 -45 683 -36.5 Q668 -28 660 -28 Q652 -28 622 -12.5 Q592 3 577.5 7 Q563 11 553 24 L544 40 L569 35 Q592 33 628 30 L663 26 L660 93 Q655 158 657 271 Q658 443 651 496.5 Q644 550 614 585 Q599 599 584.5 599 Q570 599 543 585 Q516 571 507 571 Q498 571 481 560 Q458 546 395.5 522 Q333 498 319 498 Q302 498 274.5 507.5 Q247 517 240.5 525 Q234 533 240 549 Q245 560 249.5 563 Q254 566 268 566 Q290 566 374 599 Q458 632 490 638 Z" /><glyph glyph-name="uni4E8E" unicode="&#x4e8e;" d="M562 476 Q555 496 548 504.5 Q541 513 543 520.5 Q545 528 569.5 516 Q594 504 603 504 Q611 504 621.5 492.5 Q632 481 632 471 Q632 460 648 457 Q664 454 727 454 Q796 455 819.5 444 Q843 433 843 431 Q843 429 821 416 Q803 405 782 403.5 Q761 402 701 411 Q645 418 638.5 411.5 Q632 405 631.5 370 Q631 335 625 320 Q615 297 611 242 Q607 187 607 47 Q605 -47 601 -62.5 Q597 -78 572 -70 Q549 -64 536 -50.5 Q523 -37 502 -32 Q464 -19 496 -15 Q503 -15 513 -14 Q551 -11 561 -5 Q577 5 579 98 Q580 143 584 231 Q587 294 583.5 353 Q580 412 573 419 Q568 423 530.5 417 Q493 411 474 404 Q449 394 433.5 390.5 Q418 387 392 375 Q366 363 327 352.5 Q288 342 265 335 Q225 321 185 341 Q149 359 159 369 Q163 373 174 373 Q191 373 229 383.5 Q267 394 289 398 L421 426 Q528 448 541 448 Q559 448 563.5 454.5 Q568 461 562 476 ZM596 667 Q600 671 619.5 669.5 Q639 668 653 664 Q671 660 676.5 651 Q682 642 672.5 632.5 Q663 623 633 626 Q590 632 512 609 Q474 598 427.5 596 Q381 594 363 601 Q320 619 320 642 Q320 650 329.5 651.5 Q339 653 391 651 Q463 651 484.5 655.5 Q506 660 550 662.5 Q594 665 596 667 Z" /><glyph glyph-name="uni4E92" unicode="&#x4e92;" d="M276 258 Q276 271 325 321.5 Q374 372 399 390 Q424 408 476 460 Q528 512 533.5 512 Q539 512 541.5 504 Q544 496 550 496 Q556 496 570 478 Q584 460 584 452 Q584 445 565 435 Q553 428 527.5 401.5 Q502 375 502 368 Q502 363 465 320 Q455 309 447 299 Q439 289 435 283 Q431 277 432 277 Q439 274 477 282.5 Q515 291 546 302 Q586 316 595 313 Q599 312 601 313 Q603 314 605 319 Q607 324 608 332.5 Q609 341 610 354 L610 373 L592 372 Q581 370 577.5 372.5 Q574 375 572 383 Q570 391 577 396 Q584 401 617 417 Q658 433 677 434.5 Q696 436 712 424 Q735 407 728 394 Q726 391 722 391 Q714 391 714 376.5 Q714 362 708.5 358.5 Q703 355 694.5 334 Q686 313 677.5 306 Q669 299 669 292 Q669 281 633.5 220 Q598 159 578 137 Q570 127 565 111 L563 97 L602 102 Q652 107 718 105.5 Q784 104 817 96 Q858 88 877 69.5 Q896 51 896 47.5 Q896 44 879 33 Q866 26 842.5 24 Q819 22 803 27 Q761 44 694.5 51 Q628 58 577 51 Q439 33 397 15 Q381 8 368 8 Q355 8 278 -8 Q213 -22 191 -22.5 Q169 -23 153 -10.5 Q137 2 126.5 5 Q116 8 110 20 Q102 39 106 43 Q110 47 134 46 Q162 46 210.5 52 Q259 58 346.5 66 Q434 74 477 83 Q508 89 513.5 92 Q519 95 519 104 Q516 118 522 121 Q528 124 528 137.5 Q528 151 545.5 171 Q563 191 563 197.5 Q563 204 580.5 238 Q598 272 598 282 Q598 288 595.5 288 Q593 288 584 282 Q557 268 516 237 Q460 195 442.5 184 Q425 173 404 169 Q383 165 370.5 167 Q358 169 329 180 Q318 184 297 215 Q276 246 276 258 ZM280 482 Q260 492 225 523 Q190 554 192 559.5 Q194 565 237.5 568.5 Q281 572 314.5 579.5 Q348 587 434.5 595 Q521 603 560.5 608 Q600 613 611.5 613 Q623 613 626.5 618.5 Q630 624 638 621 Q715 600 726 587 Q736 578 732 573 Q726 568 696 557.5 Q666 547 656 547 Q642 547 573.5 528.5 Q505 510 486 502 Q463 492 453.5 492 Q444 492 414.5 484.5 Q385 477 342 475 Q299 473 280 482 Z" /><glyph glyph-name="uni4EAB" unicode="&#x4eab;" d="M570 289 Q581 303 588 305 Q595 307 621 306 Q661 303 661 297 Q662 296 658 292 Q651 285 651 273.5 Q651 262 634 255 Q607 244 518 164 L497 145 L509 118 Q518 101 523 96.5 Q528 92 536 92 Q560 92 666 114 Q700 121 717.5 124 Q735 127 740 130.5 Q745 134 773 135 Q801 136 808 136 Q843 141 857 132 Q865 127 858 113 Q852 97 835.5 93.5 Q819 90 753 89 Q684 87 670 81.5 Q656 76 629 76 Q602 76 588 70.5 Q574 65 550 61 L528 58 L526 29 Q525 1 530.5 -28.5 Q536 -58 536.5 -109 Q537 -160 528 -172 Q519 -180 506 -179.5 Q493 -179 462 -167 Q449 -162 432.5 -150 Q416 -138 404.5 -127 Q393 -116 396.5 -112.5 Q400 -109 429.5 -115 Q459 -121 473 -114 Q483 -110 485.5 -103.5 Q488 -97 491 -78 Q494 -57 492.5 -10.5 Q491 36 487 41 Q486 45 460.5 39.5 Q435 34 407 23 Q372 10 324 0.5 Q276 -9 243.5 -17 Q211 -25 195.5 -24 Q180 -23 165 -15 Q158 -9 151 -2 Q144 5 140.5 10.5 Q137 16 138 17 Q140 19 175.5 24.5 Q211 30 266.5 40 Q322 50 347 53.5 Q372 57 410.5 66.5 Q449 76 467 76 Q481 76 483.5 78 Q486 80 483 90 Q474 127 453 139 Q437 148 416 164 L395 183 L360 167 Q323 152 318 152 Q313 152 313 164.5 Q313 177 297 184 Q266 197 287 206 Q297 212 318 212 Q344 212 406 234 Q504 272 543 272 Q554 272 570 289 ZM480 171 Q480 178 508.5 212.5 Q537 247 535 249 Q533 251 521 244 Q445 208 435 199 Q431 195 431.5 193 Q432 191 441 188 Q455 185 463 176 Q480 157 480 171 ZM362 479 Q432 499 437 502.5 Q442 506 497.5 509.5 Q553 513 573 511 Q593 509 621 507 Q649 505 658 502 Q666 498 667.5 487.5 Q669 477 662 467 Q654 456 647.5 442 Q641 428 633.5 425 Q626 422 616 404 Q606 386 595 381 Q584 376 578 365 Q568 339 446 323 Q390 314 378 320 Q369 324 369 315.5 Q369 307 361.5 306.5 Q354 306 350 305 Q346 304 320 334 Q305 355 301 364 Q297 373 295 395 Q292 426 285 433 Q273 449 312 463 Q329 470 362 479 ZM565 464 Q565 477 563 480.5 Q561 484 554 484 Q543 484 525 474 Q501 461 434 437 Q381 419 374 412 Q367 405 375 369 L379 344 L427 356 L512 377 Q553 387 551.5 392.5 Q550 398 557.5 421 Q565 444 565 464 ZM386 708 Q379 764 379 770 Q379 776 403 776 Q421 775 433 770 Q445 765 445 757 Q445 751 450 751 Q455 751 455 741 Q455 731 460.5 727.5 Q466 724 462.5 716.5 Q459 709 469.5 698.5 Q480 688 481 654 Q481 635 483.5 629.5 Q486 624 490 624 Q498 626 565.5 627.5 Q633 629 647.5 632.5 Q662 636 694 632 Q715 629 720.5 627 Q726 625 729 617 Q732 603 728 598 Q718 589 675 597 Q644 603 588 597 Q549 593 536 587 Q511 573 462 562 Q375 541 312 521 Q218 493 206 510 Q200 517 179 529 Q158 541 158.5 547.5 Q159 554 182 556 Q206 561 234 570 Q273 584 381 600 Q418 605 420 611 Q420 614 416 617 Q397 628 386 708 Z" /><glyph glyph-name="uni4EBA" unicode="&#x4eba;" d="M343 327 Q343 330 357.5 330.5 Q372 331 391.5 329 Q411 327 427 323 Q456 317 496 301 Q536 285 547 277 Q555 268 575 257 Q595 246 599.5 246 Q604 246 624 230 Q690 177 704 170 Q718 163 755.5 141.5 Q793 120 843.5 104 Q894 88 913 70.5 Q932 53 927 50.5 Q922 48 922 42 Q922 36 905.5 35 Q889 34 876 33.5 Q863 33 830.5 39.5 Q798 46 786 46.5 Q774 47 757 56 Q740 65 736 65 Q729 65 702.5 87.5 Q676 110 651 138 Q617 173 604.5 183 Q592 193 569 216 Q543 246 513.5 259 Q484 272 399 295 Q376 300 359.5 310 Q343 320 343 327 ZM392 509 Q390 515 402 539.5 Q414 564 415 564 Q421 564 432 557 Q443 550 443 547 Q443 543 460 524 Q477 505 483.5 489 Q490 473 494 479 Q498 485 501.5 481 Q505 477 496 467 Q487 457 480 457 Q473 457 462.5 444.5 Q452 432 445.5 432 Q439 432 430.5 422 Q422 412 411 409.5 Q400 407 359.5 364 Q319 321 299 293 Q278 264 257 225 Q236 186 213.5 161.5 Q191 137 191 131 Q191 125 171.5 112.5 Q152 100 116.5 97.5 Q81 95 76 92 Q71 89 71 93 Q71 100 104 129.5 Q137 159 165 177 Q194 195 210 217.5 Q226 240 259 307 Q284 356 315 393 Q341 425 367 463.5 Q393 502 392 509 Z" /><glyph glyph-name="uni4ECE" unicode="&#x4ece;" d="M687 288 Q692 295 705 291.5 Q718 288 758 273 Q801 257 835.5 231 Q870 205 878 184 Q886 166 891.5 163.5 Q897 161 904.5 143.5 Q912 126 907 112 Q894 86 867.5 98.5 Q841 111 786 165 Q679 274 687 288 ZM389 290 Q419 291 424 292.5 Q429 294 452 287 Q468 281 472.5 277.5 Q477 274 477 262 Q478 246 465 232 Q452 218 431 222 Q414 225 385.5 241.5 Q357 258 352 266 Q346 277 355 282 Q364 287 389 290 ZM672 529 Q680 534 728 522 Q747 516 753.5 511.5 Q760 507 756 497 Q752 487 751 482 Q750 477 733 457 Q661 382 628 299 Q615 269 607.5 261.5 Q600 254 594.5 225 Q589 196 567 150.5 Q545 105 520 85.5 Q495 66 490 68.5 Q485 71 478 90 Q474 103 476 110.5 Q478 118 493 139 Q512 166 537 217.5 Q562 269 576 310 Q591 353 610 389.5 Q629 426 630.5 448 Q632 470 639 478 Q651 492 662 515 Q665 523 672 529 ZM349 541 Q356 551 383 538 Q405 531 412 533 Q420 537 425.5 529 Q431 521 429 509 Q424 496 430.5 484 Q437 472 430 467 Q419 456 390 419.5 Q361 383 345 358 Q321 321 290 254 Q224 105 188 77 Q157 52 141 52 Q125 52 107 74 L92 93 L117 122 Q142 152 161.5 162.5 Q181 173 185 184.5 Q189 196 199 206.5 Q209 217 225 257 L264 338 Q283 376 283 380 Q283 384 293.5 398 Q304 412 328 460 Q352 508 349 522.5 Q346 537 349 541 Z" /><glyph glyph-name="uni4EF6" unicode="&#x4ef6;" d="M229 336 Q231 368 235 368 Q240 368 250.5 352.5 Q261 337 262 328 Q262 317 261.5 216.5 Q261 116 267 111 Q275 104 274 94 Q273 84 263 81 Q241 77 217 115 L203 137 L210 189 Q225 296 229 336 ZM546 603 Q551 609 557 607 Q563 605 582 593 Q614 572 617 567 Q620 562 611 546 Q601 527 592.5 527 Q584 527 530 472 Q476 417 471 417 Q455 417 492 483 Q519 531 519 536 Q519 541 530.5 568.5 Q542 596 546 603 ZM184 494 Q224 531 276.5 587 Q329 643 336 643 Q346 643 377 611.5 Q408 580 408 570 Q408 568 401 568 Q394 568 380 550 Q366 532 360 532 Q354 532 349.5 525.5 Q345 519 338.5 519 Q332 519 314 501 Q296 483 292 483 Q288 483 279.5 469.5 Q271 456 262 451 Q253 446 213.5 416 Q174 386 164 386 Q143 385 93 353 Q83 347 79 347 Q75 347 70 351 Q64 358 67 369 Q69 379 106 419 Q143 459 184 494 ZM694 691 Q692 699 693.5 700 Q695 701 705 699 Q751 690 764 675 Q773 667 774.5 659 Q776 651 774 616 Q772 561 760 498 Q757 484 762 484 Q767 484 783 496 Q800 510 805 510 Q818 510 853.5 501.5 Q889 493 890 490 Q893 482 878.5 474 Q864 466 846 463 Q820 461 787 445 L752 428 L747 385 Q741 343 739 333 Q735 324 742 324 Q748 324 787 330 Q903 348 927 306 Q934 295 934.5 292 Q935 289 929 283 Q921 274 894 277 Q867 280 853.5 279.5 Q840 279 837 284 Q834 289 793 285 Q745 282 737.5 277 Q730 272 729 241 Q720 56 714 12 Q710 -21 707.5 -56 Q705 -91 703 -98 Q698 -111 689 -89 Q685 -80 683 -69 Q672 -17 672.5 21 Q673 59 685 177 Q695 263 688 268 Q683 270 661 263 Q606 246 520 233 Q456 225 430 256 Q413 277 422 282 Q425 283 430 280 Q464 265 608 296 Q645 305 667 309 L689 312 L689 410 L661 410 Q632 411 618.5 418 Q605 425 588 427 Q571 431 553.5 442 Q536 453 537 459.5 Q538 466 612.5 467 Q687 468 692 472.5 Q697 477 698.5 523.5 Q700 570 703 609 Q706 651 694 691 Z" /><glyph glyph-name="uni4F17" unicode="&#x4f17;" d="M303 111 Q333 121 377 115.5 Q421 110 436 96 Q443 88 437 75 Q433 66 426.5 63 Q420 60 402 57 Q374 55 336 70 Q286 91 285 101 Q285 107 303 111 ZM655 119 Q668 122 675 119 Q711 108 721 118 Q736 129 762 93 Q777 75 792 75 Q807 75 813 68.5 Q819 62 822 62 Q829 62 847.5 45.5 Q866 29 866 23 Q866 18 887 1 Q924 -29 900 -51 L888 -62 L847 -51 Q781 -34 781 -19 Q781 -15 771.5 -15 Q762 -15 759 0 Q756 15 721.5 49.5 Q687 84 667 93 Q633 108 648 115 Q650 118 655 119 ZM330 268 Q333 272 342.5 271 Q352 270 359 265 Q367 257 377 235 Q388 211 379.5 201 Q371 191 330 172 Q308 163 261 113 Q185 34 153 4.5 Q121 -25 108 -25 Q61 -25 135 77 Q148 96 164 114 Q200 159 241 199 Q282 239 303 250 Q327 262 330 268 ZM539 310 Q539 317 542.5 318 Q546 319 564 316 Q591 313 618.5 303.5 Q646 294 650 285 Q656 276 642 248 Q628 220 628 211 Q628 204 617 183.5 Q606 163 596 152 Q586 141 579 115 Q560 51 495 20 Q457 1 455 1 Q454 1 456.5 6.5 Q459 12 463.5 21 Q468 30 474 41 Q496 82 490 89.5 Q484 97 495 97 Q502 97 514.5 115 Q527 133 527 144 Q527 151 540 194 Q564 266 546 290 Q539 299 539 310 ZM528 475 Q539 488 594.5 482 Q650 476 668 461 Q707 429 734 422 Q755 416 759 404.5 Q763 393 751 380 Q740 371 715 375 Q660 382 623 409 Q605 423 581 432 Q557 441 539 454 Q521 467 528 475 ZM427 607 Q447 628 462 645.5 Q477 663 484.5 660 Q492 657 514 653.5 Q536 650 555 640 Q568 635 572 630 Q576 625 576 614 Q576 595 561.5 578.5 Q547 562 535.5 564.5 Q524 567 457.5 503 Q391 439 365.5 405.5 Q340 372 334.5 372 Q329 372 311 353 Q295 336 270 319 Q245 302 237 302 Q230 302 220 294 Q212 288 206 289.5 Q200 291 200 299 Q200 307 244 361.5 Q288 416 308 451 Q325 478 363.5 527.5 Q402 577 427 607 Z" /><glyph glyph-name="uni4F7F" unicode="&#x4f7f;" d="M254 517 Q254 536 277 523 Q286 517 295 506 Q330 467 289 449 Q265 439 246 416 Q227 393 230 380 Q234 359 237 285.5 Q240 212 237 184 Q233 134 255 -32 Q257 -45 248 -48 Q239 -49 220 -35 Q201 -21 195 -10 Q184 9 193 276 Q198 364 193 364 Q189 364 164.5 347 Q140 330 124 317 Q108 302 75 283 Q42 264 40 268 Q36 274 56 300.5 Q76 327 96 343 Q133 373 172 411.5 Q211 450 224 473 Q243 500 248.5 504 Q254 508 254 517 ZM499 705 Q505 711 511.5 709.5 Q518 708 540 697 Q570 681 576.5 666.5 Q583 652 580 608 Q574 533 596 543 Q605 548 636.5 553.5 Q668 559 689 561 Q703 562 707 560 Q711 558 714 548 Q718 533 707 525.5 Q696 518 661 512 Q621 508 603 499 L587 490 L587 449 Q587 406 591 406 Q595 406 634 417 Q699 434 749 421 L772 415 L770 393 Q765 373 744.5 351.5 Q724 330 720.5 309.5 Q717 289 707.5 283.5 Q698 278 698 271 Q698 264 684 259 Q670 254 627 245 Q581 236 573 228.5 Q565 221 565 202 Q565 183 559 149 Q555 118 560 110 Q565 102 600 90 Q631 79 645 71 L678 52 Q698 42 698 37 Q698 32 720.5 21.5 Q743 11 746.5 5 Q750 -1 760.5 -1 Q771 -1 792.5 -18.5 Q814 -36 847 -45.5 Q880 -55 886 -59.5 Q892 -64 919 -70 Q953 -76 957.5 -79 Q962 -82 956 -92 Q949 -104 947 -105 Q946 -111 918 -112.5 Q890 -114 858 -111 Q796 -105 749.5 -86.5 Q703 -68 703 -49 Q703 -35 655.5 9.5 Q608 54 574 70 Q543 84 541.5 83 Q540 82 527.5 59 Q515 36 476 2 Q437 -32 415 -38 Q393 -45 384 -54 Q374 -63 374 -58 Q376 -43 423 5 Q427 9 430 14 Q446 27 461 49 Q476 71 483 88 Q490 105 486 108 Q478 109 443 112 Q392 118 349 139.5 Q306 161 306 181 Q306 187 313.5 188.5 Q321 190 333 186.5 Q345 183 355 176 Q395 146 473 139 Q502 136 509.5 142.5 Q517 149 518 184 Q520 205 518.5 208.5 Q517 212 508 211 Q498 209 477 197.5 Q456 186 452 178.5 Q448 171 435.5 173.5 Q423 176 414 186 Q406 195 377 257.5 Q348 320 337 349 Q330 371 337.5 375.5 Q345 380 374 370 Q401 361 417.5 362.5 Q434 364 498 384 L526 395 L526 431 Q526 468 522 471.5 Q518 475 483.5 467 Q449 459 427 467 Q402 474 402 480 Q402 489 474 509 Q523 524 523 528.5 Q523 533 515.5 555.5 Q508 578 505 617 Q502 656 496 667 Q484 689 499 705 ZM583 281 Q587 278 611.5 287 Q636 296 647 297 Q658 298 667.5 317 Q677 336 677 357 Q677 378 669.5 383.5 Q662 389 637 381 Q611 376 597 373 Q583 370 580 355 Q577 342 578.5 313 Q580 284 583 281 ZM528 309 Q528 348 522.5 350.5 Q517 353 468 340 Q440 333 433 329.5 Q426 326 427 320 Q428 314 430 305 Q439 245 445 237 Q451 229 480 242 Q484 243 486 243 Q518 258 523 265.5 Q528 273 528 309 Z" /><glyph glyph-name="uni4FE1" unicode="&#x4fe1;" d="M583 90 Q626 90 695.5 105.5 Q765 121 784.5 122.5 Q804 124 816 125 Q827 125 846 113 Q865 101 866.5 91.5 Q868 82 849 63.5 Q830 45 824.5 20.5 Q819 -4 812 -23.5 Q805 -43 803 -50 Q801 -57 794 -59 Q787 -61 765 -68 Q743 -75 706 -76.5 Q669 -78 657 -85 Q634 -97 603 -68 Q581 -48 558 4.5 Q535 57 538 76 Q540 87 546 88.5 Q552 90 583 90 ZM773 65 Q773 82 769 81.5 Q765 81 751 77.5 Q737 74 728.5 67 Q720 60 695.5 56.5 Q671 53 642.5 39.5 Q614 26 611.5 28.5 Q609 31 609 -3 Q609 -32 617.5 -42 Q626 -52 646 -46 Q663 -41 669 -37 Q676 -32 699 -25 Q722 -18 734 -18 Q745 -18 745 -7.5 Q745 3 751 6 Q757 11 765 32 Q773 53 773 65 ZM730 232 Q788 241 794 229 Q799 215 782 201 Q765 187 737 184 Q720 181 698 176.5 Q676 172 662 168.5 Q648 165 618 154.5 Q588 144 574 152 Q561 158 552.5 167 Q544 176 547 179 Q551 184 592 190 Q649 198 693 223 Q703 229 730 232 ZM745 366 Q771 378 804.5 381.5 Q838 385 842 374 Q848 357 832 344.5 Q816 332 791 332 Q779 332 752.5 318 Q726 304 697.5 304 Q669 304 633.5 285 Q598 266 575 264 Q558 261 551 263.5 Q544 266 532 277 Q512 294 512 298.5 Q512 303 544.5 306.5 Q577 310 611 323.5 Q645 337 680.5 343 Q716 349 745 366 ZM354 611 Q364 619 392 593 L415 571 L407 548 Q401 525 370 493.5 Q339 462 331.5 444 Q324 426 294 397 L263 368 L271 281 Q279 195 279 156.5 Q279 118 287.5 79 Q296 40 299 14.5 Q302 -11 306.5 -36 Q311 -61 301 -70.5 Q291 -80 285 -80 Q274 -80 265.5 -48.5 Q257 -17 262 8 Q267 30 262 49 Q257 68 255 203 Q253 338 250 341 Q246 344 234.5 335.5 Q223 327 220 320 Q217 310 185.5 288 Q154 266 146 256.5 Q138 247 107.5 227 Q77 207 53.5 181.5 Q30 156 23 164 Q18 168 27.5 183 Q37 198 72 238 Q100 267 127 303.5 Q154 340 191 375 Q242 428 283 474 Q324 520 324 528 Q324 531 337.5 553.5 Q351 576 351 591.5 Q351 607 354 611 ZM623 661 Q623 687 631 687 Q642 687 669 669.5 Q696 652 705 638 Q716 622 731.5 576.5 Q747 531 748 514 Q748 505 751 503.5 Q754 502 768 503 Q787 505 800 509.5 Q813 514 834.5 514 Q856 514 881 525.5 Q906 537 916 532.5 Q926 528 952 524 Q978 520 978 517 Q978 511 972 502 Q966 493 963 496 Q956 499 953 490 Q950 482 927 482.5 Q904 483 892 491 Q879 499 858.5 493.5 Q838 488 833 491 Q828 494 807.5 482.5 Q787 471 756.5 467 Q726 463 703 454 Q642 426 625 426 Q609 425 586.5 415 Q564 405 547 404 Q530 403 513 395 Q481 378 442.5 383.5 Q404 389 379 412 Q370 422 369 425.5 Q368 429 375 436 Q385 445 416 448 Q524 462 578 476 Q620 485 660 493 L700 500 L685 519 Q660 547 641.5 589.5 Q623 632 623 661 Z" /><glyph glyph-name="uni516C" unicode="&#x516c;" d="M397 288 Q411 319 419 334.5 Q427 350 427 355.5 Q427 361 455 360 Q472 358 479.5 354.5 Q487 351 497 341 Q511 323 511 317 Q512 310 497.5 292.5 Q483 275 469 267 Q455 258 419 219.5 Q383 181 361.5 161 Q340 141 343 138 Q346 135 390 153 Q486 188 499 188 Q511 188 524 194 Q534 197 535 200.5 Q536 204 530 217 Q522 235 522 242 Q522 248 535.5 255.5 Q549 263 558 263 Q562 263 596.5 230 Q631 197 643 182 Q650 172 640.5 165 Q631 158 638 148 Q649 136 653 97 Q658 60 641 60 Q638 60 634 63 Q627 70 614 67 Q600 66 580.5 86 Q561 106 558 123 Q553 151 543.5 156 Q534 161 505 157 Q477 151 446 138.5 Q415 126 405 114 Q397 106 352.5 91 Q308 76 277 73 Q253 70 245 71.5 Q237 73 220 88 Q195 106 195 111.5 Q195 117 217 132 L239 147 L259 135 L280 125 L300 147 Q321 170 331.5 189 Q342 208 346 210 Q353 214 371 240.5 Q389 267 397 288 ZM237 457 Q245 464 250.5 462.5 Q256 461 258 451 Q258 439 261 403 L264 366 L236 357 Q208 348 165 344 Q134 341 127 342.5 Q120 344 114 351 Q106 363 102.5 359 Q99 355 99 363 Q99 376 149 413 Q199 450 218 450 Q231 450 237 457 ZM474 529 Q474 538 483.5 539.5 Q493 541 526 530 Q559 519 565 513 Q572 505 578 505 Q584 505 612.5 479.5 Q641 454 654.5 450.5 Q668 447 736.5 413.5 Q805 380 825.5 377.5 Q846 375 860 365 Q874 355 887 353 Q900 350 901 343 Q902 336 888 332 Q874 326 862 319.5 Q850 313 817 320.5 Q784 328 731 329 Q659 332 627 348 Q600 361 586 403 Q569 450 527 476 Q509 488 491.5 505.5 Q474 523 474 529 Z" /><glyph glyph-name="uni5173" unicode="&#x5173;" d="M622 73 Q598 130 601.5 153 Q605 176 614 176 Q624 176 651.5 148.5 Q679 121 697 95 Q710 77 722.5 45.5 Q735 14 735 2 Q735 -6 752 -39 Q765 -67 766.5 -81 Q768 -95 760 -106 Q752 -117 745 -110 Q738 -103 730 -103 Q695 -103 622 73 ZM287 604 Q287 615 289 617 Q291 619 301 617 Q315 614 334 596 Q348 582 356 580 Q364 578 387 578 Q419 578 450.5 586.5 Q482 595 488 592 Q492 589 488.5 582 Q485 575 479 567.5 Q473 560 466 559 Q455 556 435.5 535.5 Q416 515 411 499 Q401 477 396 477 Q365 474 346 486 Q334 493 327 493 Q320 493 295.5 526 Q271 559 271 568 Q271 577 279 583.5 Q287 590 287 604 ZM647 671 Q649 692 655.5 694 Q662 696 662 703 Q662 710 673 710 Q687 710 735.5 684.5 Q784 659 784 654 Q784 640 771.5 625 Q759 610 749 610 Q716 610 684 551 Q665 514 640 492 L614 468 L658 459 Q738 441 749 426 Q752 420 739 404 Q731 391 725 389 Q719 387 698 389 Q669 391 635.5 397.5 Q602 404 559.5 395 Q517 386 496 377 L475 368 L492 360 Q507 349 510.5 335 Q514 321 521 312 Q525 305 534 305.5 Q543 306 583 312 Q639 323 677 326.5 Q715 330 717 336 Q721 340 735 339.5 Q749 339 759 332 Q771 325 794 321 Q812 318 832 308 Q852 298 852 290 Q852 286 844 276 Q826 255 776 277 Q730 298 617 280 Q555 272 534.5 263 Q514 254 511 235 Q500 169 481.5 103.5 Q463 38 452 26 Q434 7 359 -20 Q311 -36 295.5 -38 Q280 -40 260 -32 Q235 -21 229 -12 Q223 -3 227 9 Q232 23 315 63 Q375 92 388 101 Q401 110 411 129 Q423 154 434 184 Q445 214 444 218 Q443 222 411 211 Q360 191 296 171.5 Q232 152 210 149 Q180 147 176.5 154.5 Q173 162 158 183.5 Q143 205 149 220 Q154 235 160 237 Q166 239 181 232 Q212 217 254 228 Q274 235 333 244 Q434 262 455 277 Q460 283 466.5 320 Q473 357 468 362 Q463 367 427 354 Q379 342 363.5 341 Q348 340 334 353 Q318 369 305 393 Q296 408 295 413.5 Q294 419 298 424 Q308 431 330.5 430.5 Q353 430 424.5 448.5 Q496 467 509 469 Q522 471 538.5 493.5 Q555 516 581 545 Q603 568 624.5 609.5 Q646 651 647 671 Z" /><glyph glyph-name="uni51B3" unicode="&#x51b3;" d="M649 103 L675 98 Q703 94 737 76 Q762 65 768 58 Q774 51 780 31 Q787 1 793 -13 Q796 -22 793 -42 Q790 -62 784 -71 Q783 -75 751 -63 Q719 -51 706 -41 Q689 -28 686 -28 Q677 -28 669 -14 Q661 0 659 18 L652 73 L649 103 ZM287 241 Q359 310 352 285 Q351 282 348 278 Q296 176 236 110 Q211 81 208 66 Q205 51 201 51 Q189 51 168.5 69 Q148 87 148 98 Q148 104 142 104 Q136 104 133 112 Q130 121 140.5 131 Q151 141 162 141 Q174 141 198.5 161 Q223 181 287 241 ZM171 516 Q181 522 190 519 Q230 504 239 510 Q242 512 263 501.5 Q284 491 287 487 Q289 482 291 441 Q293 400 283.5 393.5 Q274 387 274 380 Q274 373 262 366 Q252 360 239.5 337.5 Q227 315 227 303 Q227 294 220 294 Q215 294 199 335 Q183 376 168 425 Q159 456 156 464 Q151 476 156 494 Q161 512 171 516 ZM527 667 Q533 673 589 657 Q615 650 630 647 Q645 644 645 638 Q645 632 653.5 621.5 Q662 611 660.5 581 Q659 551 655 545 Q649 538 644.5 518 Q640 498 643 495 Q647 489 711 498 Q805 512 812 492 Q814 488 805.5 454 Q797 420 787 390 Q783 376 780 357 Q777 344 779 341 Q781 338 793 335 Q811 332 830.5 332 Q850 332 859 328 Q865 326 866.5 313 Q868 300 864 291 Q858 284 831.5 276.5 Q805 269 790 272 Q774 275 767 266 Q761 259 751.5 258 Q742 257 737 263 Q728 279 655 243 L605 218 L602 194 Q597 170 595 120.5 Q593 71 578 38 Q564 7 544.5 -4 Q525 -15 493 -13 Q464 -13 443 -24 Q408 -41 387 -25 Q380 -21 381.5 -18.5 Q383 -16 395 -12 Q412 -6 417.5 3.5 Q423 13 461 44 Q490 68 502.5 87.5 Q515 107 525 147 Q533 175 528.5 180 Q524 185 492 172 Q455 157 441.5 155 Q428 153 421 160 Q412 168 412 173 Q412 178 406 178 Q399 178 389.5 187.5 Q380 197 380 204 Q380 220 404 234 Q428 248 436 237 Q437 234 465 240.5 Q493 247 518 256 Q539 265 539 345 L539 379 L506 376 Q475 372 465.5 380 Q456 388 439 397 Q409 409 407.5 427 Q406 445 433 456 Q452 464 468 456 Q484 448 514 456 Q533 460 537.5 463 Q542 466 540 475 L536 548 Q533 609 528 622 Q524 632 523 647.5 Q522 663 527 667 ZM712 403 Q703 431 696 435.5 Q689 440 662 428 Q646 420 640 410 Q634 400 634 378 Q634 363 628 351 Q622 341 618 325.5 Q614 310 613 300.5 Q612 291 615 290 Q627 290 657 302.5 Q687 315 700 323 Q718 338 721 354 Q724 370 712 403 Z" /><glyph glyph-name="uni5206" unicode="&#x5206;" d="M401 477 Q401 486 404.5 487 Q408 488 418 479 Q429 470 452 461 Q477 451 481 445.5 Q485 440 478 429 Q470 415 380 370 Q358 359 334 338.5 Q310 318 276 300 Q242 282 235 274 Q226 264 207 252.5 Q188 241 180 241 Q170 241 170 258 Q170 275 180.5 285.5 Q191 296 239 328 L306 374 Q330 391 365.5 429 Q401 467 401 477 ZM522 498 Q522 507 526 507 Q530 507 552 496 L590 478 Q615 465 621 430 Q624 418 618.5 410 Q613 402 582 373 Q541 334 534 327 Q498 285 480 248 Q466 223 448.5 201.5 Q431 180 412 139 Q389 86 353 19.5 Q317 -47 312 -50 Q300 -54 277 -15.5 Q254 23 251 54 Q249 73 253 73 Q254 75 258 73 Q292 59 303 57 Q314 55 319 62 Q323 72 339.5 96.5 Q356 121 387 180 Q418 239 433 264 L489 349 Q527 408 537 429 L548 449 L536 467 Q522 486 522 498 ZM622 554 Q622 556 637 556 Q652 556 671 554 Q690 552 704 548 Q760 533 779 533 Q814 533 865 506 Q877 499 897 491 Q908 485 927 466 Q946 447 946 440 Q946 437 935.5 437 Q925 437 922 425 Q919 415 915.5 413 Q912 411 908 416 Q905 421 891 418.5 Q877 416 849 437 Q790 479 751.5 498 Q713 517 664 526 Q622 534 624 538 Q624 541 628 544 Q635 548 628.5 548 Q622 548 622 554 ZM335 639 Q335 649 340 649 Q345 649 367 628 Q389 607 391 597 Q397 582 389.5 565.5 Q382 549 368 548 Q354 545 328 537 Q302 527 170 460 Q64 407 57 414 Q54 415 54 422 Q54 433 101 469 Q148 505 221 545 Q288 584 311.5 604 Q335 624 335 639 Z" /><glyph glyph-name="uni52A1" unicode="&#x52a1;" d="M421 251 Q443 263 443 238 L443 221 L520 224 Q573 225 587 224 Q601 223 612 216 Q628 206 628.5 192 Q629 178 615 147 Q603 118 596.5 94 Q590 70 568.5 35.5 Q547 1 544 -11 Q541 -24 534.5 -24 Q528 -24 521 -11 Q513 8 453 41 Q436 50 442.5 56 Q449 62 464 53 Q495 35 514.5 54.5 Q534 74 547 136 Q555 179 552 188 Q545 206 463 186 L425 178 L398 118 L346 6 L323 -45 L293 -55 Q240 -70 225 -67 Q216 -67 214 -65 Q212 -63 213 -59 Q216 -50 216 -39 Q216 -28 239 -10 L276 17 Q290 28 319 86 Q348 144 348 147 Q348 147 343.5 146.5 Q339 146 331.5 145 Q324 144 316 141 Q285 136 274.5 142 Q264 148 250 153 Q226 158 240 172 Q255 185 285 185 Q304 185 344 193 Q372 200 380 204.5 Q388 209 398 224 Q412 245 421 251 ZM572 661 Q583 666 598.5 665.5 Q614 665 622 658 Q628 654 624.5 637 Q621 620 601 613 Q579 605 535.5 556.5 Q492 508 457 454 Q433 417 428 414 Q415 406 449 389 Q453 388 457 385 Q510 358 650 280 Q731 235 818 223 Q920 209 930 197 Q937 188 935 183 Q933 178 916 169 Q901 162 890.5 161 Q880 160 849 162 Q803 167 799.5 166 Q796 165 757 171 Q719 176 673.5 197 Q628 218 591 245 Q558 272 528 290 Q402 367 394 367 Q388 367 380 353 Q369 336 334 301 Q299 266 293 266 Q286 266 241 224 Q127 120 115 120 Q107 120 103 116 Q101 113 91.5 112 Q82 111 73.5 111.5 Q65 112 65 113 Q65 129 127 172 Q173 204 227.5 253 Q282 302 313 340 Q348 381 348 385 Q348 396 320 396 Q309 396 297 409 Q289 417 288.5 420 Q288 423 293 424 Q302 428 302 437 Q302 455 314 442 Q320 438 342.5 435.5 Q365 433 374 431 Q381 430 390.5 440.5 Q400 451 421 483 Q456 538 471 553 Q488 571 479 573 Q475 573 467 564 L426 529 Q367 476 295 447 Q267 435 254 441.5 Q241 448 241 458 Q241 465 234 472 Q227 479 222 475 Q218 473 214.5 476.5 Q211 480 208.5 486.5 Q206 493 208 500 Q211 512 222 518 Q246 531 328 644 Q342 664 359.5 664 Q377 664 387 647 Q405 619 384 606 Q377 603 354 572.5 Q331 542 334 540 Q335 538 397.5 564.5 Q460 591 496 609 Q526 624 541 638 Q556 652 572 661 Z" /><glyph glyph-name="uni52A9" unicode="&#x52a9;" d="M317 642 Q415 655 441 637 Q450 628 458.5 606 Q467 584 464 570 Q462 557 458.5 514.5 Q455 472 441 423 Q424 364 419 331.5 Q414 299 414 239 L415 164 L434 159 Q453 155 473 158 Q491 161 494.5 155.5 Q498 150 484 138 Q471 126 443 126 Q415 126 412.5 119 Q410 112 388 114.5 Q366 117 299 95.5 Q232 74 207 64 Q165 47 123.5 52 Q82 57 79 81 Q78 98 88.5 104 Q99 110 123 109 Q151 105 172 112 Q186 117 188.5 120.5 Q191 124 191 137 Q191 154 195.5 184 Q200 214 186.5 289.5 Q173 365 166 392.5 Q159 420 159 441 Q159 465 128 518 Q119 536 123 540 Q127 543 160.5 527 Q194 511 205 500 Q214 493 217 473 Q221 449 228.5 444 Q236 439 260 446 Q288 453 298 459 Q308 463 341.5 461 Q375 459 378 453 Q380 448 372 436 Q364 424 360.5 426 Q357 428 327.5 418.5 Q298 409 265.5 406.5 Q233 404 228 399 Q224 395 223 347 Q222 299 226 292 Q231 287 261 304 Q298 323 316 328 Q334 333 357 327 Q382 322 384 324.5 Q386 327 389 455 Q392 592 380 606 Q372 614 343 599 Q322 588 271.5 581.5 Q221 575 205 584 Q194 589 176.5 605 Q159 621 159 626 Q159 628 186.5 625.5 Q214 623 240.5 629 Q267 635 317 642 ZM226 243 Q231 234 233.5 186 Q236 138 240.5 135.5 Q245 133 286 142 Q327 151 351 151 Q375 151 377.5 156 Q380 161 383 205 Q386 249 382 278 L378 308 L365 298 Q352 288 335.5 285.5 Q319 283 286.5 267.5 Q254 252 239 252 Q229 252 227 250.5 Q225 249 226 243 ZM751 651 Q767 668 786 647 Q799 634 799.5 614.5 Q800 595 789 581 Q778 568 778 559 Q778 550 765 532 Q751 509 765 507 Q777 504 819 507 Q898 511 914 491 Q919 484 920.5 452.5 Q922 421 914.5 421 Q907 421 905.5 403 Q904 385 896.5 369.5 Q889 354 889 348.5 Q889 343 879 333 Q872 326 856.5 280 Q841 234 834 197 Q828 166 822 147.5 Q816 129 809.5 95 Q803 61 788.5 32.5 Q774 4 774 -6 Q774 -13 767.5 -15 Q761 -17 754 -13.5 Q747 -10 744 -3 Q739 10 719 19 Q704 26 691.5 43 Q679 60 674 78 Q672 91 679 91 Q686 89 697 81 Q709 71 723 71 Q736 71 742.5 81.5 Q749 92 763 138 L793 234 Q824 327 841 402 Q847 427 847 434.5 Q847 442 841 456 L831 474 L799 472 Q753 467 742.5 463.5 Q732 460 723 446 Q714 428 707 406 Q645 228 617 186 Q603 164 599.5 146.5 Q596 129 586 117 Q576 105 576 99 Q576 89 539 34.5 Q502 -20 478 -44 Q456 -66 456 -58 Q456 -49 484.5 12 Q513 73 530 101 Q547 129 554.5 154 Q562 179 589 239 Q616 299 632 352.5 Q648 406 657.5 427.5 Q667 449 667 451 Q666 453 657.5 452.5 Q649 452 634.5 448.5 Q620 445 607 441 Q588 434 576 437.5 Q564 441 543 462 Q532 472 529.5 477.5 Q527 483 530 493 Q540 521 569 500 Q590 487 639 501 Q665 508 679 508 Q687 508 690.5 513.5 Q694 519 701 543 Q708 568 724 603 Q740 638 751 651 Z" /><glyph glyph-name="uni535A" unicode="&#x535a;" d="M590 99 Q600 121 638 102 Q685 78 684 48 Q682 33 675 27.5 Q668 22 652 23 Q636 25 617 32.5 Q598 40 597 47 Q596 54 590 71 Q584 88 590 99 ZM824 242 Q849 249 888 251.5 Q927 254 946 249 Q957 246 955 233 Q954 223 948.5 221 Q943 219 911 221 Q869 222 845 222.5 Q821 223 810 215 Q803 208 802 197.5 Q801 187 803 146 Q806 89 807 32 Q807 -5 805 -19 Q803 -33 795 -48.5 Q787 -64 782.5 -68 Q778 -72 768 -72 Q752 -71 739 -60.5 Q726 -50 717.5 -50 Q709 -50 695.5 -43 Q682 -36 663.5 -28 Q645 -20 645 -15 Q645 -10 654 -4.5 Q663 1 666 -2 Q670 -6 700.5 -9.5 Q731 -13 738 -12 Q758 -6 761 64 Q762 120 750 177 Q745 195 741.5 198.5 Q738 202 724 202 Q705 202 666 190 Q589 166 538 158 Q447 141 409 124 Q381 111 374 121 Q372 127 353 127 Q330 127 325 138 Q320 149 337 160 Q348 166 444 179 Q726 215 744 239 Q751 246 754.5 246.5 Q758 247 772 240 Q785 235 792.5 235 Q800 235 824 242 ZM782 648 Q796 659 827 650 Q838 646 840.5 643.5 Q843 641 842 632 Q839 618 830.5 616 Q822 614 814.5 610 Q807 606 790 622 Q778 636 776.5 639 Q775 642 782 648 ZM229 653 Q234 669 247 648 Q254 635 272 624 Q285 615 287.5 607.5 Q290 600 293 566 Q297 522 297 464 Q299 422 300.5 414.5 Q302 407 310 407 Q348 414 357.5 413 Q367 412 372 404 Q377 394 372 390 Q351 373 314 373 Q297 373 292.5 367 Q288 361 283.5 265.5 Q279 170 281 92 Q281 13 289 9 Q297 5 295 -3.5 Q293 -12 289.5 -31 Q286 -50 282 -50 Q278 -50 260 -34 L241 -19 L244 34 Q246 89 250 219 Q253 337 246 345 Q239 349 208 334 Q171 316 128.5 311.5 Q86 307 62 320 Q44 331 45.5 341 Q47 351 68 354 Q93 358 230 386 Q241 389 247 403 Q254 419 247 513.5 Q240 608 230 631 Q225 645 229 653 ZM660 660 Q668 669 672.5 669.5 Q677 670 691 662 Q713 650 718 642 Q723 634 722 608 L719 578 L744 582 Q820 592 853 587 Q873 585 877 582.5 Q881 580 881 571 Q881 557 879 554 Q877 551 845 555 Q820 558 775.5 556 Q731 554 724 550 Q719 545 716 527 L713 508 L752 510 Q822 516 842 495 Q850 487 842 467 Q829 431 813 317 Q806 265 796 256 Q786 247 783 247 Q780 247 772.5 266 Q765 285 765 293 Q765 299 767 300.5 Q769 302 775 298 Q789 291 792.5 296.5 Q796 302 796 330 Q796 365 790 366 Q789 366 785 363 Q773 359 744 351 Q717 342 710 330.5 Q703 319 706 282 Q708 254 701.5 248.5 Q695 243 677 258 Q663 270 660 298 Q659 316 656 320 Q653 324 647 324 Q615 320 615 335 Q617 345 636 351 Q650 354 653.5 358 Q657 362 659 372 Q660 389 652 391 Q645 394 619 388.5 Q593 383 584 377 Q579 372 581.5 347.5 Q584 323 593 303 Q605 278 587 275 Q575 274 556 292 Q542 306 537.5 346 Q533 386 524 422 Q516 457 521 468.5 Q526 480 551 480 Q572 480 614 491 L657 502 L656 519 Q653 537 653 538 Q650 540 616.5 530 Q583 520 579 517 Q572 510 545 502 Q526 495 517.5 495 Q509 495 482 503 Q447 515 444 522 Q440 531 453.5 539 Q467 547 492 550 Q526 554 554 559.5 Q582 565 621 571 Q647 575 653 577 Q659 579 657 586 Q654 597 651.5 623 Q649 649 660 660 ZM789 485 Q780 492 776 492 Q772 492 750 484 Q727 477 721 472 Q715 467 716 459 Q717 452 748 452 Q762 450 770 450 Q778 450 781.5 448 Q785 446 784 443 Q783 440 780 433 Q775 424 754 421 Q726 417 710 397 Q703 389 709.5 381 Q716 373 732 381.5 Q748 390 774 390.5 Q800 391 800.5 396 Q801 401 800.5 439 Q800 477 789 485 ZM659 443 Q659 456 654.5 457.5 Q650 459 635 454 Q622 450 604 446 Q589 445 577.5 429.5 Q566 414 575 405 Q580 398 598.5 406 Q617 414 636 421 Q650 425 653.5 428.5 Q657 432 659 443 Z" /><glyph glyph-name="uni53F7" unicode="&#x53f7;" d="M675 449 Q707 452 776 452 Q845 452 857 449 Q870 446 872 434 Q873 427 869.5 424 Q866 421 856 420 Q835 415 735 417 Q609 418 568 402 Q554 398 544 373 Q515 296 518 293 Q520 292 557.5 304.5 Q595 317 620 317 Q638 317 646 312.5 Q654 308 673 292 Q703 267 713 261 Q720 255 718 243.5 Q716 232 698 176 Q692 161 688 115 Q681 57 667.5 -8.5 Q654 -74 647 -80 Q641 -86 600.5 -64.5 Q560 -43 552 -43 Q544 -43 529.5 -32 Q515 -21 497 -17.5 Q479 -14 479 -4 Q479 4 488.5 5.5 Q498 7 547 7 Q613 7 619 12 Q626 20 639.5 122 Q653 224 648 243 Q645 257 626 268 L609 282 L573 267 Q468 227 460.5 227 Q453 227 442 219 Q431 211 423 211 Q415 211 384 195 Q359 182 349.5 183 Q340 184 337 199 Q334 214 328 226 Q321 245 325 249.5 Q329 254 354 251 L387 248 L419 276 Q453 304 470 337.5 Q487 371 484 376 Q479 384 360 342 Q275 311 251 311 Q240 311 212 302 Q193 296 185 296 Q177 296 156 304 Q137 309 132.5 313.5 Q128 318 128 327.5 Q128 337 130 340 Q132 343 143 343 Q190 343 403 396 Q569 437 675 449 ZM603 674 Q628 681 663 679.5 Q698 678 709 668 Q729 649 706 628 Q692 615 682.5 596 Q673 577 664.5 570.5 Q656 564 640.5 540.5 Q625 517 625 509 Q625 489 573 480 Q453 461 416 443 Q396 433 390 433 Q382 433 360 460 Q338 487 334 501 Q325 536 318.5 577 Q312 618 310.5 642.5 Q309 667 313 671 Q334 671 362 634.5 Q390 598 397 562 Q403 531 399.5 513.5 Q396 496 402.5 488.5 Q409 481 423 485.5 Q437 490 500 503 Q540 514 550 517.5 Q560 521 559 527 Q556 537 573 573 Q600 621 588 621 Q585 621 582 621 Q515 599 475 593 Q431 589 422 621 Q419 630 421 632 Q423 634 437 634 Q451 634 509.5 648 Q568 662 603 674 Z" /><glyph glyph-name="uni559C" unicode="&#x559c;" d="M601 224 Q610 225 624 219 Q638 213 643 204.5 Q648 196 643 183 L638 171 L675 175 Q780 185 826 185 Q872 185 895 176 Q913 168 930 162 Q962 150 942 131 Q925 115 862 129 Q806 143 781.5 145 Q757 147 697 145 L617 141 L573 96 L526 50 L574 53 Q622 56 643.5 58.5 Q665 61 672 56 Q680 49 679 31.5 Q678 14 668 3 Q623 -53 630 -66 Q634 -74 624 -87 Q608 -111 535 -108 Q493 -105 437 -123 Q416 -129 390 -127.5 Q364 -126 349 -118 Q330 -109 320.5 -94.5 Q311 -80 301 -51 Q280 17 309 25 Q322 28 328 22 Q330 19 343 17 Q356 15 366.5 16 Q377 17 377 19 Q377 24 361.5 35.5 Q346 47 335.5 69 Q325 91 318.5 93.5 Q312 96 283.5 86.5 Q255 77 241 77 Q227 77 188 67 Q111 47 73 63 Q42 75 52 85 Q56 89 143 106 Q230 123 262 124 Q294 127 300.5 129 Q307 131 307 141 Q309 154 319 159 Q325 164 331 162.5 Q337 161 351 151 Q368 140 377 138.5 Q386 137 417 140 Q459 143 484.5 147.5 Q510 152 526 152 Q538 152 542.5 155.5 Q547 159 554 176 Q577 218 601 224 ZM526 127 Q529 138 465 124 Q434 119 428.5 120.5 Q423 122 403 117 Q391 113 387.5 110.5 Q384 108 385 99 Q388 87 393 84 Q398 81 398 69 Q398 57 403 43 Q407 35 411.5 33.5 Q416 32 430 33 Q469 40 479 46.5 Q489 53 505 85 Q525 124 526 127 ZM592 14 Q580 24 540 12 Q515 5 502 5 Q489 5 439 -7.5 Q389 -20 379 -20 Q374 -20 372.5 -22.5 Q371 -25 374 -38 Q377 -58 377 -81 L377 -105 L396 -104 Q414 -101 442 -91 Q470 -81 510 -73 Q554 -63 564.5 -55.5 Q575 -48 584 -20 Q594 12 592 14 ZM568 379 Q575 383 604.5 383 Q634 383 646.5 370.5 Q659 358 653.5 347.5 Q648 337 641 334 Q633 332 621 320 Q609 308 609 303.5 Q609 299 598.5 286 Q588 273 595 263 Q599 256 597 252 Q595 248 582 235 Q563 218 547 215 Q381 187 374 199 Q371 203 366 199.5 Q361 196 349 204.5 Q337 213 330 213 Q304 213 305 267 Q305 295 310 308.5 Q315 322 329 337 Q339 348 348.5 346 Q358 344 379 326 Q391 318 393.5 309.5 Q396 301 399 270 Q402 227 404.5 224 Q407 221 459 238 Q498 250 505 255 Q512 260 515 273 Q517 291 521 302 Q524 311 521 312 Q518 313 504 312 Q486 311 453.5 314.5 Q421 318 416 322 Q410 327 430 337 Q444 344 465 348 Q550 368 568 379 ZM442 617 Q437 621 439.5 634.5 Q442 648 443 668.5 Q444 689 454.5 707.5 Q465 726 466 726 Q472 726 486 716.5 Q500 707 504 698 Q512 687 529 676 Q559 658 557 610 Q556 592 557.5 588 Q559 584 566 584 Q610 592 630 585 Q647 579 647.5 575 Q648 571 637 561 Q616 542 582 537 Q557 533 550 525.5 Q543 518 540 491 L538 460 L584 463 Q616 465 625 463.5 Q634 462 640 456 Q647 449 645.5 445.5 Q644 442 633 434 Q616 421 571 416 Q468 402 444 393 Q427 388 383.5 388 Q340 388 325 393 Q297 404 325 421 Q347 434 386 437 Q426 439 432 443.5 Q438 448 441 472 Q442 490 441.5 492.5 Q441 495 431 493 Q381 477 336 483 Q311 486 301 498 Q284 523 300 525 Q307 525 309 535 Q312 543 322 546 Q332 549 386 554 Q440 561 444 564 Q448 565 447.5 589.5 Q447 614 442 617 Z" /><glyph glyph-name="uni597D" unicode="&#x597d;" d="M746 590 Q755 591 759 592.5 Q763 594 765.5 594 Q768 594 769 593.5 Q770 593 770 590 Q770 578 684.5 531 Q599 484 570 479 Q558 478 554.5 480 Q551 482 548 493 Q542 510 526.5 515.5 Q511 521 511 534 Q511 549 526 556 Q541 563 560.5 557.5 Q580 552 612.5 563 Q645 574 688.5 579.5 Q732 585 746 590 ZM683 441 Q685 454 668 471 Q651 488 654.5 491 Q658 494 678 489 Q698 484 709 491.5 Q720 499 801.5 579 Q883 659 890 659 Q905 659 927 641.5 Q949 624 949 612 Q949 604 939.5 597 Q930 590 920 590 Q908 590 904.5 584.5 Q901 579 893 579 Q885 579 855.5 553.5 Q826 528 792 507 Q760 487 754 478 Q748 469 758 454 Q777 427 783 353 L788 309 L836 313 Q883 316 888 320.5 Q893 325 905.5 325 Q918 325 928.5 331 Q939 337 954.5 326 Q970 315 983 315 Q996 315 1006.5 300 Q1017 285 1015 271 Q1012 256 999 256 Q987 256 959.5 265 Q932 274 924 280 Q918 284 897 281 Q876 278 863 283 Q851 287 823.5 285 Q796 283 789 275 Q782 269 777 169 Q773 44 767 21 Q763 11 764 -20 Q766 -50 762 -61 Q758 -72 746 -76 Q724 -85 680 -57 Q661 -45 651.5 -45 Q642 -45 633 -38 Q624 -31 599 -22 Q561 -7 579 3 Q582 5 585 5 Q595 9 641.5 7.5 Q688 6 698 12 Q720 24 733 165 Q742 256 726 256 Q720 256 684.5 242 Q649 228 644 222 Q633 215 597 201 Q561 187 544 184 Q521 181 516 174 Q510 168 485.5 167 Q461 166 444 172 Q430 177 417 192.5 Q404 208 407 213 Q411 219 430 216 Q449 213 521 240 Q644 284 692 290 Q721 294 728 306.5 Q735 319 727 359 Q721 396 712.5 413.5 Q704 431 693 430 Q686 428 684.5 431 Q683 434 683 441 ZM272 675 Q289 678 304 671 Q317 665 327 662 Q338 659 343 645 Q348 631 342 622 Q335 612 312 565 Q289 518 289 512 Q289 506 267 448.5 Q245 391 238.5 380 Q232 369 225.5 347 Q219 325 221 322 Q223 319 265 329.5 Q307 340 327 349 Q342 355 344.5 360 Q347 365 347 385 Q347 406 349 411 Q351 416 361 421 Q385 430 400.5 413.5 Q416 397 402 378 Q395 365 391.5 345 Q388 325 378.5 305 Q369 285 369 275 Q369 265 358 249 Q316 177 316 163 Q316 158 357 143 Q422 121 460.5 95 Q499 69 499 47 Q499 28 445 50 Q423 59 404 72 Q370 94 348 103 Q332 111 308.5 113.5 Q285 116 280 113 Q279 111 261 87 Q245 68 225 59 Q205 50 163 47 Q128 44 125.5 49.5 Q123 55 155 69 Q185 83 194 87 L219 103 Q233 113 232.5 118.5 Q232 124 216 127 Q201 130 182 153 Q169 169 165 178.5 Q161 188 160 213 Q157 252 154 257 Q151 262 131 252.5 Q111 243 81 233.5 Q51 224 26 208 Q8 197 3 196.5 Q-2 196 -6 200 Q-12 209 -15 233.5 Q-18 258 -15 262 Q-2 275 25 262 Q33 258 45 260 Q57 262 91 275 Q147 296 155 303 Q163 310 172 359 Q197 477 244 628 Q252 659 257.5 666.5 Q263 674 272 675 ZM311 231 Q335 280 338.5 305.5 Q342 331 334.5 331 Q327 331 324.5 327.5 Q322 324 264 305 Q223 290 214 285 Q205 280 203 266 Q200 250 205 237 Q210 224 210 209 Q210 196 222.5 185 Q235 174 255 169 Q272 166 279 173.5 Q286 181 311 231 Z" /><glyph glyph-name="uni5982" unicode="&#x5982;" d="M854 309 Q966 339 981 314 Q987 305 965 260 Q943 215 935.5 170.5 Q928 126 919 112 L910 99 L891 111 Q859 133 775 118 Q740 112 735 99 Q731 89 724.5 88 Q718 87 696 98 Q674 108 665 120 Q656 132 652 160 Q646 190 629 224 Q612 258 617 272 Q622 286 634 283 Q691 268 854 309 ZM888 224 Q900 270 900 279.5 Q900 289 890 289 Q882 289 851.5 276.5 Q821 264 813 258 Q807 254 755.5 243.5 Q704 233 697.5 229.5 Q691 226 703.5 188.5 Q716 151 721 148 Q724 146 771.5 155.5 Q819 165 831 170.5 Q843 176 863 177 Q874 177 877.5 184.5 Q881 192 888 224 ZM368 627 Q380 631 383.5 632 Q387 633 397.5 618 Q408 603 408.5 598 Q409 593 421.5 566.5 Q434 540 434 533.5 Q434 527 422 480 Q358 246 369 234 Q375 230 412 242 Q449 254 455 261 Q460 270 460 283 Q460 299 468.5 318 Q477 337 485 343 Q496 351 510 354 Q519 356 524.5 353.5 Q530 351 538 334 Q553 312 555 287 Q555 270 552.5 264.5 Q550 259 541 255 Q530 249 520 224 Q510 199 487 120 Q472 73 459 61 Q452 54 452 51.5 Q452 49 462 46 Q477 40 518 36.5 Q559 33 565 28.5 Q571 24 578 24 Q587 27 616.5 16 Q646 5 649 -1 Q650 -7 647 -21 Q643 -33 638.5 -34.5 Q634 -36 609 -35 Q577 -33 547.5 -20 Q518 -7 485.5 0 Q453 7 428 14 Q409 20 404 18.5 Q399 17 388 7 Q374 -8 355.5 -8 Q337 -8 316.5 -13 Q296 -18 259 -12 Q237 -8 229.5 -5 Q222 -2 222 4 Q222 13 248.5 26.5 Q275 40 293 40 Q315 40 333 54 Q334 54 321 79.5 Q308 105 308 130 Q308 148 305.5 152.5 Q303 157 296 157 Q284 157 243 143 Q205 132 159.5 123.5 Q114 115 106.5 119.5 Q99 124 74 128 Q49 132 31 146 Q19 157 18.5 160.5 Q18 164 24 171 Q33 182 65 179 Q105 176 221 201 Q252 208 280 212 L308 215 L309 243 Q312 270 318 341 Q324 412 331 449.5 Q338 487 341 531 Q347 620 368 627 ZM443 179 Q452 205 447 209 Q444 212 407.5 198.5 Q371 185 365 179 Q359 174 363.5 132 Q368 90 375 85 Q383 77 387 77 Q391 77 414 117.5 Q437 158 443 179 Z" /><glyph glyph-name="uni5A31" unicode="&#x5a31;" d="M786 110 Q812 121 833 103 Q847 89 864 82 Q881 75 891 53 Q942 -61 938 -66 Q934 -72 911 -70.5 Q888 -69 872 -61 Q858 -55 850.5 -44.5 Q843 -34 828 -2 L790 76 L774 106 L786 110 ZM737 334 Q836 354 863 341 Q889 330 861 312 Q844 302 816 296 Q786 292 767 283.5 Q748 275 746 277 Q742 278 736 276.5 Q730 275 730 271 Q730 267 739.5 267 Q749 267 767.5 256.5 Q786 246 783 236 Q780 229 782 227.5 Q784 226 795 229 Q815 233 878.5 232.5 Q942 232 959 226 Q980 221 988.5 211.5 Q997 202 990 197 Q982 190 945.5 192 Q909 194 892 201 Q875 208 826 199.5 Q777 191 765 182 Q753 173 739 130 Q730 100 716.5 73 Q703 46 691 31 Q679 16 674 21 Q669 26 659.5 20.5 Q650 15 638 15 Q626 15 606 8 Q581 -1 581 6 Q583 9 590 18 Q601 29 613 45 Q625 61 653 76 Q672 88 677 95 Q682 102 690 127 Q700 162 697 165 Q692 170 604 145 L563 134 L541 146 Q518 158 518 163 Q518 172 529.5 179.5 Q541 187 550 184 Q564 183 636 198 L707 214 L709 233 Q710 254 714 258 Q724 268 713 268 Q709 268 697 265 Q648 257 608 277 Q559 299 597 313 Q611 319 637 320 Q676 323 737 334 ZM703 629 Q851 635 884 621 Q903 614 906 600 Q909 586 899 551 Q886 510 878 493.5 Q870 477 868.5 463.5 Q867 450 858 429 Q844 397 815 412 Q807 417 742.5 410.5 Q678 404 672 398 Q668 393 673.5 383 Q679 373 668 365 Q657 356 650 358.5 Q643 361 626 376 Q612 389 587.5 428.5 Q563 468 563 480 Q563 487 549 506 Q524 541 522.5 548 Q521 555 534 561 Q543 566 551 566 Q559 566 583 558 Q606 551 612.5 547 Q619 543 620 531 Q623 516 623 508 Q622 475 632 454 Q632 453 633 452 Q640 436 657 437 Q674 438 765 459 Q777 461 784 463 L822 471 L835 506 Q846 541 848.5 564 Q851 587 843 590 Q832 594 803 591.5 Q774 589 762 585 Q748 578 707 575 Q679 573 669.5 574.5 Q660 576 647 585 Q613 606 629 621 Q634 627 703 629 ZM269 660 Q277 670 286.5 668.5 Q296 667 324 650 L357 632 L354 613 Q349 585 333 564 Q328 557 321.5 529 Q315 501 308 487.5 Q301 474 301 458.5 Q301 443 296 440 Q289 435 279 410.5 Q269 386 266 361 Q261 331 253 316.5 Q245 302 247 275 Q248 251 257 247.5 Q266 244 305 257 Q332 265 337 268.5 Q342 272 342 284 Q342 299 347.5 330 Q353 361 357 373 Q363 387 377 385.5 Q391 384 408 369 Q427 351 438.5 350 Q450 349 454.5 340 Q459 331 450 324 Q441 319 434 298 Q427 277 427 258 Q427 244 420 234.5 Q413 225 409.5 203 Q406 181 398 179 Q387 174 361.5 128.5 Q336 83 342 78 Q345 76 399 71 Q468 64 480.5 60.5 Q493 57 500 43 Q507 26 506.5 22.5 Q506 19 494 13 Q445 -12 360 22 Q339 29 307 30 Q284 30 275 27.5 Q266 25 254 15 Q238 5 229 3 Q220 1 191 2 Q147 4 136.5 -0.5 Q126 -5 121 -1 Q116 2 128 15.5 Q140 29 160.5 43 Q181 57 195 62 Q221 72 213.5 92.5 Q206 113 206 149 L206 186 L189 183 Q172 180 153 173 Q137 167 88 161.5 Q39 156 32 159 Q27 160 15 182.5 Q3 205 7 218 Q14 230 28 232.5 Q42 235 55 225 Q66 216 82 217 Q98 218 157 226 Q196 232 203 239 Q210 246 210 278 Q210 314 216 333 Q233 384 251 489 Q261 544 263 550 Q268 554 267 596 Q266 638 263 646 Q261 653 269 660 ZM336 222 Q336 230 331 230 Q326 230 294 222 Q234 207 233 180 Q231 167 239 140.5 Q247 114 254 103 Q270 78 297 111 Q308 127 322 165.5 Q336 204 336 222 Z" /><glyph glyph-name="uni5BA2" unicode="&#x5ba2;" d="M536 464 Q560 467 577 462.5 Q594 458 594 451 Q594 437 531 376 Q508 355 475 307 Q442 259 445 257 Q455 248 521 236 Q550 230 571 225 Q592 220 605.5 220 Q619 220 647 210 Q802 153 840 147 Q902 139 930 117 Q939 110 940 106.5 Q941 103 937 93 Q923 68 879 84 L841 100 Q830 105 830 115 Q830 125 824 127 Q818 129 745 145 Q672 161 647.5 169 Q623 177 592 175 Q550 173 515 180 Q480 187 424 208 L405 215 L379 187 Q328 131 333 121 Q344 103 433 124 Q490 138 563 138 Q689 138 693 111 Q694 100 685 76 Q648 -16 661 -72 Q664 -86 661.5 -89.5 Q659 -93 648 -99 Q633 -105 623 -98 Q613 -89 594 -83 Q575 -77 571 -81 Q567 -84 510.5 -88.5 Q454 -93 420 -93 Q399 -93 384 -84 Q371 -75 358.5 -62 Q346 -49 350 -44 Q354 -40 319 37 L301 76 L283 59 Q265 42 249.5 18.5 Q234 -5 228.5 -5 Q223 -5 206 -22 Q193 -33 154.5 -61 Q116 -89 94 -103 Q80 -113 66 -109 Q56 -106 63 -98 Q69 -91 98 -61 Q143 -15 162 -2 Q197 21 258 76 Q279 94 279.5 108 Q280 122 280.5 126.5 Q281 131 291.5 128 Q302 125 321 146 Q340 167 357 194.5 Q374 222 369 226 Q364 230 326 248 Q295 265 287 271.5 Q279 278 274 287 Q272 296 251 307 Q228 318 230 331.5 Q232 345 262 373 Q286 397 295 400.5 Q304 404 312 392 Q335 367 326 352 Q322 345 323.5 343.5 Q325 342 332 345 Q343 348 369 364 Q395 380 442 401 Q489 422 496 416.5 Q503 411 510.5 429 Q518 447 518 454.5 Q518 462 536 464 ZM479 373 Q504 412 479 394 Q477 392 475 391 Q459 378 437.5 364 Q416 350 413 341 Q412 334 390 319 Q368 304 347 294 Q329 287 338 283.5 Q347 280 355 283 Q363 286 385 279 L406 271 L426 292 Q445 313 454 331 Q463 349 479 373 ZM615 -11 Q619 7 619.5 49 Q620 91 612.5 98 Q605 105 602 101.5 Q599 98 565.5 99 Q532 100 518 90 Q508 84 462.5 72.5 Q417 61 395 58 Q384 58 381.5 54.5 Q379 51 378 33 Q378 7 392.5 -10.5 Q407 -28 410 -42 Q413 -56 417 -58.5 Q421 -61 451 -51 Q529 -23 585 -26 Q605 -28 608.5 -25.5 Q612 -23 615 -11 ZM207 495 Q223 503 230 503 Q237 503 241.5 492 Q246 481 246 464 Q246 451 242.5 445 Q239 439 228 430 Q210 416 198 393 Q186 370 173 352.5 Q160 335 160 325 Q158 310 140 328 Q126 343 117.5 353 Q109 363 104 370 Q99 377 98.5 380 Q98 383 101 384 Q106 388 127 422 Q162 476 207 495 ZM406 706 Q416 709 439 707 Q462 705 469 702 Q476 696 493 682 Q504 672 505.5 668 Q507 664 503 650 Q493 608 484 569 Q482 556 486.5 554.5 Q491 553 518 559 Q573 570 637 566 Q701 562 736 545 Q812 510 785 476 Q776 465 749 464 Q706 462 657 447 Q629 439 629 450 Q629 461 651 495 L673 528 L662 538 Q647 553 605 532 Q587 523 570 523 Q553 523 522 510 Q491 497 474.5 497 Q458 497 424 488 Q398 479 378 479 Q358 479 323 488 Q287 499 287 510 Q293 517 385 531 Q407 534 410 539 Q413 544 407.5 585 Q402 626 400.5 664.5 Q399 703 406 706 Z" /><glyph glyph-name="uni5C0F" unicode="&#x5c0f;" d="M681 272 Q681 280 687 282 Q693 284 715 280 Q748 276 771.5 266 Q795 256 810 256 Q825 256 851.5 229.5 Q878 203 889 193 Q900 183 900 170.5 Q900 158 870.5 153 Q841 148 811 156 Q785 162 733 209 Q681 256 681 272 ZM382 288 Q447 327 447 308 Q447 296 394.5 237 Q342 178 330 178 Q323 178 304 158 Q285 138 270.5 125 Q256 112 256 98.5 Q256 85 232 85 Q208 85 199.5 96 Q191 107 182 107 Q173 107 133 144 Q96 178 101 188.5 Q106 199 157 203 Q194 205 259.5 229.5 Q325 254 382 288 ZM482 556 Q474 573 479 581 Q484 589 508.5 571.5 Q533 554 559 546 Q585 538 592 532 Q614 514 610 392 Q606 270 583 172 Q575 142 579 128 Q583 114 575 63 L565 14 L543 18 Q522 24 508 35.5 Q494 47 464 59 Q445 69 419 94.5 Q393 120 399 126 Q403 130 393.5 151 Q384 172 387 175.5 Q390 179 437 162 Q486 142 498 144 Q510 146 518 179 Q531 248 518 371 Q502 501 482 556 Z" /><glyph glyph-name="uni5E8F" unicode="&#x5e8f;" d="M563 227 Q575 233 595.5 227.5 Q616 222 626 212 Q636 202 636.5 195.5 Q637 189 633 161 Q626 125 626 0 Q626 -88 624.5 -107 Q623 -126 615 -131 Q598 -145 591 -146.5 Q584 -148 575 -140 Q564 -130 560.5 -130 Q557 -130 519.5 -112.5 Q482 -95 475.5 -95 Q469 -95 458 -86.5 Q447 -78 447 -74 Q447 -70 504 -70 Q561 -70 564.5 -64 Q568 -58 570.5 -30 Q573 -2 581 28 Q591 68 584.5 131 Q578 194 561 210 L550 223 L563 227 ZM269 469 Q276 479 279.5 479 Q283 479 294 468.5 Q305 458 305 449.5 Q305 441 294 425 Q281 406 273 366.5 Q265 327 246.5 266 Q228 205 223 167 Q211 105 193.5 45.5 Q176 -14 162 -35 Q130 -86 106 -92 Q94 -95 89 -89.5 Q84 -84 84 -65 Q84 -50 112 -16 Q133 10 143 33 Q153 56 162 107 Q181 206 206 276 Q220 317 232 364 Q255 446 269 469 ZM643 482 Q643 506 718 472 Q725 469 732 467 Q750 458 754.5 453 Q759 448 757.5 440 Q756 432 751 428.5 Q746 425 729 420 Q701 413 679.5 398.5 Q658 384 652 384 Q643 384 606 355 Q601 349 601.5 345.5 Q602 342 613 329 L630 313 L668 317 Q717 320 770 320.5 Q823 321 832 318 Q841 314 875 305.5 Q909 297 914 286 Q920 273 912 268.5 Q904 264 881 261 Q855 259 845.5 253.5 Q836 248 826 249 Q816 250 785 244 Q745 236 746 247 Q746 252 756 265 Q770 283 768 288 Q766 293 745 293 Q713 293 650 282.5 Q587 272 570 264 Q550 254 541.5 254 Q533 254 488.5 238.5 Q444 223 412 216 Q386 210 379 211 Q372 212 354 223 Q319 241 321 252.5 Q323 264 361 264 Q379 264 457 279 Q535 294 540 300 Q543 303 525 322 Q482 376 489 383 Q491 385 524 376 Q557 367 563 373 Q570 381 591.5 410 Q613 439 613 440 Q613 454 526 415 Q486 397 434 387 Q424 384 405 412.5 Q386 441 392 453 Q398 464 404 464 Q410 464 431 454 L452 444 L494 454 Q535 465 575 465 Q643 465 643 482 ZM417 741 Q428 747 441 743.5 Q454 740 475 740 Q493 740 505 732 Q517 724 517 713 Q517 705 525 696 Q531 691 533 666.5 Q535 642 531 628 Q526 616 532 614 Q540 608 620 607.5 Q700 607 707 611 Q720 622 774.5 609.5 Q829 597 829 583 Q829 572 803.5 567 Q778 562 769 572 Q763 579 673 579 Q540 580 514 562 Q503 555 500 560 Q494 567 474 563.5 Q454 560 368 535 Q353 531 330 523 Q309 514 256.5 507 Q204 500 193 504 Q179 509 163.5 520 Q148 531 144 541 Q137 553 136 556 Q134 556 141 557.5 Q148 559 159.5 560.5 Q171 562 186 562 Q238 565 328.5 582.5 Q419 600 437.5 603.5 Q456 607 458 609 Q462 616 424 696 L407 733 Q406 734 409 737 Q412 740 417 741 Z" /><glyph glyph-name="uni5EA6" unicode="&#x5ea6;" d="M640 233 Q683 247 721 236 Q736 230 738.5 226.5 Q741 223 739 209 Q735 188 720.5 159.5 Q706 131 706 124 Q706 117 687 93 Q672 72 675 65 Q678 58 715 19 Q742 -9 766 -24 Q790 -39 847 -61 Q906 -85 906 -92 Q906 -95 899 -99 Q889 -106 881.5 -113.5 Q874 -121 844.5 -115.5 Q815 -110 789 -100.5 Q763 -91 739 -84 Q722 -78 693.5 -57.5 Q665 -37 665 -30 Q665 -25 648 2 L630 28 L608 17 Q585 5 565.5 -8.5 Q546 -22 531.5 -24 Q517 -26 494 -33 Q435 -51 438 -42 Q440 -37 462 -28 Q482 -21 534.5 13 Q587 47 596 59 Q603 66 603 69.5 Q603 73 598 83 Q591 93 575 104 Q559 115 550 115 Q545 115 529.5 125.5 Q514 136 514 142 Q514 145 523 145.5 Q532 146 546 144 Q560 142 573 138 Q595 129 613 117 Q630 105 635 106 Q640 107 650 119 Q658 132 669 170 Q680 208 676 212 Q672 216 633 207 Q594 198 580 191 Q568 185 515 168 L461 150 L448 164 Q434 178 435.5 183 Q437 188 459.5 191.5 Q482 195 514 202 L582 217 Q617 226 640 233 ZM381 409 Q399 427 403 425 Q409 422 406 404.5 Q403 387 399 380 Q395 374 372 332 L309 216 Q270 143 243 85 Q216 27 210 20 Q197 5 143 -95 Q126 -127 121 -127 Q116 -127 102 -114 Q91 -105 94 -97 Q97 -89 130 -37 Q164 12 207 117 Q232 180 289 274.5 Q346 369 381 409 ZM661 460 Q673 495 685 501 Q697 507 711 497 Q745 478 738 458 Q735 448 745 442.5 Q755 437 773 437 Q806 437 783 418 Q769 405 742 403 Q715 401 707 388 L685 352 Q672 334 673.5 327.5 Q675 321 690 321 Q722 321 692 297 Q673 283 632.5 277 Q592 271 568 261 Q542 251 530 252.5 Q518 254 503 272 Q484 293 484 314 Q484 329 482 332.5 Q480 336 470 336 Q459 336 448.5 341 Q438 346 438 352 Q438 357 462 367 Q475 374 479 377.5 Q483 381 482 387 Q479 395 476 418 Q473 433 474.5 438 Q476 443 483 444 Q496 448 517.5 431.5 Q539 415 539 401 Q539 395 541 393.5 Q543 392 551 393 Q559 394 570 397.5 Q581 401 602 408 L648 423 L661 460 ZM637 363 Q641 390 633 387 Q631 387 628.5 384 Q626 381 587 370 L547 359 L545 325 Q542 290 544.5 288.5 Q547 287 581 301 Q612 313 623 325.5 Q634 338 637 363 ZM455 721 Q479 731 515 692 Q540 667 550 637.5 Q560 608 553 588 Q549 580 556 570 Q561 563 571.5 562.5 Q582 562 626 563 Q855 570 874 545 Q878 539 874 531 Q868 517 790 532 Q741 544 650 541 Q591 539 573.5 538 Q556 537 549 530 Q539 521 502.5 520.5 Q466 520 431 506 Q270 441 202 460 Q186 462 173 474 Q160 486 164 492 Q167 496 215 499.5 Q263 503 294 510 L420 538 Q461 548 472 548 Q483 548 485 552 Q487 556 476 601 Q465 646 464 664 Q463 682 456 692 Q449 702 449 710.5 Q449 719 455 721 Z" /><glyph glyph-name="uni5F0F" unicode="&#x5f0f;" d="M322 279 Q366 299 381.5 302.5 Q397 306 411 304 Q425 302 419 295.5 Q413 289 416 284 Q419 279 406.5 268 Q394 257 371 242 L346 225 L345 188 Q345 151 342 132.5 Q339 114 343 107 Q346 102 360 106 Q374 110 423 130 Q457 142 460 142 Q478 142 440 117 Q345 55 336 44 Q329 34 325 37 Q321 40 293 23 Q259 2 220 -16 Q181 -34 174 -33 Q167 -30 167 -20 Q167 -10 154 1 Q132 22 149 36 Q159 43 198 34 Q210 30 252 53 L296 74 L297 114 Q299 155 292 174 L286 195 L254 193 Q227 191 200 199 Q173 207 164 219 Q157 230 162 233.5 Q167 237 191 240 Q254 247 322 279 ZM675 655 Q682 660 711.5 658.5 Q741 657 758 652 Q772 646 772 632 Q772 618 759 606 Q749 596 738.5 597.5 Q728 599 695 615 Q653 636 675 655 ZM370 733 Q377 734 410.5 721 Q444 708 455 698 Q469 684 474 666 Q502 566 507 503 Q510 470 516.5 470 Q523 470 553.5 479.5 Q584 489 619 487 Q644 482 648.5 480 Q653 478 651 467 Q650 447 640 442.5 Q630 438 602 443 Q569 449 556.5 444 Q544 439 532 439 Q510 439 521 417 Q525 407 535 377 Q560 292 572 278 Q579 271 587 248 Q595 225 605 207.5 Q615 190 629.5 160 Q644 130 668 107.5 Q692 85 700.5 71.5 Q709 58 741 31.5 Q773 5 789 -12 Q801 -29 820.5 -41.5 Q840 -54 852 -54 Q861 -54 866 -73 Q871 -92 881.5 -99 Q892 -106 889 -117 Q885 -128 879 -131.5 Q873 -135 859 -132 Q825 -125 810.5 -115.5 Q796 -106 768 -69 Q731 -22 723.5 -5 Q716 12 695 36 Q616 127 601 158 Q587 184 557.5 234.5 Q528 285 519 308 Q510 331 490 376 Q488 379 486 386 Q472 414 462.5 416 Q453 418 408 400 Q399 396 394 394 Q341 373 322.5 369 Q304 365 299 362 Q282 351 230 353 Q178 355 154 368 Q139 375 125 388 Q111 401 111 407.5 Q111 414 134 414 Q157 414 189 408 Q222 403 299 417 Q447 443 451 449 Q454 453 444 477.5 Q434 502 425 532 Q416 562 390 638 Q370 697 366 713.5 Q362 730 370 733 Z" /><glyph glyph-name="uni5F52" unicode="&#x5f52;" d="M177 416 Q183 422 185 421.5 Q187 421 196 410 Q212 390 212 281 Q211 243 209.5 233.5 Q208 224 199 221 Q187 215 187 210 Q187 205 180 194 Q174 187 169 189 Q164 191 142 213 L111 244 L118 309 Q126 374 120 390 Q114 404 120 408.5 Q126 413 148 410 Q170 407 177 416 ZM502 465 L520 453 Q536 441 553 440.5 Q570 440 627 449 Q670 454 738 451.5 Q806 449 839 440 Q856 435 874.5 417 Q893 399 886.5 391.5 Q880 384 862 349 Q830 285 811 119 Q806 82 802.5 71 Q799 60 790 52 L775 37 L762 62 Q749 85 752 92.5 Q755 100 746 113 Q740 122 735 123.5 Q730 125 715 122 Q693 118 631 94 Q506 46 505 65 Q505 68 506 72 Q509 80 502 86.5 Q495 93 495 105.5 Q495 118 502 121 Q511 124 523.5 117 Q536 110 559 119 L630 144 Q677 160 727 166 L777 174 L786 218 Q795 263 793 266 Q790 271 694 246.5 Q598 222 555 207 Q528 197 515 200 Q506 202 503.5 206 Q501 210 501 221 Q501 240 497 245 Q493 250 497 254.5 Q501 259 509 261 Q517 263 526 262 Q539 260 606.5 276.5 Q674 293 692 303 Q700 307 708.5 307 Q717 307 717 312.5 Q717 318 722.5 319.5 Q728 321 738 318.5 Q748 316 759 312 Q784 302 792 304 Q800 307 806 339.5 Q812 372 808 388 L803 406 L750 404 Q699 403 661 391 Q606 372 576 363 Q546 354 527 351.5 Q508 349 503 353 Q498 357 496 369 Q496 388 494.5 392.5 Q493 397 484 397 Q473 397 467.5 406.5 Q462 416 467.5 429.5 Q473 443 486 453 L502 465 ZM273 591 Q273 600 275 602 Q277 604 287 601 Q302 598 335 592.5 Q368 587 376 574.5 Q384 562 384 521 Q383 479 375.5 452.5 Q368 426 362 386.5 Q356 347 352 320.5 Q348 294 337 217.5 Q326 141 320.5 117.5 Q315 94 320 75 Q323 63 321.5 58 Q320 53 309 43 Q295 28 287 28 Q279 28 243 10 Q182 -16 162 2 Q157 9 157 11 Q157 13 162 21 Q171 31 171 39 Q171 47 205 71 Q255 103 269 117.5 Q283 132 287 156 Q302 221 307 327.5 Q312 434 305 503 Q299 546 286 562 Q273 578 273 591 Z" /><glyph glyph-name="uni5F55" unicode="&#x5f55;" d="M687 67 Q659 88 659 103.5 Q659 119 654.5 130.5 Q650 142 661 142 Q672 142 702 129 Q758 107 765 102 Q772 97 769 80 Q759 13 687 67 ZM456 182 Q503 214 503 204 Q503 202 464 160 Q433 129 397 84 Q361 39 361 32 Q361 27 338 6 Q315 -15 306 -18 Q299 -21 283.5 -13.5 Q268 -6 261 2 Q255 10 256.5 24.5 Q258 39 269 41 Q292 44 374 117 Q422 160 456 182 ZM297 230 Q297 245 303 246.5 Q309 248 336 238 Q369 226 383 193.5 Q397 161 380 141 Q369 130 365 129.5 Q361 129 347 136 Q328 145 312.5 179 Q297 213 297 230 ZM677 267 Q715 307 718.5 307 Q722 307 747 298 Q790 283 788 266 Q788 258 778 254 Q768 248 766.5 236 Q765 224 754.5 225 Q744 226 724.5 213.5 Q705 201 697 201 Q688 199 663 179.5 Q638 160 637 152 Q633 133 622 151 Q619 155 618 163 Q608 199 677 267 ZM392 642 Q397 648 575 639 Q652 636 674 631.5 Q696 627 718 610 Q725 604 725 600 Q725 596 715 580 Q688 532 667.5 483.5 Q647 435 652 430 Q655 429 726 435 Q797 441 812 433 Q830 424 829 417.5 Q828 411 812 402 Q797 393 787.5 392 Q778 391 749 393 Q638 405 584 379 L561 368 L565 343 Q574 292 568 47 L565 -31 L552 -37 Q537 -42 528 -45.5 Q519 -49 519 -41 Q519 -33 496 -20 Q449 8 459 22 Q462 26 471.5 26 Q481 26 484 30.5 Q487 35 503 38 L518 41 L522 120 Q528 266 508 332 Q503 346 500 350 Q497 354 490 352 Q480 349 430 338 Q380 327 361 320 Q330 308 272 295 Q249 291 220 301 Q183 316 172 346 Q171 354 174.5 357 Q178 360 197 361 Q225 366 289 376 Q353 386 418.5 391 Q484 396 530 405 Q562 413 569.5 416.5 Q577 420 584 433 Q591 452 595.5 472.5 Q600 493 602 501 Q603 505 601 508 Q599 511 595 509 Q591 507 588 502 Q583 492 555 490 Q524 488 469.5 476 Q415 464 392 454 Q364 443 347.5 444 Q331 445 314 457 Q299 466 292.5 477 Q286 488 290 493 Q293 496 318 496 Q343 496 437 515.5 Q531 535 569 535 L609 535 L619 570 Q630 604 625 610 Q616 618 544 605 Q493 596 474 596 Q455 596 422 589 Q342 567 284 593 Q255 607 255 618 Q255 629 264.5 631 Q274 633 328 636 Q389 639 392 642 Z" /><glyph glyph-name="uni5FAE" unicode="&#x5fae;" d="M442 235 Q469 239 475.5 237 Q482 235 486 225 Q490 215 481.5 166 Q473 117 462 78 Q454 53 459 47 Q463 42 478 56 Q493 70 514.5 99 Q536 128 560 168 Q567 179 570 176 Q581 169 543 78 Q531 50 528 39.5 Q525 29 498 2 L470 -26 L442 -12 Q414 2 412 6.5 Q410 11 418.5 89.5 Q427 168 423.5 172 Q420 176 406 162 Q386 144 375 60 Q371 30 360 2 Q337 -56 309 -28 Q293 -12 309 8 Q330 36 336 116 Q337 145 340 154 L349 175 Q354 187 369 190.5 Q384 194 405 213.5 Q426 233 442 235 ZM210 256 Q217 271 223.5 273 Q230 275 242 266 Q252 259 252.5 254 Q253 249 248 226 Q239 196 237 85 Q235 7 236 -12 Q237 -31 244 -42 Q249 -51 252 -65.5 Q255 -80 253.5 -92 Q252 -104 248 -104 Q239 -104 223 -90 Q207 -76 200 -63 Q193 -48 191 -11 Q189 26 195 44 Q199 60 200.5 148 Q202 236 210 256 ZM704 277 Q710 289 713.5 291.5 Q717 294 725 292 Q739 288 741 285 Q743 282 739 274 Q734 266 730.5 243.5 Q727 221 717 190 Q707 159 710.5 151.5 Q714 144 742.5 114 Q771 84 774 74 Q777 64 818 29 Q843 7 857.5 -2.5 Q872 -12 899 -20 Q941 -34 958.5 -37.5 Q976 -41 977 -52 Q979 -59 976 -61 Q973 -63 963 -66 Q934 -70 915 -68 Q896 -66 843 -52 Q804 -42 783.5 -21 Q763 0 750 22 Q703 113 694 113 Q687 113 682.5 98.5 Q678 84 641.5 63.5 Q605 43 603 43 Q602 43 606 52 Q610 61 619.5 74.5 Q629 88 636 98 Q662 128 665 143.5 Q668 159 650 169 Q638 175 617 192.5 Q596 210 596 213.5 Q596 217 609 224 Q620 228 629 224.5 Q638 221 652 204 Q666 189 673 189 Q679 189 688 212.5 Q697 236 697 250 Q697 260 704 277 ZM480 338 Q480 343 509.5 343.5 Q539 344 547 336 Q554 329 553.5 326 Q553 323 543 315 Q529 305 511 301.5 Q493 298 469 285.5 Q445 273 442.5 275.5 Q440 278 416 266 Q392 254 388.5 254 Q385 254 365 242 Q351 232 345.5 231.5 Q340 231 328 236 Q312 243 297 249 Q291 250 287.5 253.5 Q284 257 286 260 Q287 264 300.5 269 Q314 274 377 295 Q480 327 480 338 ZM276 450 L287 439 Q298 428 293 419 Q288 410 284 410 Q280 410 262 382.5 Q244 355 221.5 327 Q199 299 199 294 Q199 289 159 250 Q119 211 116 196 Q112 182 93 162 Q74 142 56 135 Q21 121 22 142 Q22 166 64 197 Q92 218 118 257 Q144 296 177 334 Q210 372 227 398 Q244 424 259 438 L276 450 ZM262 613 Q286 618 297.5 612.5 Q309 607 318 585 Q323 572 318 565 Q311 557 295 546.5 Q279 536 272 536 Q263 536 216 515.5 Q169 495 161 495 Q155 495 154 502 Q153 509 155.5 520.5 Q158 532 165 541 Q175 555 211.5 582.5 Q248 610 262 613 ZM661 536 Q666 562 679.5 605.5 Q693 649 698 655.5 Q703 662 716 664 Q729 666 732.5 666.5 Q736 667 749 662.5 Q762 658 765.5 641.5 Q769 625 759 614 Q743 597 713 541 Q707 530 697 502 Q682 456 655 386 Q636 336 637 331 Q638 326 674 342 Q710 358 734.5 366.5 Q759 375 780 386 Q830 413 840 415.5 Q850 418 865 414 Q895 404 878 387 Q868 378 846 372 Q812 365 694 312 Q669 301 632 277.5 Q595 254 584 260 L567 268 Q557 273 557 278.5 Q557 284 566 285 Q575 288 580 300 Q585 312 603 355 Q645 459 661 536 ZM452 695 Q462 708 485 699.5 Q508 691 518 672 Q526 656 521.5 634.5 Q517 613 493 565 Q484 550 477 519 Q470 488 470 471 Q470 456 491 474 Q496 477 498 481 Q512 497 534 511.5 Q556 526 557.5 540 Q559 554 573 555.5 Q587 557 587 562 Q587 567 604.5 567 Q622 567 627.5 553.5 Q633 540 627 532 Q617 518 599 470 Q591 446 563.5 415.5 Q536 385 536 381.5 Q536 378 523.5 371.5 Q511 365 507 373 Q496 396 522 445 Q543 484 535 485 Q525 485 503.5 455 Q482 425 465 390 Q462 382 455 382 Q448 382 427 369 Q354 322 342 351 Q337 362 326.5 363.5 Q316 365 310 370.5 Q304 376 304.5 387.5 Q305 399 311.5 404.5 Q318 410 326 450 Q335 487 344 500 Q353 513 365 508 Q378 501 383.5 481.5 Q389 462 385 436 Q381 410 383 408 Q385 406 405 415 L426 425 L426 462 Q426 498 425 553.5 Q424 609 432.5 637 Q441 665 444 677.5 Q447 690 452 695 Z" /><glyph glyph-name="uni6001" unicode="&#x6001;" d="M609 -9 Q609 25 657 -20 Q683 -45 689 -45 Q695 -45 707 -55.5 Q719 -66 754 -73 Q785 -79 795 -85 Q805 -91 802 -102 Q800 -116 773 -124.5 Q746 -133 709 -133 Q668 -134 635 -139 Q536 -156 473 -130 Q448 -120 432 -108 Q416 -96 382 -62 L330 -9 L348 -6 Q376 -5 394.5 -12.5 Q413 -20 442 -48 Q482 -83 502 -90 Q521 -96 584.5 -99 Q648 -102 657 -99 Q660 -97 660.5 -95 Q661 -93 659 -88 Q657 -83 651.5 -77 Q646 -71 638 -59 Q609 -23 609 -9 ZM160 3 Q169 6 174.5 7.5 Q180 9 183 10 Q186 11 187 9.5 Q188 8 188 6 Q188 1 201 -5 Q229 -17 189 -56 Q164 -80 152 -107 Q141 -125 129 -136 Q117 -147 110 -142 Q106 -139 102 -121.5 Q98 -104 91 -95.5 Q84 -87 81 -70 Q78 -59 82.5 -52 Q87 -45 109 -29 Q140 -5 160 3 ZM621 74 Q631 77 642.5 76.5 Q654 76 657 72 Q660 66 617 25 Q590 -3 578.5 -11 Q567 -19 555 -19 Q536 -19 524 -5 Q512 9 499.5 16 Q487 23 487 34 Q487 42 491.5 43.5 Q496 45 515 42 Q543 38 577.5 54.5 Q612 71 621 74 ZM774 71 Q791 72 801 83 Q811 94 825 88.5 Q839 83 864 80 Q921 77 921 49 Q921 35 907 30 Q893 25 856 25 Q824 25 790 42 Q737 68 774 71 ZM421 204 Q421 213 455 210 Q513 204 536 162 Q546 147 546.5 140.5 Q547 134 541 123 Q524 89 490 109 Q478 117 450 155.5 Q422 194 421 204 ZM470 327 Q470 332 493 332 Q529 333 637.5 272 Q746 211 756 185 Q760 176 743 160 L728 143 L694 157 Q658 171 649 179 Q640 187 625.5 194 Q611 201 605.5 214 Q600 227 564 250 Q535 270 502.5 296 Q470 322 470 327 ZM387 727 Q385 735 394.5 735 Q404 735 407 738.5 Q410 742 427 742 Q444 742 465 721 Q481 707 484 698.5 Q487 690 487 670 Q487 614 459 522 Q452 498 448.5 485 Q445 472 443.5 463.5 Q442 455 444.5 452 Q447 449 452 449 Q479 449 609 489 Q666 506 685 491 Q692 485 691.5 482.5 Q691 480 680 471 Q663 457 587 444 Q452 423 436 397 Q431 387 418 339.5 Q405 292 396.5 271 Q388 250 388 228.5 Q388 207 373 184 Q359 165 321 138 Q283 111 269 111 Q257 111 249 103 Q245 99 220 97.5 Q195 96 191 100 Q188 103 192 125 Q195 139 201.5 146 Q208 153 231 167 Q265 187 279 199 Q293 213 312 252.5 Q331 292 337 319.5 Q343 347 347 356 Q350 366 336 366 Q323 366 302 355 Q268 339 253.5 336 Q239 333 229 341 Q215 349 186 360.5 Q157 372 147 381 Q141 387 141 389.5 Q141 392 151 400 Q163 409 217 412 Q260 415 307 423.5 Q354 432 364 440 Q371 444 371 460.5 Q371 477 379 517 Q385 545 388 627.5 Q391 710 387 727 Z" /><glyph glyph-name="uni60EF" unicode="&#x60ef;" d="M716 7 Q716 11 726.5 11 Q737 11 753 7.5 Q769 4 786 -3 Q824 -17 837.5 -20 Q851 -23 862 -38 Q874 -56 868.5 -63 Q863 -70 834 -73 Q813 -76 806 -74 Q799 -72 782 -56 Q716 0 716 7 ZM691 240 Q691 252 694 252 Q695 252 698 250 Q704 246 712 247.5 Q720 249 729 238 Q734 228 732 216 Q730 204 712 151 Q671 25 687 35 Q688 36 689 34.5 Q690 33 688 29 Q684 21 682 27 Q680 33 669.5 23.5 Q659 14 640.5 11 Q622 8 599 -10 Q579 -24 554 -31 Q529 -38 522 -33 Q510 -24 514.5 -12 Q519 0 536 11 Q564 26 594 58.5 Q624 91 636 116 Q652 145 666 166 Q691 203 691 240 ZM543 305 Q569 310 573 303 Q578 296 578.5 201 Q579 106 582.5 88 Q586 70 579 63 Q561 49 530 96 Q520 113 518.5 118.5 Q517 124 523 134 Q530 147 530.5 217 Q531 287 530 294 Q529 298 532.5 300.5 Q536 303 543 305 ZM198 652 Q218 656 268 621 Q299 600 289 541 Q284 509 285 507 Q286 505 310 503.5 Q334 502 337 509 Q338 513 342.5 514.5 Q347 516 350.5 515.5 Q354 515 354 511 Q354 505 364.5 505 Q375 505 375 501 Q375 497 389 494 Q403 491 414 480.5 Q425 470 424 462 Q422 456 411.5 454.5 Q401 453 363 453 Q306 452 290.5 446.5 Q275 441 268 415 Q247 351 238 203.5 Q229 56 243 32 Q246 28 261 53 Q267 61 272 72 Q293 113 298 113 Q299 113 302 106 Q305 92 296.5 67 Q288 42 285 -9 Q282 -52 276.5 -64 Q271 -76 256 -69 Q243 -63 243 -57 Q243 -51 220 -33.5 Q197 -16 201 -9 Q207 5 198 84 Q191 137 199.5 237 Q208 337 212 355 Q215 364 218 394.5 Q221 425 222 448 Q223 471 222 476 Q219 476 204 470 Q193 466 181 451 Q169 436 128 378 Q113 354 110 335.5 Q107 317 116 291 Q123 266 119.5 256 Q116 246 97 245 Q82 243 77 253 Q72 263 61 265 Q50 267 44.5 278 Q39 289 25 303 Q-2 331 34 347 Q51 354 103 405 Q155 456 188 472 Q221 488 225 492 Q229 499 227.5 531.5 Q226 564 221 583 Q214 607 201 624 Q188 639 188 645 Q188 651 198 652 ZM702 673 Q723 677 760 666 Q775 662 796 656 Q824 649 834 622 Q844 595 827 568 Q817 553 820.5 546.5 Q824 540 842 543 Q862 546 867 540 Q872 534 907 533 Q942 532 956 525 Q970 518 979.5 507.5 Q989 497 986.5 492 Q984 487 950 488.5 Q916 490 910.5 495.5 Q905 501 894.5 501 Q884 501 880 504 Q876 508 857 514 Q838 520 828 520 Q818 520 814.5 514.5 Q811 509 807 487 Q795 418 785 386 Q781 375 771 375 Q750 375 789 352 L814 337 L816 284 Q817 231 812 182 Q807 133 814 99 Q828 42 818 36 Q814 33 801 47 Q788 61 780 76.5 Q772 92 778 121 Q782 147 779 210.5 Q776 274 769 301 Q764 326 748 333 Q716 345 683 331 Q628 309 600 323 Q565 340 593 340 Q620 340 629 352 Q635 358 625 359 Q624 359 622 359 Q613 361 603 368 Q593 375 573 375 Q561 375 554 378.5 Q547 382 536 396 Q505 428 524 453 Q545 480 526 480 Q524 480 522 478 Q509 477 484.5 496 Q460 515 463 517.5 Q466 520 510 520 Q544 520 550.5 522.5 Q557 525 561 534 Q566 548 567 601.5 Q568 655 572 656 Q590 662 621 632 Q645 609 641.5 604 Q638 599 631.5 576.5 Q625 554 615 534 L606 516 L618 516 Q636 516 646 524 Q656 532 664 554 Q677 583 677 610 L677 637 L697 637 Q715 637 726 628 Q737 621 735 607 Q733 593 718 562 Q705 536 708 533 Q711 530 740 534 L769 539 L771 576 Q772 609 766.5 617 Q761 625 726 644 Q676 669 702 673 ZM765 492 Q768 505 766.5 508 Q765 511 757 511 Q743 511 717.5 503 Q692 495 688 490 Q681 483 674 450 Q667 417 671.5 412.5 Q676 408 688 414 Q695 418 701.5 416.5 Q708 415 723 406 Q760 380 760 393 Q758 396 757 399 Q753 407 744 427 Q739 442 739.5 446 Q740 450 750 460 Q762 474 765 492 ZM628 464 Q631 471 629 473.5 Q627 476 617 474 Q596 474 588 469 Q580 464 573 448 Q565 425 567 422.5 Q569 420 587 417 Q600 415 603.5 417.5 Q607 420 614 434 Q624 453 628 464 Z" /><glyph glyph-name="uni6280" unicode="&#x6280;" d="M230 690 Q233 697 243.5 696.5 Q254 696 264 687 Q271 680 288 673 Q302 668 321.5 647 Q341 626 345 612 Q348 601 344.5 563 Q341 525 343 514 Q345 503 338.5 500 Q332 497 331 479 Q330 461 327 449 Q325 442 328 441 Q331 440 345 440 Q370 438 369 433 Q369 430 363 427 Q355 421 346.5 413 Q338 405 323 399 Q310 395 308 390 Q306 385 304 357 Q303 319 299 314 Q295 309 295 285.5 Q295 262 297 259 Q302 256 346.5 276.5 Q391 297 394 294 Q397 290 384.5 275 Q372 260 353 246 Q299 206 291 197.5 Q283 189 283 167 Q283 137 278.5 117 Q274 97 273 52 Q272 7 267 -14.5 Q262 -36 268 -64 Q272 -92 269.5 -102 Q267 -112 254 -112 Q240 -112 218 -80 Q188 -38 198 -38 Q201 -38 208 -39 L222 -42 L225 22 Q229 87 233 122 Q237 164 232 168 Q227 172 195 151 Q160 129 143 119 L108 99 Q93 91 81 92.5 Q69 94 47 108 Q16 129 41 134 Q52 136 52 141 Q52 146 61 143 Q68 141 96.5 154.5 Q125 168 150 185 Q170 199 206 217 L243 235 L247 297 Q253 358 251.5 359.5 Q250 361 227 349 Q190 328 135 322 Q110 321 89 335 Q68 349 69.5 353.5 Q71 358 110 364.5 Q149 371 199 391 L251 409 L255 441 Q260 473 255 566 Q253 630 250 646 Q247 662 239 671 Q227 683 230 690 ZM598 701 Q603 713 621 709.5 Q639 706 659 690 Q680 673 688 661.5 Q696 650 702 624 Q712 580 687 507 Q671 466 671 447 L671 428 L736 431 Q800 433 822 440 Q839 445 845.5 445 Q852 445 870 437 Q894 426 895 421 Q897 420 892.5 416.5 Q888 413 880 409 Q862 400 785.5 403 Q709 406 687 398 Q668 389 664 381.5 Q660 374 653 332 Q649 308 654.5 304 Q660 300 689 307 Q747 318 773 297 L785 287 L766 251 Q748 213 740.5 187.5 Q733 162 715 134 L698 105 L738 69 L818 -4 Q843 -27 856.5 -35 Q870 -43 894 -52 Q969 -74 969 -87 Q969 -91 948 -99 Q934 -105 923 -104.5 Q912 -104 874 -97 Q818 -87 806 -81 Q790 -76 772 -61 Q754 -46 744 -31 L715 11 Q696 36 696 42 Q696 48 685 59 L673 70 L642 39 Q614 14 567 -11 Q520 -36 484 -45 Q456 -50 415 -47.5 Q374 -45 374 -38 Q374 -29 457 1 Q548 34 573 52 Q589 63 610 73 Q635 87 637 94 Q639 101 621 118 Q598 136 582 143 Q530 165 523 181 Q519 189 520 191 Q521 193 531 196 Q555 200 573 185 Q583 176 604 170.5 Q625 165 649 147 Q673 129 680 134 Q688 141 700 170.5 Q712 200 715 220 Q716 244 719.5 265 Q723 286 717 286 Q712 286 639 258 Q566 230 544 218 Q519 206 497 206 Q475 206 475 218 Q475 225 467.5 229.5 Q460 234 463 245 Q465 253 470 254.5 Q475 256 496 255 Q527 252 560.5 264 Q594 276 600 283 Q605 288 608 323 Q611 358 607 365 Q604 370 567 360.5 Q530 351 513 343 Q499 335 467.5 336 Q436 337 416 347 Q370 371 418 381 Q432 382 451 384 Q510 386 593 407 Q608 412 612.5 426 Q617 440 619 503 Q624 571 621.5 597.5 Q619 624 608 655 Q596 694 598 701 Z" /><glyph glyph-name="uni6298" unicode="&#x6298;" d="M912 493 Q915 492 927 496.5 Q939 501 946 498.5 Q953 496 979 496 Q1009 496 1018.5 484 Q1028 472 1012 455 Q1003 447 994 446 Q985 445 947 448 Q855 455 806 444 Q730 427 730 422 Q730 419 747 408 L762 398 L762 332 Q762 258 750 184 Q746 153 743 18.5 Q740 -116 744 -141 Q750 -179 739 -179 Q733 -179 719 -161.5 Q705 -144 701 -132 Q697 -120 701 -9.5 Q705 101 702 126 Q695 181 685 315 Q678 394 673.5 399.5 Q669 405 648 398 Q585 375 526 373 L501 371 L498 339 Q495 307 494 266 Q494 238 491 227 Q488 216 477 199 Q460 172 438.5 163 Q417 154 412 154 Q407 156 408.5 168.5 Q410 181 417 202 Q424 223 432 241 Q445 265 447.5 277.5 Q450 290 450 329 Q450 415 422 443 Q408 457 408 461 Q408 466 420.5 471 Q433 476 450 476 Q473 478 485.5 466 Q498 454 502 438.5 Q506 423 522 422 Q536 420 596 432 Q656 444 667 450 Q677 454 697.5 457.5 Q718 461 774 471 Q908 496 912 493 ZM685 637 Q712 657 727.5 655.5 Q743 654 767 629 Q790 604 790 600.5 Q790 597 775 581 Q751 559 683 546 Q662 543 636 532 Q614 524 565 519 Q516 514 512 521 Q508 527 477.5 530.5 Q447 534 447 542 Q447 550 457.5 553.5 Q468 557 474.5 563 Q481 569 498 576 Q515 583 561 594.5 Q607 606 614 606 Q645 606 685 637 ZM222 773 Q222 787 275 758 Q312 737 320 723.5 Q328 710 326 674 Q323 633 312 604 Q307 588 305 581 Q303 574 303 569 Q303 564 304.5 563 Q306 562 312 563 Q323 563 337.5 559 Q352 555 352 549 Q352 536 320 525 Q309 521 304 516 Q299 511 295 499 Q291 486 288 469 Q285 452 284.5 442.5 Q284 433 286 431 Q291 431 319.5 444 Q348 457 354 455 Q358 454 330 430 Q324 427 319 423 Q292 402 285 393.5 Q278 385 275 370 Q272 353 271 257 Q270 161 271 126 Q274 100 263 81 Q253 67 242.5 63.5 Q232 60 229 72 Q225 79 209.5 87 Q194 95 185.5 103 Q177 111 158 126 Q114 158 113 185 Q113 198 118.5 198.5 Q124 199 148 188.5 Q172 178 190 179 L208 181 L215 224 Q221 268 221 308 L222 350 L197 335 Q173 319 169.5 319 Q166 319 139 300 Q120 286 88.5 270.5 Q57 255 46.5 255 Q36 255 13 272.5 Q-10 290 -16 301 Q-20 311 -19.5 315 Q-19 319 -10 326 Q-1 338 11 331 Q20 325 31.5 325.5 Q43 326 71 338 Q103 350 138 360 Q166 367 194 381 Q222 395 223 402 Q226 410 227.5 432 Q229 454 229 473 Q229 492 228 492 Q222 492 175 469.5 Q128 447 96 445 Q39 443 -5 475 Q-37 499 13 504 Q30 506 55 506 Q97 507 166 524 L235 541 L237 560 Q240 580 243 653 Q243 703 241.5 717.5 Q240 732 233 746 Q222 767 222 773 Z" /><glyph glyph-name="uni63A5" unicode="&#x63a5;" d="M668 309 Q679 319 685 319 Q691 319 702 308 Q713 297 715 278.5 Q717 260 707 256 Q700 253 689 230.5 Q678 208 658 185 Q628 150 654 158 Q657 159 661 161 Q679 168 693 168 Q714 168 714 194 Q714 204 726 207 Q738 210 753 204.5 Q768 199 779 189 Q794 171 839 186 Q866 196 900 197.5 Q934 199 955 192 Q976 185 981 178.5 Q986 172 979 161 Q972 152 933 153 Q894 154 888 161 Q881 171 837 168 Q793 165 776 154 Q770 151 752 100.5 Q734 50 716.5 25 Q699 0 699 -5.5 Q699 -11 716 -17.5 Q733 -24 756.5 -34 Q780 -44 786.5 -44 Q793 -44 812.5 -53.5 Q832 -63 850 -63 Q866 -63 888 -73.5 Q910 -84 910 -91 Q910 -98 894 -111 Q881 -121 874.5 -121.5 Q868 -122 847 -119 Q819 -114 801 -100 Q749 -58 709 -42 L679 -31 L644 -55 Q594 -88 575 -94.5 Q556 -101 523 -95 Q503 -91 503 -86 Q503 -77 526 -59.5 Q549 -42 573 -34 Q604 -23 604 -18.5 Q604 -14 581 -4 Q560 7 555.5 20 Q551 33 560 59 Q569 84 567.5 86 Q566 88 545.5 78 Q525 68 482.5 60 Q440 52 430 47 Q394 31 346 42 Q313 50 304 64 Q303 68 301 71.5 Q299 75 298 77.5 Q297 80 297 80 Q299 81 314 88.5 Q329 96 359.5 99.5 Q390 103 452 116 Q514 129 549 131.5 Q584 134 587.5 139.5 Q591 145 602.5 179 Q614 213 629 238.5 Q644 264 651 281 Q658 298 668 309 ZM702 140 Q698 147 682 137 Q672 130 654 126 Q626 120 614 110.5 Q602 101 597 82 Q590 59 583 49 Q569 25 605 21 Q626 18 634.5 15 Q643 12 663 40 Q677 63 691 98.5 Q705 134 702 140 ZM238 669 Q248 676 266.5 669 Q285 662 293 659 Q301 656 301 652 Q301 648 319.5 620.5 Q338 593 335 577 L324 514 Q308 423 322 425 L356 434 Q381 442 390 435 Q412 417 352 397 Q345 396 336 393 Q307 385 301.5 378 Q296 371 294 344.5 Q292 318 289 292 Q286 273 292 273 Q297 273 353 304 Q413 337 409 323 Q406 316 384 295 Q355 269 324.5 254 Q294 239 289 234 Q282 228 284 104 Q286 -20 293.5 -57.5 Q301 -95 299 -100 Q296 -105 279 -103.5 Q262 -102 259 -97 Q257 -88 236 -83 Q201 -74 178 -32 Q171 -20 174.5 -17 Q178 -14 194 -21 Q219 -31 236.5 -24.5 Q254 -18 248 0 Q245 10 245 104.5 Q245 199 240.5 199 Q236 199 206.5 175 Q177 151 162 142 Q147 133 108 106 L69 78 L56 88 Q44 98 35 98 Q26 98 19.5 105.5 Q13 113 19.5 121 Q26 129 37 129 Q42 129 136.5 182 Q231 235 244 245 Q248 249 247.5 298 Q247 347 241 348 Q236 351 215 343 Q166 326 142.5 325.5 Q119 325 89 340 Q41 362 72 374 Q87 381 119 381 Q163 381 206 389 L248 399 L251 418 Q254 438 252.5 515.5 Q251 593 240 628 Q233 652 232 657.5 Q231 663 238 669 ZM594 717 Q594 728 644 711 Q740 679 720 612 Q714 591 715 584 Q716 577 727 577 Q740 577 758 584.5 Q776 592 812 593 Q836 595 842.5 594 Q849 593 849 586 Q850 577 837 565.5 Q824 554 810 554 Q782 553 728 534.5 Q674 516 644 498 Q632 491 607 480 Q587 473 586 470 Q586 467 591 465 Q601 459 612 449 Q623 439 625 444 Q625 446 626 441 Q639 409 639 382 Q639 367 641.5 364 Q644 361 671 368 Q689 372 694 376.5 Q699 381 706 396 Q713 414 713.5 438.5 Q714 463 710 477 Q706 487 707.5 489 Q709 491 719 491 Q733 491 748 480 Q761 473 763 468 Q765 463 762 439 Q758 407 754 399 Q751 392 758 392 Q762 392 773 393 Q797 396 833 403 Q881 413 920 410 Q930 410 930.5 402.5 Q931 395 923 383 Q915 375 888 375 Q861 375 811.5 369.5 Q762 364 757 360.5 Q752 357 737.5 353.5 Q723 350 666 322 Q609 294 605.5 294 Q602 294 590 285 Q565 269 525.5 267.5 Q486 266 451 281 Q405 301 478 312 Q485 313 495 313 Q539 319 547.5 325.5 Q556 332 556 355 Q558 382 559 389.5 Q560 397 559 431 L559 466 L542 466 Q530 466 511 473.5 Q492 481 479 491 Q472 498 481 504.5 Q490 511 500 511 Q510 511 571 527 Q632 543 647 549 L664 556 L646 598 Q629 640 625.5 658.5 Q622 677 614 683 Q607 689 600.5 700 Q594 711 594 717 Z" /><glyph glyph-name="uni65B9" unicode="&#x65b9;" d="M461 243 Q483 264 519.5 307 Q556 350 584 376.5 Q612 403 616 403 Q623 403 628 391.5 Q633 380 633 368 Q633 352 617 332 Q601 312 602 310 Q612 302 650.5 283 Q689 264 707 259 Q759 240 762 218 Q763 208 749 204 Q741 201 733.5 196 Q726 191 706 182 Q678 166 660.5 143.5 Q643 121 615 60 Q584 -3 564 -29 Q544 -55 527 -55 Q511 -55 501.5 -39.5 Q492 -24 468 37 Q461 57 462 72 L465 82 Q468 82 483 58 Q502 30 509 30 Q516 30 537 58 Q558 86 581 126 Q607 169 630 198 L654 229 L640 239 Q626 249 607 265.5 Q588 282 586 282 Q583 282 557 264.5 Q531 247 516 235 Q497 219 474 190.5 Q451 162 424.5 142.5 Q398 123 376 98 Q315 35 209 29 Q188 28 187.5 31.5 Q187 35 272 91.5 Q357 148 398 186 L461 243 ZM385 634 Q385 648 388 650.5 Q391 653 405 652 Q419 651 461.5 629 Q504 607 521 592 Q548 568 565 515 L573 488 L661 488 Q748 488 774 482.5 Q800 477 830.5 482.5 Q861 488 866 484 Q871 480 904 468 Q937 456 944 452 Q951 446 950.5 432 Q950 418 941 415 Q929 413 888 414 Q847 415 833 421 Q817 427 786.5 430.5 Q756 434 734 441 Q714 448 695.5 448.5 Q677 449 621 446 Q555 441 348 383 Q252 355 184 355 Q147 355 134.5 357 Q122 359 98 371 Q82 379 70 387.5 Q58 396 53 402 Q48 408 51.5 411.5 Q55 415 133 414 Q196 413 224 417 Q252 421 402 453 Q472 467 475.5 470 Q479 473 461 492 Q440 513 412.5 564.5 Q385 616 385 634 Z" /><glyph glyph-name="uni662F" unicode="&#x662f;" d="M295 262 Q309 269 313 269 Q317 269 323 262 Q330 253 323.5 237 Q317 221 317 210 Q317 199 299 191 Q281 183 253 159 Q193 109 176 108 Q168 108 141 91 Q117 75 108.5 74 Q100 73 92.5 85.5 Q85 98 91 108 Q103 130 173 173 Q203 192 242 222.5 Q281 253 295 262 ZM648 276 Q651 280 669 276.5 Q687 273 704 266 Q721 259 720 247.5 Q719 236 701 234 Q686 231 611.5 235 Q537 239 533 243 Q529 248 546 253 Q574 263 613 267 Q645 270 648 276 ZM406 211 Q408 231 413 254 Q418 277 423 305.5 Q428 334 437 335.5 Q446 337 457 333 Q466 329 467.5 321 Q469 313 469 274 Q467 221 468 186 Q469 151 466 142.5 Q463 134 523 82 Q611 4 652 -18.5 Q693 -41 785 -60 Q823 -69 843 -78.5 Q863 -88 887 -98 Q911 -108 911 -115 Q911 -128 876 -132 Q841 -136 812 -126 Q788 -119 750 -111 Q688 -97 660 -84.5 Q632 -72 607 -48 Q473 82 452 91 Q435 96 425 108 Q415 120 386 134 Q357 148 326 155 Q292 165 292 168 Q292 175 313 177 Q334 179 351 175 Q385 165 392.5 170 Q400 175 406 211 ZM567 411 Q582 414 611 413 Q632 413 637 411.5 Q642 410 642 403 Q642 396 633.5 394 Q625 392 590 389 Q548 386 500.5 373 Q453 360 428 346 Q410 334 383 325 L336 308 Q315 301 273.5 294.5 Q232 288 210 288 Q168 291 151 305 Q148 308 148 309 Q151 313 172 316 Q249 329 348 357 Q509 403 567 411 ZM341 721 Q365 724 388 728 Q411 732 485 731 Q540 729 554 727 Q568 725 583 715 Q606 701 607.5 683.5 Q609 666 590 619 Q571 568 561 501 Q555 456 551.5 444 Q548 432 540 426.5 Q532 421 529 421 Q526 421 522 427 Q512 439 499 428 Q491 421 441.5 413.5 Q392 406 384 399.5 Q376 393 373.5 398 Q371 403 351 413 Q331 423 326 432 Q317 444 307.5 502 Q298 560 296 592 Q296 638 298.5 645 Q301 652 315 652 Q329 652 348.5 638 Q368 624 368 614 Q368 609 385 589 L401 570 L439 581 Q511 600 529 584 Q539 575 541 586 Q543 592 546 609 Q548 630 555 659 Q560 679 559 684.5 Q558 690 551 696 Q541 703 526 700.5 Q511 698 448.5 690 Q386 682 382 679 Q378 676 355.5 688 Q333 700 324 708 Q317 717 327 718 Q331 719 341 721 ZM533 522 Q546 582 533 568 Q529 565 438 542 L406 533 L401 511 Q390 460 401 451 Q406 445 426 450.5 Q446 456 473 453 Q492 452 498.5 454 Q505 456 512 465 Q522 479 533 522 Z" /><glyph glyph-name="uni672C" unicode="&#x672c;" d="M385 229 Q385 295 388 311 Q391 327 402 329 Q413 331 414 332 Q415 333 429 325 Q443 317 451 317 Q473 317 465 285 Q461 266 458 226 L455 189 L486 190 Q514 191 522.5 188.5 Q531 186 528 176 Q525 166 533.5 166 Q542 166 540 158.5 Q538 151 510 142 Q482 133 466 124 Q454 119 450.5 105 Q447 91 443 42 Q440 4 431 -48 Q423 -101 412 -103 Q405 -104 392 -90 Q384 -79 382.5 -65.5 Q381 -52 382 14 L382 102 L371 102 Q359 102 347 93 Q339 89 333.5 89 Q328 89 310 98 Q283 107 285 113 Q287 119 317 127 Q347 135 366 144 L385 152 L385 229 ZM485 354 Q482 366 484 369 Q486 372 497 371 Q513 371 531 363 Q549 355 557.5 351.5 Q566 348 566 338 Q566 330 597.5 292 Q629 254 658 228 Q678 210 686 197 Q692 189 727.5 154.5 Q763 120 798 89 Q819 71 833 71 Q850 71 891.5 59 Q933 47 942 40 Q949 35 947 30 Q945 25 931 16 Q907 2 852.5 6.5 Q798 11 762 29 Q738 40 719 60.5 Q700 81 665 131 Q625 190 600.5 218.5 Q576 247 576 252 Q576 257 559 272.5 Q542 288 522 301 Q501 315 494 324 Q487 333 485 354 ZM394 669 Q396 693 399.5 697.5 Q403 702 415 695 Q424 691 451 688.5 Q478 686 485.5 676.5 Q493 667 503 663 Q515 659 511 643.5 Q507 628 489 611 Q466 592 450 557 Q434 522 420 509 Q398 487 408 484 Q412 484 442.5 496.5 Q473 509 517.5 507.5 Q562 506 567.5 500 Q573 494 583 494 Q601 494 587 471 Q573 450 553 446 Q538 442 510 428 Q482 414 478.5 414 Q475 414 452 401 Q364 358 357 343 L319 266 Q298 222 253.5 148.5 Q209 75 199 68 Q193 65 193 54 Q193 43 187 37.5 Q181 32 158 25 Q102 5 84 -9 Q52 -31 52 4 Q52 23 74.5 43.5 Q97 64 130 86 Q154 103 162.5 113.5 Q171 124 192 165 Q219 219 226 227 Q233 235 256 281 Q276 323 274 333 Q272 343 238 355 Q210 366 196 386 Q192 393 199 393 Q205 393 221.5 407 Q238 421 257.5 421.5 Q277 422 301 434 Q321 442 328.5 456 Q336 470 354 527 Q368 578 379.5 607.5 Q391 637 394 669 Z" /><glyph glyph-name="uni672F" unicode="&#x672f;" d="M589 296 Q593 304 599.5 302.5 Q606 301 629 285 Q657 268 686 239 Q715 210 724 190 Q735 168 755 149 Q775 130 775 123.5 Q775 117 797 97 Q809 85 821.5 79.5 Q834 74 862 69 Q893 63 907.5 54.5 Q922 46 919 35 Q917 31 890 20 Q854 6 804.5 13 Q755 20 726 45 Q717 51 704.5 71 Q692 91 692 99 Q692 108 660.5 169 Q629 230 618 242 Q584 281 589 296 ZM670 583 Q670 590 675 591.5 Q680 593 697 593 Q731 593 768.5 584.5 Q806 576 812 568 Q826 548 812 548 Q805 548 799 540 Q780 519 723 537 Q670 556 670 583 ZM462 661 Q479 678 518 650 Q561 619 561 573 Q559 480 554.5 474 Q550 468 547 446 L544 424 L589 429 Q735 441 720 407 Q717 403 711 395 Q700 386 633 384 Q606 384 592.5 383.5 Q579 383 565.5 377.5 Q552 372 548 366.5 Q544 361 540 342.5 Q536 324 535.5 308 Q535 292 535 255 Q533 179 527 112.5 Q521 46 524 20 Q527 -5 517.5 -22.5 Q508 -40 493 -40 Q476 -40 446 -11 Q416 18 413 37 Q411 49 412 51.5 Q413 54 422 51 Q434 46 454 46 L473 46 L481 137 Q487 228 487 270 L487 312 L461 284 Q433 255 371 167 Q272 29 226 -3 Q207 -17 154 -42.5 Q101 -68 90 -68 Q70 -68 93 -40 Q99 -34 106 -28 Q130 -5 237 77 Q298 125 359 214 Q390 262 423 304 Q467 358 462 360 Q459 360 451 358 Q434 353 396 343 Q348 330 304.5 332.5 Q261 335 237 353 Q229 361 227.5 364 Q226 367 232 373 Q238 381 250.5 380.5 Q263 380 282.5 383.5 Q302 387 387.5 402 Q473 417 479 421 Q482 424 475 498.5 Q468 573 459 620 Q454 650 462 661 Z" /><glyph glyph-name="uni6807" unicode="&#x6807;" d="M534 120 Q570 158 583.5 167 Q597 176 599.5 176 Q602 176 611 147 L622 108 Q625 96 615.5 92 Q606 88 599 79 Q592 70 566.5 71.5 Q541 73 529.5 66.5 Q518 60 515.5 67.5 Q513 75 504 73 Q486 64 515 101 Q524 109 534 120 ZM856 208 Q856 211 871 211 Q884 211 905 198.5 Q926 186 942 168 Q956 152 954 134 Q949 116 942 111 Q935 106 920 109 Q898 113 864 152 Q856 162 854.5 170 Q853 178 856 208 ZM556 260 Q539 273 542.5 284 Q546 295 558.5 296 Q571 297 615.5 312 Q660 327 713.5 337.5 Q767 348 782 357.5 Q797 367 840 367 Q872 365 877 363.5 Q882 362 881 353 Q879 340 878 338 Q877 336 829 323 L783 309 L783 228 Q783 148 785 105.5 Q787 63 777 49 Q762 28 739 45 Q727 54 709.5 63.5 Q692 73 689 75.5 Q686 78 670 90 Q654 102 658 108.5 Q662 115 683 110 Q725 101 733.5 111.5 Q742 122 737 172 Q730 224 730 257.5 Q730 291 725 294 Q720 298 662.5 281 Q605 264 595 257 Q583 248 577 248.5 Q571 249 556 260 ZM790 523 Q822 528 823.5 528.5 Q825 529 832 526 Q839 523 840.5 509 Q842 495 835 491 Q830 487 778.5 473 Q727 459 687 443.5 Q647 428 618 423 Q599 418 591.5 419 Q584 420 570 427 Q550 437 550 443 Q550 449 583 459 Q616 469 661 486 Q755 521 790 523 ZM315 606 Q307 619 307 630 Q307 641 315.5 637 Q324 633 338 630.5 Q352 628 363 616 Q370 606 371.5 592 Q373 578 370 518 Q367 434 371 434 Q375 434 394 441 Q415 449 431 448.5 Q447 448 450 438 Q454 427 446 420.5 Q438 414 410 403 Q391 395 384.5 389 Q378 383 371 368 Q360 346 360 297 L360 249 L410 246 Q448 243 486.5 233.5 Q525 224 532 214 Q536 208 539 196 Q542 187 540 184.5 Q538 182 529 180 Q499 173 466 197 Q447 211 421 217.5 Q395 224 378 230 Q361 236 361 232 Q359 218 356 59 Q354 -28 350 -34 Q339 -52 319 -18 Q311 -3 309.5 10.5 Q308 24 310 77 Q311 151 317 172 Q319 185 320.5 206.5 Q322 228 321.5 245 Q321 262 318 262 Q314 262 291.5 215.5 Q269 169 247.5 132.5 Q226 96 226 93.5 Q226 91 175.5 25 Q125 -41 122 -41 Q119 -41 104.5 -32.5 Q90 -24 90 -11 Q91 4 97.5 15 Q104 26 132 61 Q207 154 234 197 Q248 220 285 294.5 Q322 369 319 371 Q317 375 289 366 Q261 357 235 346 Q202 327 177 322 Q158 318 139.5 308 Q121 298 121 291 Q121 278 76 301 Q45 318 45 329 Q45 337 69 340 Q132 347 234 381 L321 410 L325 441 Q329 483 325.5 538 Q322 593 315 606 Z" /><glyph glyph-name="uni6863" unicode="&#x6863;" d="M774 204 Q782 207 801 204.5 Q820 202 828 198 Q846 186 818 167 Q800 155 775.5 155 Q751 155 708 139 Q589 99 569 109 Q557 114 557 122 Q557 130 544 137.5 Q531 145 530.5 159 Q530 173 543 177 Q555 181 571 180.5 Q587 180 593 176 Q600 170 640 179 Q680 188 720.5 194.5 Q761 201 774 204 ZM580 333 Q594 326 642 335.5 Q690 345 740 352 Q790 359 816 361 Q846 361 889.5 342.5 Q933 324 940 307 Q946 295 936 286.5 Q926 278 920 253.5 Q914 229 907.5 215.5 Q901 202 892 152 Q883 102 878 76.5 Q873 51 872 32 Q869 5 862 5 Q860 5 858 8 Q852 13 845.5 13 Q839 13 821 26 Q803 39 775 41 Q755 44 742.5 40 Q730 36 681 11 Q579 -40 557 -19 Q547 -10 536 -5 Q526 1 523 13 Q520 25 527 29 Q534 33 564 33 Q617 33 720 65 Q743 72 756 73 Q769 74 800 69 Q846 65 849 67 Q853 69 861.5 117 Q870 165 873 209 Q879 275 868.5 295.5 Q858 316 816 323 Q793 327 790.5 318.5 Q788 310 781 310 Q774 310 762.5 300.5 Q751 291 695 272.5 Q639 254 629 244 Q607 225 594 225 Q592 225 592 230 Q592 235 599 235 Q606 235 618 246 Q627 254 625 254 Q625 254 620 253 Q599 246 589.5 246.5 Q580 247 571 256 Q558 268 555 276.5 Q552 285 545 285 Q538 285 529 295.5 Q520 306 526.5 318.5 Q533 331 549.5 335.5 Q566 340 580 333 ZM887 547 Q893 557 915 538 Q933 524 948 516 Q963 508 965.5 491 Q968 474 963 469 Q958 464 922 464 Q886 464 870.5 453 Q855 442 850.5 442 Q846 442 831 433 Q807 421 809 436 Q810 450 831 489 Q846 517 848.5 525 Q851 533 845 537 Q838 541 848 541 Q852 541 860 541 Q883 543 887 547 ZM671 645 L687 646 Q704 648 726 636 Q750 625 757 598 Q764 571 764 480 Q764 365 747 359 Q737 355 712 377 Q694 393 690.5 399 Q687 405 690 422 Q694 467 678 467 Q671 467 643 439.5 Q615 412 611 403 Q607 390 612 381 Q617 372 611.5 358.5 Q606 345 596.5 345 Q587 345 583 344 Q582 344 578.5 348 Q575 352 572 358 Q566 372 553.5 377 Q541 382 541 389 Q541 403 522 428 Q515 436 520.5 446.5 Q526 457 526 463.5 Q526 470 536 480 Q544 485 548 485 Q552 485 569 477 Q592 467 601 467 Q610 467 645 488 Q669 503 674.5 509 Q680 515 678 524 L674 593 L671 645 ZM293 655 Q288 657 295 663 Q302 669 306 669 Q313 669 332.5 657.5 Q352 646 366 635 Q412 592 397 550 Q390 531 386.5 506 Q383 481 386 478 Q391 475 407.5 478 Q424 481 433 471 Q442 463 438.5 458.5 Q435 454 410 445 Q383 433 381 423.5 Q379 414 370 404 Q361 394 359.5 358.5 Q358 323 353.5 314.5 Q349 306 358 302 Q410 285 449 244 Q478 214 481 209 Q481 208 479 207.5 Q477 207 473.5 206 Q470 205 466 205 Q435 205 375 247 Q351 265 348 265 Q345 265 345 250.5 Q345 236 338 218 Q331 202 329.5 103 Q328 4 334 -34 Q340 -65 336.5 -68.5 Q333 -72 321.5 -69 Q310 -66 310 -62 Q310 -58 296 -43 Q285 -31 276 -6.5 Q267 18 271 22 Q275 25 282 18 Q295 8 299 32 Q302 54 305 135 Q307 247 310.5 252.5 Q314 258 311.5 289 Q309 320 305 320 Q300 320 291 299 Q257 223 230 187 Q219 170 219 163 Q219 156 203.5 132.5 Q188 109 188 102 Q188 79 158 42 Q128 5 102 -5 Q64 -19 55 -6 Q53 -2 43 -2 Q33 -2 33 2 Q33 9 55.5 35.5 Q78 62 93 75 Q114 92 132.5 118 Q151 144 197 202 Q303 341 310 389 Q313 403 302 400 Q292 397 270.5 391.5 Q249 386 228 370.5 Q207 355 165 341 L123 326 L88 344 Q58 358 52.5 364 Q47 370 53 382 Q57 389 62.5 389.5 Q68 390 85 389 Q111 386 161.5 404 Q212 422 264.5 437 Q317 452 320.5 455.5 Q324 459 320 537 Q317 596 311.5 620.5 Q306 645 293 655 Z" /><glyph glyph-name="uni6B22" unicode="&#x6b22;" d="M681 176 Q660 195 662.5 199.5 Q665 204 673 204.5 Q681 205 684 200 Q686 195 717.5 180 Q749 165 790.5 130 Q832 95 836 95 Q847 95 908 19 Q926 -3 928 -9.5 Q930 -16 924 -23 Q916 -31 904 -31 Q892 -31 892 -40 Q892 -51 873 -41 Q868 -38 860 -34 Q843 -24 830.5 -10 Q818 4 800 33 Q751 114 681 176 ZM299 470 Q350 487 364 487 Q377 487 401 477 Q425 467 425 461 Q425 457 405 425.5 Q385 394 367 370 Q313 296 313 286 Q313 281 342 264 Q364 251 366.5 243 Q369 235 350 225 Q336 218 334 214 Q329 204 297 221 L278 230 L264 214 Q240 186 207 154.5 Q174 123 161 117 Q138 104 104 82 Q76 62 73 65 Q62 78 157 179 Q198 222 212 239 Q222 251 222 254.5 Q222 258 215 263 Q205 270 197 270 Q189 270 159 285 Q136 296 132 299.5 Q128 303 132 310 Q140 327 219 313 L261 305 L272 319 Q297 349 320 394 Q343 439 336 445 Q334 447 286 423.5 Q238 400 205 380 Q166 358 119 376 Q84 389 85.5 403.5 Q87 418 125 422 Q160 425 299 470 ZM516 635 Q527 643 533 643 Q539 643 565 614 Q581 594 585.5 586.5 Q590 579 588 568 Q581 519 574 505 Q563 478 558 438 Q553 417 546 411 Q538 400 542 391 Q545 391 570 404 Q594 415 655 438 Q716 461 724.5 461 Q733 461 745 471 Q763 487 790.5 478.5 Q818 470 838 445 Q850 429 860.5 398.5 Q871 368 868 355 Q864 333 853 331 Q850 331 847 334 Q842 345 788.5 329.5 Q735 314 671 285 Q651 275 644 269 Q637 263 632 249 Q579 114 488 61 Q454 41 436 30 Q415 16 413 23 Q413 27 441 60 Q469 93 485 107 Q534 149 559 193 Q573 214 589 258.5 Q605 303 605 317 Q605 328 608 340 Q611 348 615 349.5 Q619 351 635 349 Q650 349 654 346.5 Q658 344 660 337 Q661 326 664 326 Q667 326 693 347 Q751 391 768 391 Q777 391 778.5 397.5 Q780 404 773 424 Q765 443 757 444 Q749 445 702 426 Q663 411 635.5 390.5 Q608 370 595.5 367.5 Q583 365 549 351 Q517 335 504.5 335 Q492 335 485 351 Q479 365 489 397 Q499 425 504.5 487.5 Q510 550 507 592 Q506 615 507.5 622 Q509 629 516 635 Z" /><glyph glyph-name="uni6B63" unicode="&#x6b63;" d="M684 351 Q722 375 761 355 Q778 347 785.5 333 Q793 319 786 312 Q778 301 706 297 Q663 294 625 287 Q587 280 582.5 283.5 Q578 287 570 287 Q562 287 562 296 Q562 305 592 315.5 Q622 326 632.5 333 Q643 340 653 340 Q663 340 684 351 ZM477 414 Q494 437 522 403 Q534 388 538.5 372.5 Q543 357 550 302 Q552 271 551 212.5 Q550 154 554.5 151 Q559 148 589 154 Q655 164 757.5 159.5 Q860 155 877 141 Q884 136 901.5 127.5 Q919 119 925 119 Q932 119 940.5 108.5 Q949 98 946 94 Q943 88 908 88 Q858 88 797 110 Q730 136 603 112 Q537 99 502 95 Q468 92 404.5 77.5 Q341 63 306 50 Q250 31 198 24.5 Q146 18 137 31 Q130 39 102 59 Q54 92 54 99 Q54 101 55 102 Q62 106 150.5 109.5 Q239 113 246.5 116 Q254 119 261 133.5 Q268 148 284 162 L300 178 L286 222 Q274 267 257 298 Q242 327 246 333.5 Q250 340 277 327 Q296 316 306.5 305.5 Q317 295 331 271 Q341 253 352 211 Q363 169 363 151 L363 133 L405 133 Q477 134 488 145 Q489 147 477 175 Q468 193 467 202 Q466 211 470 232 Q475 260 470.5 305 Q466 350 457 360 Q442 376 460 382 Q470 383 470 393 Q470 403 477 414 ZM586 571 Q606 577 635 576 Q664 575 678 570 Q694 563 708 560 Q719 557 720.5 550.5 Q722 544 713 528 Q706 512 670.5 496 Q635 480 629.5 480 Q624 480 608.5 472.5 Q593 465 533 462 Q473 459 442 451 Q400 438 391 438 Q382 438 369 453 Q355 470 351.5 489 Q348 508 338 525 Q327 543 330.5 548.5 Q334 554 355 551 Q376 547 407 546 Q429 546 495 555 Q561 564 586 571 Z" /><glyph glyph-name="uni7231" unicode="&#x7231;" d="M510 200 Q491 200 480.5 207.5 Q470 215 475 225 Q480 235 518 235 Q549 235 572.5 226.5 Q596 218 596 207 Q596 198 581.5 180 Q567 162 559 137 Q552 119 552 113 Q552 107 559 99 Q567 86 589.5 69.5 Q612 53 624 32 Q638 9 667 -17.5 Q696 -44 714 -52 Q735 -61 760 -64.5 Q785 -68 792 -70 Q799 -72 809 -90 Q819 -108 815 -112 Q811 -117 771.5 -117.5 Q732 -118 713 -114 Q647 -101 630 -76 Q620 -65 589.5 -14 Q559 37 547 51 L536 65 L531 43 Q525 21 518 14 Q511 7 498 -20 L486 -45 L437 -61 Q381 -79 381 -66 Q381 -63 382 -58 Q385 -49 406.5 -34 Q428 -19 451 -10 Q468 -3 472.5 4.5 Q477 12 490 50 Q500 77 501.5 84 Q503 91 496 96 Q487 105 480 105 Q470 105 445.5 117.5 Q421 130 419 135 Q416 142 425.5 148.5 Q435 155 456 147 Q510 127 518 135 Q522 140 525 169 L526 200 L510 200 ZM433 330 Q445 357 449.5 361 Q454 365 466 364 Q487 359 494 353.5 Q501 348 498 337 Q496 329 498.5 327.5 Q501 326 517 329 Q556 336 591 331.5 Q626 327 626 316 Q626 301 563 301 Q538 299 525 296.5 Q512 294 490 282 Q455 264 448.5 251 Q442 238 429 221.5 Q416 205 405.5 176 Q395 147 374.5 116.5 Q354 86 354 79 Q354 67 323.5 25.5 Q293 -16 272 -30 Q253 -44 212.5 -70.5 Q172 -97 170.5 -97 Q169 -97 164 -72 Q158 -48 163 -40.5 Q168 -33 196 -14 Q266 30 319 105 L364 165 Q371 175 380 200 Q389 225 385 226 Q382 229 354 217 Q315 198 279 218 Q269 222 262.5 233.5 Q256 245 260 249 Q263 250 283 253 Q336 257 391 282 Q409 291 415 298.5 Q421 306 433 330 ZM200 369 Q227 396 234 401 Q241 406 246.5 400 Q252 394 249 386 Q246 378 228 345 Q200 299 183 256 Q171 225 166 218.5 Q161 212 150 211 Q136 210 129.5 224 Q123 238 123 246 Q123 254 117.5 257.5 Q112 261 124 274.5 Q136 288 149 308.5 Q162 329 200 369 ZM500 449 Q535 462 552.5 464 Q570 466 622 466 Q717 466 816 445 Q874 434 881 423.5 Q888 413 881 406.5 Q874 400 874 390 Q874 371 812 371 Q777 371 764 364 Q755 357 746.5 358 Q738 359 738 369 Q738 376 752.5 397 Q767 418 763 422 Q746 441 656 443 Q566 445 536 429 Q524 422 498.5 411 Q473 400 461 390 Q437 373 351 376 Q307 376 295 387 Q287 394 287 397 Q287 400 293 401 Q302 406 350 411 Q413 420 500 449 ZM293 554 Q305 568 325 553 Q337 544 353.5 535.5 Q370 527 370 516 Q370 505 377 492 Q381 484 379 479 Q377 474 364 460 Q351 448 345 445 Q339 442 329 445 Q314 448 302 466.5 Q290 485 284.5 488.5 Q279 492 282.5 519 Q286 546 293 554 ZM440 610 Q455 613 480 606 Q503 599 502 594 Q501 589 501 554 Q501 519 501 509 Q504 481 495.5 472.5 Q487 464 470 477 Q452 491 443.5 509 Q435 527 434 564 Q431 607 440 610 ZM631 621 Q641 625 648 625 Q655 625 680 617 Q699 613 702.5 606.5 Q706 600 703 581 Q700 567 697 563.5 Q694 560 686 561 Q619 567 603.5 566 Q588 565 574 557 Q560 551 556 550.5 Q552 550 546 555 Q540 560 541.5 563.5 Q543 567 553 575 Q568 588 574 588 Q580 588 599.5 602 Q619 616 631 621 ZM531 715 Q540 718 584.5 716 Q629 714 631 711 Q633 708 626.5 701 Q620 694 624 683 Q627 672 620 665 Q613 658 599 658 Q584 658 529 641 Q479 624 452.5 623.5 Q426 623 392 638 Q379 644 369.5 651 Q360 658 356.5 663.5 Q353 669 357 672 Q358 674 396 679 Q424 681 464.5 691.5 Q505 702 512 708 Q518 712 531 715 Z" /><glyph glyph-name="uni7528" unicode="&#x7528;" d="M474 491 Q487 495 494.5 493 Q502 491 514 481 Q531 468 536 442 Q539 418 546.5 412.5 Q554 407 571 421 Q586 432 620 435 Q643 437 649.5 436 Q656 435 663 424.5 Q670 414 670 410 Q670 406 664 400 Q655 392 621 391.5 Q587 391 567 380 L547 371 L546 326 Q546 293 547.5 287 Q549 281 557 283 Q567 285 609 285 Q639 286 647.5 283.5 Q656 281 668 271 Q680 260 681 257.5 Q682 255 674 249 Q664 241 631 241 Q604 238 595.5 239.5 Q587 241 574 235 Q561 229 559.5 227.5 Q558 226 552.5 208 Q547 190 547 180 Q547 170 547 134 Q545 54 543 49 Q543 35 508 65 Q491 80 488.5 85 Q486 90 490 108.5 Q494 127 490 160 Q486 193 481 200 Q479 202 455.5 196 Q432 190 415 182 Q405 178 384 178.5 Q363 179 356 186 Q347 193 336 193 Q326 193 318 206.5 Q310 220 312 231 Q318 256 367 246 Q403 237 465 263 Q476 266 478 271.5 Q480 277 480 302 Q480 327 478.5 331.5 Q477 336 468 334 Q413 318 373 336 Q330 356 340 373 Q347 381 374 381 Q468 384 473 398 Q476 405 466 437 Q454 486 474 491 ZM224 512 Q205 532 207 536 Q209 540 231 542 Q248 542 254.5 539 Q261 536 277 520 Q303 491 307.5 459.5 Q312 428 299 378 Q295 359 292.5 230 Q290 101 285 75 Q261 -60 252 -63 Q249 -64 241 -57 Q231 -48 231 -41.5 Q231 -35 215 -16 Q186 17 215 24 Q224 25 227.5 33.5 Q231 42 239 69 Q248 111 250.5 156 Q253 201 255.5 204.5 Q258 208 258 327 Q258 425 253 454.5 Q248 484 224 512 ZM593 657 Q626 663 674 661 Q722 659 749 652 Q782 643 785 643 Q788 643 788 632 Q788 621 795 608 Q800 599 800 593 Q800 587 795 569 Q788 543 788 530 Q788 517 779.5 512.5 Q771 508 770 411 Q767 187 782 133 Q790 106 790 27 Q790 -46 782.5 -55 Q775 -64 733 -43 Q690 -21 652 18 Q642 31 647.5 36.5 Q653 42 671 36 Q687 31 711 31 L733 31 L736 89 Q740 194 725.5 359 Q711 524 690 582 L683 604 L638 602 Q591 601 568.5 590.5 Q546 580 533.5 580 Q521 580 491 568 Q405 540 347 552 Q314 560 299 567 Q281 577 286 586 Q288 590 293 590 Q304 590 324.5 600.5 Q345 611 357.5 611 Q370 611 439 627 Q546 650 593 657 Z" /><glyph glyph-name="uni7684" unicode="&#x7684;" d="M587 198 Q587 209 592.5 213 Q598 217 605 215 Q612 213 645 209 Q668 206 675.5 202.5 Q683 199 699 182 Q711 168 714.5 159.5 Q718 151 718 135 Q720 111 713 108 Q696 101 641.5 140 Q587 179 587 198 ZM256 214 Q300 227 312.5 232 Q325 237 349 237 Q384 237 384 213 Q384 206 344 196 Q304 186 267 185 Q202 182 207 192 Q210 200 256 214 ZM343 373 Q385 387 419.5 388 Q454 389 468 377 Q479 367 478 360 Q477 353 465 325 Q447 287 442.5 270.5 Q438 254 434 206 Q428 144 421 111.5 Q414 79 412 53 Q406 6 393 -14 Q384 -29 360 18 Q349 42 340.5 44 Q332 46 293 38 Q258 30 258 23 Q258 6 234 17 Q216 24 204.5 44.5 Q193 65 181 111 L161 177 Q133 275 109 301 Q99 312 91.5 329.5 Q84 347 88 352 Q91 354 124 341.5 Q157 329 162 322 Q171 312 183.5 269 Q196 226 202 189 Q207 157 219 116.5 Q231 76 239 62 L248 52 L279 63 Q347 93 368 73 Q377 66 379 72 Q382 79 391 122 Q396 153 399 245.5 Q402 338 398 340 Q395 343 368 335 Q343 328 318 329.5 Q293 331 283 340 Q263 359 287 359 Q301 359 343 373 ZM312 573 Q312 597 346 562 Q364 542 372.5 521 Q381 500 372 490 Q365 483 327.5 463.5 Q290 444 278 431.5 Q266 419 241.5 410.5 Q217 402 189 377 Q169 359 163.5 356.5 Q158 354 154 360 Q147 370 147 375 Q147 398 244 494 Q312 562 312 573 ZM692 676 Q708 678 738 668 L769 657 L767 627 Q766 595 753.5 572 Q741 549 696 494 Q678 472 663 442 Q648 412 632.5 396.5 Q617 381 609 368 L592 342 L584 328 L605 331 Q627 335 696 357 Q777 384 834.5 384 Q892 384 906 356 Q918 332 912 304.5 Q906 277 878 233 Q864 212 851 133 Q847 104 840 96 Q833 88 830 28 Q827 -32 816.5 -53.5 Q806 -75 798.5 -78 Q791 -81 767 -61.5 Q743 -42 720 -29 Q686 -10 691.5 3 Q697 16 736 7 Q769 0 780 1 Q791 2 798 10 Q815 30 836 212 Q840 249 845.5 262.5 Q851 276 854 304 Q858 339 843.5 352.5 Q829 366 802 350 Q780 339 697.5 309 Q615 279 580 270 Q556 265 547.5 265.5 Q539 266 518 276 Q496 286 487.5 295 Q479 304 479 318 Q479 326 484 327.5 Q489 329 511 326 L543 324 L552 347 Q560 367 584.5 415.5 Q609 464 619 479 Q629 492 652 534.5 Q675 577 680 617 Q685 657 680 667 Q678 671 680 673 Q682 675 692 676 Z" /><glyph glyph-name="uni79CD" unicode="&#x79cd;" d="M323 500 Q326 503 351 498 Q376 493 384 489 Q396 483 398.5 474 Q401 465 422 465 Q443 465 465 458.5 Q487 452 487 447 Q487 427 435 426 L398 426 L394 405 Q391 384 386.5 375 Q382 366 380 319 L377 275 L408 270 Q429 268 455 258.5 Q481 249 481 244 Q481 241 471 226 Q461 213 445 211.5 Q429 210 396 219 Q368 226 366.5 224.5 Q365 223 362 170.5 Q359 118 354 104 Q344 73 344 18 Q344 7 348 -33 Q351 -61 350 -69 Q349 -77 344 -78 Q331 -82 306.5 -47 Q282 -12 272 24 Q270 35 274 35 Q282 35 293 17 Q298 11 300 7.5 Q302 4 304 3.5 Q306 3 307.5 3.5 Q309 4 310 6 Q314 14 317 119 Q320 224 323 238 Q326 251 319 252 Q310 252 302 237 Q295 223 269.5 194 Q244 165 244 161 Q244 157 191.5 104.5 Q139 52 124 42 Q117 37 104.5 33.5 Q92 30 83 30.5 Q74 31 74 35 Q74 44 100.5 79 Q127 114 149 133 Q211 191 237 224.5 Q263 258 296 326 Q333 398 320 401 Q314 402 296 396 Q277 389 242 378 Q207 367 200 360 Q179 343 135 333 Q109 326 100.5 314.5 Q92 303 86 303 Q79 303 56 328 Q33 353 33 361 Q33 368 34.5 370.5 Q36 373 41 371 Q53 366 156 399 Q187 408 226 417 L320 441 Q327 443 324 470 Q321 497 323 500 ZM340 632 Q369 640 381 637 Q393 634 415 616 Q440 594 440 579 Q440 564 428.5 555 Q417 546 405 553 Q396 559 383 554 Q370 549 345 549 Q320 549 291.5 535.5 Q263 522 237 515 Q221 510 216 510 Q211 510 205.5 515.5 Q200 521 200 525 Q200 529 207 542 Q221 567 260.5 594.5 Q300 622 340 632 ZM715 660 Q718 667 721.5 668 Q725 669 733 668 Q748 665 771 647 L792 629 L795 591 Q796 553 792 551 Q788 549 788 527.5 Q788 506 788 483 L786 461 L851 461 Q907 461 923 456 Q939 451 947 431 Q954 415 961 409 Q977 396 947 377 Q930 366 905 336.5 Q880 307 880 289 Q881 277 877.5 272.5 Q874 268 862 261 Q841 249 808.5 248.5 Q776 248 769 241 Q761 231 762.5 134.5 Q764 38 774 20 Q785 -1 785 -106 Q786 -136 784 -143 Q782 -150 775 -150 Q765 -151 748 -127 L730 -103 L727 16 Q722 231 711 231 Q704 231 671 217 Q645 205 612.5 197 Q580 189 571 193 Q562 196 565 209.5 Q568 223 568.5 236 Q569 249 580 251 L593 252 L578 270 Q551 305 552 324 Q552 333 539.5 362.5 Q527 392 519 399 Q512 405 517 411 Q522 417 542 411.5 Q562 406 608.5 419.5 Q655 433 690 443 L726 451 L723 508 Q722 567 718 584 Q712 598 711.5 622.5 Q711 647 715 660 ZM855 436 Q803 444 789 426 Q783 420 780.5 382.5 Q778 345 772 321 Q764 282 778 286 Q779 286 782 287 Q790 293 803 297 Q816 301 833.5 341 Q851 381 862 398 Q874 417 873 425 Q872 433 855 436 ZM725 377 Q726 402 722.5 406 Q719 410 702 402 Q690 395 656 381 Q631 370 626.5 365.5 Q622 361 622 347 Q622 333 630 299.5 Q638 266 642 262 Q645 258 680 268 L715 276 L719 311 Q722 345 725 377 Z" /><glyph glyph-name="uni7A0B" unicode="&#x7a0b;" d="M827 289 Q869 295 887 294.5 Q905 294 918 284 Q935 274 934 268.5 Q933 263 917 259 L870 249 L842 243 L837 218 Q831 193 828 182 Q827 175 832 173.5 Q837 172 861 170 Q890 170 911 163 Q932 156 932 148 Q932 141 882 138 Q838 137 827 130.5 Q816 124 810 93 Q805 65 812 51 Q817 40 824 38 Q831 36 863 33 Q897 32 907.5 28.5 Q918 25 942 8 Q974 -14 975 -20 Q978 -28 961.5 -34.5 Q945 -41 931 -37 Q915 -31 912.5 -34 Q910 -37 892.5 -25.5 Q875 -14 826 -14 Q788 -14 724 -22 Q660 -30 644 -37 Q632 -41 617 -51 Q607 -58 603 -58.5 Q599 -59 590 -54 Q579 -45 579 -31 Q579 -17 574 -14 Q564 -7 576 5 Q585 12 614 9 Q645 7 679.5 14 Q714 21 728 32 Q754 51 754 85 Q754 105 742 105 Q729 105 702.5 96.5 Q676 88 663 79 L648 70 L623 88 Q579 120 616 120 Q618 120 623 120 Q638 119 683 128.5 Q728 138 743 145 Q751 151 749 177 Q746 208 739.5 213.5 Q733 219 702 219 Q634 219 620 238 Q613 245 615 247 Q617 249 663 254 Q744 264 786 281 Q800 287 827 289 ZM308 553 Q326 560 366.5 551.5 Q407 543 418 529 Q427 518 435 518 Q445 518 446.5 511 Q448 504 439 498 Q429 490 428.5 450 Q428 410 422.5 403.5 Q417 397 415 377 Q413 357 406 340 Q399 323 397 294 Q396 273 397.5 268 Q399 263 406 264 Q415 266 464 266.5 Q513 267 522.5 259.5 Q532 252 541.5 247.5 Q551 243 542.5 241 Q534 239 531.5 229 Q529 219 514 219 Q499 219 496.5 215 Q494 211 477 208 Q439 201 411 236 Q401 249 394 248 Q387 247 387 233 Q387 222 380 212 Q365 193 378 142 Q382 121 377 99 Q372 77 371.5 6 Q371 -65 379 -83 Q387 -100 387 -103.5 Q387 -107 378 -112 Q368 -118 360 -114 Q352 -110 341 -91 Q319 -58 329 -41 Q340 -20 327 -5 Q324 1 326.5 36 Q329 71 330 111.5 Q331 152 336 197.5 Q341 243 338 245 Q334 250 318 226.5 Q302 203 284.5 170 Q267 137 261.5 116 Q256 95 232 63 Q217 42 207.5 35 Q198 28 179 22 Q148 12 123 2 Q81 -13 81 0 Q81 8 103.5 34 Q126 60 145 72 Q172 91 184.5 111 Q197 131 206 141.5 Q215 152 247.5 215 Q280 278 310 319 Q334 348 338.5 357 Q343 366 343 387 Q343 415 336 434 L327 452 L299 442 Q271 432 253.5 416.5 Q236 401 228.5 401 Q221 401 218 393.5 Q215 386 182 365.5 Q149 345 120 333 Q88 320 82 315 Q72 308 33 327 Q15 337 11.5 351.5 Q8 366 21 379 Q28 385 32 385 Q36 385 46 380 Q61 372 85 379 Q144 394 200 425 L280 467 Q324 491 326.5 499.5 Q329 508 313 522 Q299 534 297.5 540.5 Q296 547 308 553 ZM891 610 Q908 617 936 614 Q964 611 974 603 Q987 592 989 582 Q991 572 984 557 Q975 537 971 537 Q967 537 956.5 514 Q946 491 914 459.5 Q882 428 882 422.5 Q882 417 891.5 400 Q901 383 893.5 377 Q886 371 844 365 Q810 359 771 344 Q732 329 722 317 Q718 310 702.5 316 Q687 322 666 323 Q635 326 620.5 347.5 Q606 369 579 452 Q544 557 555 557 Q557 557 561 554 Q567 548 613 540 L658 532 L705 544 Q800 571 816 585 Q824 593 839 594.5 Q854 596 863 600 L891 610 ZM806 515 Q806 516 804 516 Q802 516 795 514.5 Q788 513 776.5 509.5 Q765 506 746 499 Q702 485 692.5 474 Q683 463 690 434 Q695 407 698.5 405 Q702 403 719 406 Q730 407 735 412 Q740 417 744 431 Q753 453 779.5 482 Q806 511 806 515 ZM298 666 Q323 681 329.5 689 Q336 697 350.5 705.5 Q365 714 366 714 Q369 714 386.5 704 Q404 694 411 688 Q469 635 469 627 Q469 621 444.5 612.5 Q420 604 410 609 Q401 611 371 609 Q341 607 329 602 Q317 597 295 597 Q273 597 243 588 Q208 575 207 581 Q207 582 207 586 Q207 593 237.5 620.5 Q268 648 298 666 Z" /><glyph glyph-name="uni7AD9" unicode="&#x7ad9;" d="M169 280 Q173 286 185 284.5 Q197 283 203 276 Q211 268 211 233 Q211 198 214.5 195 Q218 192 231 206 Q288 276 295 275 Q298 275 298 268 Q298 263 270.5 208 Q243 153 236 146 Q233 142 229 126 Q225 107 218.5 104 Q212 101 197 109 Q179 121 166 126 Q156 132 154 137.5 Q152 143 155 165 Q162 268 169 280 ZM352 332 Q362 335 379.5 334 Q397 333 401 331 Q415 322 408 277.5 Q401 233 380 196 Q362 165 373 165 Q382 165 415 182 Q442 193 448 193 Q452 193 453.5 189 Q455 185 452.5 179.5 Q450 174 446 172 Q431 167 455 151 Q459 150 463 147 Q464 146 469 144 Q484 136 489.5 122.5 Q495 109 509 38 Q512 25 513 18 Q518 -3 515 -30 Q512 -57 505.5 -57 Q499 -57 477.5 -43 Q456 -29 448 -19 Q439 -10 432 56 Q427 111 427 123.5 Q427 136 431 149 Q434 157 431.5 158.5 Q429 160 420 157 Q399 151 374.5 136.5 Q350 122 341 109 Q330 93 295.5 76 Q261 59 245 45.5 Q229 32 189 3 L135 -38 Q110 -56 110 -43 Q110 -38 104 -38 Q98 -38 84.5 -26.5 Q71 -15 74 2 L77 17 L95 10 Q110 3 120.5 8 Q131 13 193 55 Q256 95 284 112 L310 128 L329 198 Q345 268 345 298.5 Q345 329 352 332 ZM246 632 Q247 634 248 635.5 Q249 637 253 636.5 Q257 636 262.5 634 Q268 632 280 627 Q303 618 312 618 Q345 618 344 500 L343 450 L359 454 Q393 461 403 460 Q413 459 422 448 Q434 437 429 429.5 Q424 422 399 413 Q375 406 336 388 Q305 374 265 359.5 Q225 345 215 345 Q205 345 165.5 359.5 Q126 374 126 378 Q126 385 140 388 Q154 391 171.5 396 Q189 401 218 405 Q287 417 287 423 Q287 426 280 438 Q264 461 253.5 524.5 Q243 588 246 632 ZM568 668 Q666 672 658 650 Q658 647 655 646 Q649 637 650 618 Q651 599 647.5 580.5 Q644 562 642.5 527.5 Q641 493 635.5 443.5 Q630 394 632 380 L635 366 L676 392 Q718 420 736 430 L772 451 Q792 462 809 473 Q831 492 851 482 Q859 478 873 471 Q887 464 900 452 Q908 444 909 440.5 Q910 437 904 426 Q897 410 889 410 Q875 410 798 395 Q768 389 717.5 365.5 Q667 342 651 335 Q635 328 631 319 Q628 312 626 239.5 Q624 167 627 160.5 Q630 154 658 164 Q686 174 747.5 190 Q809 206 810.5 209.5 Q812 213 819 211 Q826 209 832 213 Q838 217 859 218.5 Q880 220 883 211.5 Q886 203 895 204.5 Q904 206 915 202 Q942 193 904 151 Q882 128 882 123.5 Q882 119 866 97 Q852 77 831 35 Q810 -7 810 -14 Q810 -21 800.5 -42 Q791 -63 786.5 -63 Q782 -63 773.5 -54 Q765 -45 730 -41.5 Q695 -38 659.5 -50.5 Q624 -63 610.5 -63 Q597 -63 582 -68.5 Q567 -74 548 -66 Q513 -52 547 -45 Q558 -40 581 -38 Q677 -25 712 -7 Q723 0 743 0 Q761 0 768 12 Q775 24 788 74 Q793 100 796 113 Q799 126 799.5 134.5 Q800 143 799 146 Q798 149 793 149 Q781 149 725.5 137 Q670 125 646 116 Q617 105 578.5 101.5 Q540 98 525 104 Q506 111 533 121 Q540 123 548 126 Q576 135 582 140.5 Q588 146 583 160 Q579 177 576.5 260 Q574 343 573 353 Q572 363 578 448 Q583 507 582.5 526 Q582 545 576 567 Q562 626 537 647 Q516 664 548 667 Q557 668 568 668 Z" /><glyph glyph-name="uni7B7E" unicode="&#x7b7e;" d="M549 169 Q588 180 607 141 Q615 127 615 123 Q615 119 610 114 Q599 103 587 83.5 Q575 64 550 49 Q507 25 540 22 Q543 22 549 22 Q588 22 621 16 Q654 10 661 2 Q669 -8 680 -14 Q702 -21 671 -25 Q658 -28 640 -28 Q602 -28 572 -17 Q552 -8 537 -6.5 Q522 -5 481 -6 Q419 -9 392 -21 Q333 -44 259 -44 Q237 -44 213.5 -34 Q190 -24 190 -15 Q190 1 257 1 Q301 1 301 5.5 Q301 10 290 19 Q279 28 275.5 51.5 Q272 75 263 102 Q257 123 260.5 139.5 Q264 156 278 156 Q287 156 302.5 139 Q318 122 326 102 Q334 83 347 62.5 Q360 42 363 26 Q367 15 371.5 13.5 Q376 12 394 17 Q408 22 449 25 L491 28 L516 75 Q540 119 540 142.5 Q540 166 549 169 ZM396 168 Q403 175 407 175 Q411 175 422 169 Q438 160 443.5 142.5 Q449 125 452 83 L458 40 L441 42 Q401 48 392 95 Q383 129 384 143 Q385 157 396 168 ZM467 261 Q510 268 527 252 Q536 245 553 238 L569 230 L553 229 Q536 227 530.5 219.5 Q525 212 483 210 Q415 203 376 191 Q348 181 325 185 Q302 189 298 203 Q297 211 301 215 Q305 219 322 222 Q348 229 395 242.5 Q442 256 467 261 ZM513 426 Q516 485 525 492.5 Q534 500 540 500 Q545 500 558.5 486.5 Q572 473 572 469 Q572 464 584 435 Q592 416 593 409 Q594 402 588 393 Q578 377 556 367 Q534 357 523 361 Q513 366 511.5 373.5 Q510 381 513 426 ZM401 627 Q401 636 403.5 639.5 Q406 643 418 643 Q435 644 447.5 636.5 Q460 629 479 604 Q493 586 496.5 577.5 Q500 569 499 558 Q494 544 496.5 543 Q499 542 507 544 Q522 550 531.5 554.5 Q541 559 575 574 L646 605 Q683 623 687.5 623 Q692 623 708 609 L723 597 L710 589 Q692 577 652 560.5 Q612 544 591 539 Q561 531 523 503 L486 473 L468 488 Q449 503 449 508 Q449 513 441 523 Q435 528 430 529 Q425 530 411 526 Q380 513 348.5 497.5 Q317 482 317 478 Q317 473 331 464 Q345 455 345 437 Q345 419 348 400 Q352 389 355.5 386 Q359 383 375 384 Q390 384 394 382.5 Q398 381 399.5 374 Q401 367 405.5 365.5 Q410 364 428 361 Q461 361 543 327.5 Q625 294 673 261 Q704 238 709 238 Q714 238 758 214 Q792 195 819 188 Q846 181 908 175 Q931 173 951.5 163 Q972 153 972 145 Q972 133 929.5 130 Q887 127 834 134.5 Q781 142 756 156 Q735 166 655.5 219 Q576 272 573.5 272 Q571 272 553 285 Q536 296 496 315 Q456 334 442.5 334 Q429 334 416 342 Q403 350 398.5 350 Q394 350 316 273 Q129 86 113 81 Q105 79 80.5 54.5 Q56 30 46 14 Q40 3 36 12 Q24 25 32 41 Q40 57 74 90 L152 169 Q183 203 201 220 Q239 254 292 313 Q345 372 344 377 Q341 388 329 388 Q302 389 288.5 397.5 Q275 406 267 432 Q259 450 252 450 Q245 450 201 431 Q149 404 140 401.5 Q131 399 125 403 Q113 411 111 478.5 Q109 546 110 572 Q113 589 115 593 Q117 597 128 597 Q141 597 170 563 L197 527 L191 498 Q185 469 186 467.5 Q187 466 203.5 474 Q220 482 245 493 L303 520 Q336 535 356 542 Q376 549 399 561 Q417 569 419 573 Q421 577 417 589 Q410 605 405.5 608.5 Q401 612 401 627 Z" /><glyph glyph-name="uni7CFB" unicode="&#x7cfb;" d="M234 59 Q261 72 275 46 Q285 25 285 -8.5 Q285 -42 274 -50 Q264 -56 259 -48 Q254 -40 227 -39 Q200 -38 188.5 -47 Q177 -56 172 -56 Q167 -56 161 -47 Q156 -35 164 -15 Q170 1 194 25.5 Q218 50 234 59 ZM643 90 Q647 95 679 95 Q716 95 764.5 79 Q813 63 842.5 43 Q872 23 862 12 Q849 -4 787.5 7 Q726 18 692 43 Q675 54 670 54 Q663 54 651.5 69.5 Q640 85 643 90 ZM418 531 Q445 552 453 553.5 Q461 555 478.5 546 Q496 537 510 537 L520 536 Q518 536 516 533 Q505 532 505 515.5 Q505 499 488.5 489.5 Q472 480 444 456 Q416 432 384 411 Q326 374 326 362 Q326 359 346 365 Q366 371 401.5 384.5 Q437 398 480 414 Q532 434 561.5 463 Q591 492 609 488 Q626 487 641 475.5 Q656 464 657 454 Q658 444 632.5 429 Q607 414 559.5 369.5 Q512 325 488 312 Q431 281 388 237 Q370 216 347 201 Q340 199 335 195 Q330 191 328 188 Q326 185 327 184 Q329 183 406.5 214 Q484 245 546 264 Q609 282 618 289 Q627 296 619 314.5 Q611 333 612 336 Q613 339 626 342 Q640 346 688 317 Q768 268 736 253 Q719 245 699.5 246 Q680 247 674 256 Q666 265 652 262.5 Q638 260 593 241 L525 212 Q517 208 515 203.5 Q513 199 517 179 Q521 153 520 38 Q518 -51 513.5 -79.5 Q509 -108 493 -113 Q481 -116 440.5 -92.5 Q400 -69 376 -44 Q334 -3 351 -6 Q355 -6 358 -7 Q371 -12 443 -26 L459 -27 L459 72 Q459 172 456 177.5 Q453 183 416 165 Q379 147 338.5 136.5 Q298 126 283 119 Q274 116 269 117.5 Q264 119 256 128 Q230 166 248 188 Q259 204 306 241 Q329 258 357.5 283.5 Q386 309 405 327.5 Q424 346 422 346 Q420 346 351 320 Q281 293 256.5 287 Q232 281 224 289 Q194 318 210 351 Q221 369 225.5 369 Q230 369 285 420 Q340 471 363 488 L418 531 ZM437 694 Q459 712 475 709 Q518 701 532 661 Q538 631 532 631 Q524 631 524 626 Q524 620 533 620 Q540 620 540.5 618.5 Q541 617 532 610 Q520 602 508 602 Q496 602 488.5 594 Q481 586 468.5 581.5 Q456 577 433 562.5 Q410 548 395 548 Q380 548 329 520 Q218 456 177 448 Q159 444 149 442 Q137 436 136 455 Q136 464 141 477 Q148 492 174 514.5 Q200 537 209 539 Q217 539 253 564 Q394 661 437 694 Z" /><glyph glyph-name="uni7F51" unicode="&#x7f51;" d="M368 365 Q387 355 395 355 Q403 355 433.5 401 Q464 447 472.5 450 Q481 453 488 450 Q499 445 514 429.5 Q529 414 529 410 Q529 403 508 383 Q491 368 475 347.5 Q459 327 459 321 Q459 319 487 293 Q516 261 503 258 Q494 258 495 250 Q495 246 491.5 244 Q488 242 478 240 Q459 239 436 257 L414 274 L394 250 Q312 148 298 153 Q293 155 291 162 Q285 184 333 250 Q363 295 365.5 300.5 Q368 306 335 328.5 Q302 351 299 358 Q295 369 313 373 Q340 379 368 365 ZM180 564 Q187 571 190 571 Q195 571 219.5 548.5 Q244 526 257 510 L275 484 L275 400 Q279 78 270 33 Q263 -3 263 -16 Q263 -29 251 -38 Q244 -47 241.5 -47 Q239 -47 233 -41 Q225 -33 226.5 26 Q228 85 235 127 Q240 160 240 207 Q240 254 232 380 L226 463 L205 495 Q181 531 177 544 Q173 557 180 564 ZM342 611 Q401 625 423.5 626 Q446 627 463.5 631.5 Q481 636 549.5 642 Q618 648 640.5 652 Q663 656 677.5 653 Q692 650 734 646.5 Q776 643 800 628 L824 613 L824 552 Q823 492 818 482 Q813 468 811.5 286 Q810 104 816 92 Q821 82 819 29 Q817 -24 810 -36 Q802 -52 793.5 -55 Q785 -58 769 -50 Q748 -40 719 -19.5 Q690 1 690 2 Q690 6 725.5 7.5 Q761 9 765 15 Q771 19 774.5 134.5 Q778 250 774 261 Q771 270 760 257 Q739 229 670 264 Q629 284 624.5 284 Q620 284 603.5 260 Q587 236 562 213.5 Q537 191 531 176 L524 160 L519 174 Q513 190 516 199 Q519 208 538 247 Q564 293 564 298 Q564 303 541 314 Q530 320 524.5 325 Q519 330 519 334 Q519 338 524 342 Q530 345 565 345 L599 345 L613 369 Q627 393 637.5 405.5 Q648 418 652.5 427 Q657 436 681 430 Q705 424 713 415 Q719 408 717.5 404.5 Q716 401 704 390 Q646 338 657 327 Q660 324 669 321 Q683 319 725.5 298 Q768 277 772 275 Q774 274 774.5 284.5 Q775 295 775 313 Q775 331 774 352 Q771 432 775 470 Q781 502 776.5 546 Q772 590 762 604 Q755 617 734 617 Q713 617 692 622 Q671 627 649.5 619 Q628 611 608.5 611 Q589 611 537 593.5 Q485 576 450 571 Q415 566 377 555 Q314 537 292 565 Q277 583 286 591.5 Q295 600 342 611 Z" /><glyph glyph-name="uni8005" unicode="&#x8005;" d="M444 207 Q451 218 456 217 Q461 216 473 201 Q486 184 486 151 Q486 138 486.5 132.5 Q487 127 488 122.5 Q489 118 490.5 119 Q492 120 496 120 Q504 123 551.5 135.5 Q599 148 609 153 Q644 167 666 164.5 Q688 162 688 142 Q688 130 676 124 Q661 117 605 109.5 Q549 102 522 103 L489 106 L489 47 Q489 -13 494 -13 Q499 -13 539 -6 Q637 13 653 -1 Q683 -29 633 -37 Q622 -38 605 -38 Q564 -38 535 -44 Q506 -50 496 -45 Q476 -40 443 5 L426 27 L426 92 Q427 180 444 207 ZM599 271 Q686 293 735 274 Q744 271 750 260 Q756 249 753 242 Q752 236 750 223.5 Q748 211 743 185.5 Q738 160 736.5 28 Q735 -104 729.5 -109 Q724 -114 699 -87 Q660 -45 683 -45 Q685 -45 686 -45 Q696 -45 699 -41.5 Q702 -38 703 -20 Q706 2 704.5 101 Q703 200 700 221 Q697 235 694.5 237 Q692 239 678 236 Q660 233 637.5 232.5 Q615 232 601 225 Q577 214 546 229 Q515 244 531 254 Q534 256 538 256 Q549 258 599 271 ZM468 702 Q476 715 511 701 Q550 685 564 667 Q578 649 578 614 Q578 583 570 557 Q564 538 565 534 Q566 530 573 530 Q583 530 594 542.5 Q605 555 612.5 550 Q620 545 640 545 Q683 545 683 533 Q683 526 688 523 Q692 520 731 564 Q770 608 780 625 L788 642 L805 632 Q821 621 835.5 615.5 Q850 610 847 603 Q844 596 844 586 Q844 576 827.5 567.5 Q811 559 788.5 538 Q766 517 756 509.5 Q746 502 690 446 L634 389 L683 393 Q731 396 771.5 402 Q812 408 851 404 Q914 397 914 383 Q913 376 902 365 L889 352 L846 363 Q801 375 727 375 Q654 375 623 365.5 Q592 356 559 324 Q528 296 499 272 L431 216 Q331 130 296 113 Q244 86 170 15 Q109 -44 93 -44 Q66 -44 130 9 Q221 85 268 128 Q297 156 347 197 Q450 278 482 312 Q506 338 499 337 Q489 333 436.5 318 Q384 303 346 288 Q284 265 232.5 253.5 Q181 242 165 247 Q151 253 130 258.5 Q109 264 107 271 Q102 281 108 287 Q114 293 125 293 Q139 293 141.5 299 Q144 305 161.5 302 Q179 299 235 309 L363 331 Q433 344 473 355 L513 366 L494 383 Q476 400 476 421 L476 440 L458 438 Q417 431 402 431.5 Q387 432 364 443 Q326 460 328 473 Q328 475 331 478 Q335 481 377 485 Q461 494 473 506 Q479 512 479.5 566 Q480 620 475 628 Q468 639 465 666.5 Q462 694 468 702 ZM546 375 Q557 375 557 379 Q557 383 597 426.5 Q637 470 637 472.5 Q637 475 629 474 Q577 470 568 467 Q559 464 552 450 Q541 433 538 404 Q536 383 537.5 379 Q539 375 546 375 Z" /><glyph glyph-name="uni8054" unicode="&#x8054;" d="M786 110 Q793 117 795.5 116 Q798 115 808 107 Q821 96 840 83 Q870 66 879.5 46.5 Q889 27 874 17 Q863 10 863 -4 Q863 -18 853 -18 Q843 -18 840 -12.5 Q837 -7 825 -9 Q812 -12 799.5 0 Q787 12 780 37 Q766 86 786 110 ZM619 503 Q651 514 656 515 Q661 516 664 511 Q668 506 657.5 494.5 Q647 483 647 478.5 Q647 474 631 459 Q615 444 605 425 Q590 392 570 416 Q562 426 555 426 Q546 426 530.5 440.5 Q515 455 515 464 Q515 474 521 492 Q525 506 528 507.5 Q531 509 542 506 Q559 502 571 495.5 Q583 489 619 503 ZM375 534 Q382 538 388.5 536.5 Q395 535 412 525 Q433 513 436.5 505 Q440 497 440 464 Q441 426 427 369 Q420 338 415 282.5 Q410 227 417 222 Q433 210 416 189 Q409 181 408.5 166.5 Q408 152 410 98 Q415 20 418.5 -3 Q422 -26 416 -29.5 Q410 -33 410 -45 Q410 -57 408 -57 Q403 -57 379.5 -32 Q356 -7 350 3 Q346 10 343 27 Q340 44 340 55 Q340 66 343 69 Q347 69 353.5 56.5 Q360 44 365.5 44 Q371 44 367.5 89.5 Q364 135 362 137 Q360 139 314 111 Q252 73 206 53.5 Q160 34 153 41 Q150 45 144 66 Q136 93 146.5 105.5 Q157 118 188 121 Q198 121 200 140.5 Q202 160 200 231 Q199 311 194 343.5 Q189 376 172 406 Q150 453 165 458 Q171 460 199 455 Q227 451 235.5 439 Q244 427 245 394 Q245 357 247 320 L248 282 L265 285 Q282 286 289.5 290 Q297 294 333 297 L370 301 L368 327 L367 353 L342 352 Q317 352 301 348 Q290 345 287 347.5 Q284 350 282 364 Q277 383 262.5 397 Q248 411 251 415 Q256 423 275 423 Q294 423 314 416 Q340 406 356 406 L371 406 L368 467 Q367 509 368.5 519.5 Q370 530 375 534 ZM364 222 Q364 250 360.5 250 Q357 250 319.5 240 Q282 230 265 235.5 Q248 241 245 237.5 Q242 234 240 193.5 Q238 153 241 146 Q242 140 245 140 Q248 140 255 146 Q266 153 301 167 Q349 184 356.5 191 Q364 198 364 222 ZM286 597 Q375 598 396 608 Q417 618 464 616 Q511 614 516 609 Q521 604 517 584 L513 565 L485 566 Q412 569 377 559 Q347 552 329 552 Q311 552 251.5 536.5 Q192 521 174 525 Q156 528 135 540 Q114 552 111 560 Q108 570 97.5 579 Q87 588 87 598 Q87 608 107.5 610 Q128 612 142 605 Q154 598 174.5 597.5 Q195 597 286 597 ZM811 654 Q821 657 836 654 Q850 653 881.5 637.5 Q913 622 913 617 Q913 612 890.5 593 Q868 574 860.5 558 Q853 542 840.5 528 Q828 514 805.5 481 Q783 448 752 418 Q721 388 729.5 386 Q738 384 752 390 L793 405 Q821 416 846 416 Q871 416 878 405 Q885 394 874.5 385.5 Q864 377 828 366 Q753 343 741 334 Q732 328 727.5 288 Q723 248 724 246 Q725 244 756 254.5 Q787 265 811 264 Q826 262 831 260 Q836 258 837 251 Q839 240 827 233 Q815 226 786 220 Q718 205 706 182 Q700 171 696.5 116 Q693 61 686 47 Q671 19 625 19 Q605 19 587.5 12.5 Q570 6 566.5 12.5 Q563 19 552 17 Q534 14 538 27 Q546 51 599 79 Q605 82 611 84 Q639 97 646 103.5 Q653 110 657 122 Q662 142 662 157 Q662 173 652.5 173.5 Q643 174 609 163 Q577 150 563 135 L550 119 L531 140 Q511 161 511 166 Q511 171 523.5 185 Q536 199 550 196 Q559 195 612 208.5 Q665 222 671 226 Q674 230 680 262 Q686 294 686 307 Q688 315 685.5 317.5 Q683 320 675 318 Q664 315 629.5 310.5 Q595 306 588 299.5 Q581 293 570 298.5 Q559 304 546 308 Q529 313 525.5 318.5 Q522 324 528 335 Q542 360 574 352 Q584 350 615.5 355 Q647 360 658 367 Q668 371 675.5 389.5 Q683 408 686 411 Q690 413 726.5 465 Q763 517 772 531 Q783 549 791 601 Q797 633 800.5 643 Q804 653 811 654 Z" /><glyph glyph-name="uni817E" unicode="&#x817e;" d="M603 67 Q643 74 656 57 Q667 43 635 36 Q628 35 618 33 Q590 29 556.5 13 Q523 -3 505.5 -6.5 Q488 -10 469 -20 Q450 -30 427.5 -24 Q405 -18 405 -14 Q405 -10 415 -2.5 Q425 5 435 8 Q450 11 502.5 30 Q555 49 568 54 Q582 61 603 67 ZM610 278 Q652 285 670 277 Q689 269 673 248 Q663 235 654.5 212.5 Q646 190 643 184.5 Q640 179 673 182 Q694 183 701 181 Q708 179 715.5 171.5 Q723 164 725 152.5 Q727 141 729 106 Q730 54 721.5 26 Q713 -2 715 -6 Q717 -10 711.5 -16.5 Q706 -23 708 -30 Q709 -37 701 -38 Q688 -38 677 -27 Q666 -14 653 -14 Q626 -14 659 3 Q675 12 680 25 Q684 40 682 71 Q680 102 674 124 Q670 141 667 145.5 Q664 150 656 148 Q645 147 619.5 129.5 Q594 112 583.5 112 Q573 112 548 99.5 Q523 87 515 87 Q507 87 496 80 Q489 74 485 74.5 Q481 75 470 84 Q439 110 451 119 Q458 124 479 157 Q500 190 500 196 Q500 197 487.5 197 Q475 197 475 201 Q475 213 528.5 243 Q582 273 610 278 ZM607 228 Q607 241 601.5 242 Q596 243 580 235 Q566 227 566 215 Q566 203 549 183 Q513 140 516 127 Q521 127 545 138 Q572 148 589.5 174.5 Q607 201 607 228 ZM373 547 Q376 550 401 550 Q421 550 444 541 Q467 532 477 521 Q484 514 483 510.5 Q482 507 475 498 Q465 486 457.5 485 Q450 484 423 493 Q395 502 378.5 519 Q362 536 373 547 ZM201 593 Q281 620 311 572 Q320 560 313 553 Q306 546 297 509.5 Q288 473 285.5 322 Q283 171 292 130 Q297 94 301.5 42.5 Q306 -9 297 -9 Q285 -9 255 35 Q240 56 244 59 Q247 60 255 49 Q268 33 269 39 Q272 71 262 155 Q258 200 258 229.5 Q258 259 253 262 Q247 263 210 250.5 Q173 238 166 232 Q162 228 149 228 Q128 228 128 182 Q128 155 119 121 Q110 87 100 80 Q83 67 79 73 Q79 74 80 77 Q83 81 71 98 L58 116 L71 122 Q90 130 96 224 Q99 266 92 328 Q85 390 73 418 Q66 441 73 445 Q90 455 113 439 Q128 428 131.5 403 Q135 378 138 379 L187 406 Q233 430 244 430 Q251 430 252.5 436 Q254 442 254 473 Q254 518 257 536 Q260 550 257.5 553 Q255 556 243 556 Q226 556 167 530 L110 505 L86 512 Q75 516 69.5 519 Q64 522 61 525 Q58 528 58.5 530.5 Q59 533 62 537 Q69 542 114.5 560.5 Q160 579 201 593 ZM258 343 Q257 386 248.5 387.5 Q240 389 188 362 L135 336 L136 298 Q138 260 140.5 258 Q143 256 155 263 Q209 298 237 298 L260 298 L258 343 ZM678 586 Q730 635 745 635 Q762 635 770.5 624.5 Q779 614 775 599 Q773 586 767.5 581.5 Q762 577 744 568 Q716 556 693.5 540.5 Q671 525 667.5 525 Q664 525 638 508 Q601 486 601 497 Q601 514 678 586 ZM520 621 Q531 642 550 633 Q569 624 563 599 Q561 582 556.5 552 Q552 522 541 485.5 Q530 449 532 447 Q534 445 579 459 Q624 473 659 480 Q682 484 688.5 484 Q695 484 703 476 Q715 465 709 456.5 Q703 448 685.5 439 Q668 430 656 430 Q642 430 641 425 Q640 420 653 403 Q666 386 675 385.5 Q684 385 715 399 Q761 420 773 397 Q779 388 765.5 376 Q752 364 743 364 Q730 364 708.5 357.5 Q687 351 687 347 Q687 343 702 329 L750 285 L828 211 Q874 166 900.5 154.5 Q927 143 937 130 Q943 120 943 116.5 Q943 113 937 108 Q926 98 895 99.5 Q864 101 843 113 Q806 134 782 171 Q775 182 745 220.5 Q715 259 707 270 Q699 281 670 313 L640 344 L612 334 L535 308 L488 290 L470 242 Q442 172 410.5 119.5 Q379 67 365 67 Q360 67 358 80 Q355 89 360 100.5 Q365 112 394 168 Q421 217 421 224.5 Q421 232 426 243 Q436 260 419 253 Q409 250 393 241 Q369 227 362 225.5 Q355 224 342 229 Q324 238 324 245 Q324 252 386 283 L449 312 L453 340 Q458 369 456 370.5 Q454 372 439.5 367 Q425 362 402 369 Q360 382 401 400 Q412 404 429 411 Q467 423 470 427 Q472 431 482.5 469 Q493 507 499 537 L503 560 Q503 563 507.5 585 Q512 607 520 621 ZM617 396 Q600 414 591 414 Q577 413 543.5 399.5 Q510 386 507 379 Q503 369 501 359.5 Q499 350 499.5 344.5 Q500 339 503 339 Q513 339 569 355.5 Q625 372 632 378 Q632 378 630 380.5 Q628 383 624.5 387.5 Q621 392 617 396 Z" /><glyph glyph-name="uni884C" unicode="&#x884c;" d="M213 308 Q229 315 233 314.5 Q237 314 244 303 Q253 290 254 190 Q255 90 260 84 Q262 79 258.5 64 Q255 49 250 49 Q244 49 220 73 L198 98 L198 301 L213 308 ZM736 445 Q813 451 883.5 449 Q954 447 962 438 Q982 420 950 408 Q920 398 867 410 Q841 419 803 419 Q765 419 758 412 Q752 406 751 360 Q748 188 741 118 Q736 72 740.5 63.5 Q745 55 745 34 Q744 -36 752 -60 Q757 -73 744 -73 Q734 -74 724 -63 Q713 -52 709.5 -54 Q706 -56 699 -49 Q688 -35 647 -22 Q632 -18 632 -5 Q632 3 636 4.5 Q640 6 666 4 L698 3 L702 32 Q705 60 705 179 Q705 298 701 328 Q698 357 684 380 Q673 396 668.5 399 Q664 402 650 399 Q632 396 540 366 Q472 343 457 339.5 Q442 336 426 342 Q407 349 388.5 361 Q370 373 370 378.5 Q370 384 405 387.5 Q440 391 503 406 Q619 436 736 445 ZM94 329 Q153 375 193.5 414.5 Q234 454 251.5 466 Q269 478 276 476.5 Q283 475 294.5 454 Q306 433 300.5 417.5 Q295 402 284.5 398.5 Q274 395 254 382 L219 359 Q202 349 172.5 325 Q143 301 115 287 Q87 273 75 265 Q65 258 54.5 254.5 Q44 251 37 251.5 Q30 252 30 258 Q30 270 41 282 Q52 294 94 329 ZM737 618 Q762 622 768.5 622.5 Q775 623 792.5 615.5 Q810 608 807 598 Q804 588 795.5 588 Q787 588 775.5 579.5 Q764 571 729 564 Q629 546 591.5 549.5 Q554 553 503 585 Q492 594 516 598 Q535 604 572 604 Q652 604 737 618 ZM283 665 Q290 671 293 671 Q296 671 306 662 Q351 626 352 602 Q352 594 344 594 Q328 594 260 567 Q220 552 213 557.5 Q206 563 195.5 557.5 Q185 552 166 559 L146 566 L162 585 Q177 604 201 615 Q265 647 283 665 Z" /><glyph glyph-name="uni8981" unicode="&#x8981;" d="M533 652 Q614 659 651 655.5 Q688 652 697 636 Q700 629 700.5 624 Q701 619 695.5 616.5 Q690 614 679.5 612.5 Q669 611 651 611 Q611 611 611 608 Q611 605 624 600 Q634 594 636 582 Q638 570 631 558 Q625 548 628 545 Q631 542 673.5 552.5 Q716 563 749 563 L781 562 L782 530 Q782 507 780 501 Q778 495 770 486 Q756 477 748 458.5 Q740 440 710.5 390.5 Q681 341 674 324 Q667 307 656 307 Q648 307 636.5 319.5 Q625 332 625 342 Q625 351 616 359 Q607 367 584.5 362.5 Q562 358 519 349 Q495 345 474 338.5 Q453 332 441 326 Q429 320 432 316 Q435 311 442 311 Q449 311 467 302 Q478 295 480.5 290.5 Q483 286 480 276 Q476 262 470 251 Q464 240 467.5 236.5 Q471 233 511 237 Q551 241 557 246 Q562 251 595 250.5 Q628 250 686 255.5 Q744 261 805 265 Q849 267 865.5 265.5 Q882 264 919 253 Q974 236 978 238.5 Q982 241 991 232 Q1013 206 971 198 Q921 188 861 216 Q830 229 804 231 Q778 233 709 227 Q639 220 626.5 216.5 Q614 213 609 199 Q602 181 597 178.5 Q592 176 583 149 Q567 101 546 87 Q536 79 536 75 Q536 68 566 52.5 Q596 37 617 31 Q649 26 693 3 Q737 -20 749 -20 Q761 -20 764.5 -36.5 Q768 -53 764 -57 Q760 -61 708 -57 Q670 -55 662.5 -53 Q655 -51 651 -40 Q645 -26 622 -11.5 Q599 3 575 9 Q548 15 527 24 Q511 31 505 31 Q499 31 484 26 Q462 16 452 5 Q439 -11 421.5 -15 Q404 -19 369 -15 Q326 -12 287 -9 L242 -6 Q238 -5 238 -2 Q238 9 303 24 L362 40 Q382 45 402 45 Q422 45 436 52 L452 58 L418 75 Q383 92 379 101 Q375 110 371.5 138 Q368 166 364 169 Q359 171 320.5 163.5 Q282 156 268 150 Q257 145 206 134.5 Q155 124 133 121 Q89 117 28 143 Q11 150 6 155 Q1 160 1 169 L1 183 L71 183 Q140 181 187 191 Q247 202 366 219 L389 222 L403 267 L418 313 L394 310 Q371 307 354.5 313.5 Q338 320 334 313 Q330 304 312 304 Q294 304 278 311 Q260 321 246 346.5 Q232 372 207 404 Q163 458 153.5 471.5 Q144 485 147 492 Q149 507 168 508.5 Q187 510 243 498 Q267 492 299 499.5 Q331 507 350 507 Q369 507 371 511.5 Q373 516 368 537 Q365 549 361 554 Q357 559 345 562 Q252 589 260 610 Q263 618 310 621 Q357 624 410.5 634.5 Q464 645 533 652 ZM553 575 Q555 603 552.5 607 Q550 611 530 604 Q518 600 487.5 591 Q457 582 443 575 Q432 569 431.5 567.5 Q431 566 439 561 Q449 554 452 540 L455 527 L499 530 Q543 533 546.5 537 Q550 541 553 575 ZM684 520 L663 521 Q628 523 618.5 514.5 Q609 506 585 458 Q550 388 558 388 Q560 388 562 388 Q569 391 611 398 L652 405 L667 435 Q683 465 683 493 L684 520 ZM546 498 Q546 500 543.5 501.5 Q541 503 535.5 502.5 Q530 502 521.5 500.5 Q513 499 501 495 Q463 485 458 474.5 Q453 464 457 411 L462 377 L477 377 Q491 377 496.5 381.5 Q502 386 511 400 Q518 412 532 451.5 Q546 491 546 498 ZM392 458 Q389 463 383 463 Q282 451 280 444 Q278 439 292 412 L313 372 L322 356 L362 358 Q403 360 408 363 Q411 366 404 407.5 Q397 449 392 458 ZM548 195 Q546 199 535.5 199 Q525 199 487 195 Q456 191 442.5 180 Q429 169 429 146 Q429 125 437 119.5 Q445 114 492 103 Q504 100 515 121 Q553 188 548 195 Z" /><glyph glyph-name="uni89E3" unicode="&#x89e3;" d="M540 429 L566 418 Q593 408 596.5 403.5 Q600 399 597 384 Q591 350 552 312.5 Q513 275 485 275 Q467 275 464 287 Q458 308 492 349 L517 380 Q524 388 524 390 Q524 392 533 411 L540 429 ZM687 415 Q685 430 686.5 434.5 Q688 439 694 439 Q703 439 726 423 Q747 411 752.5 410 Q758 409 769 418 Q779 426 814 425 Q836 422 843 420 Q850 418 853 411 Q857 399 850 394.5 Q843 390 822 387 Q799 385 779 376 Q765 369 761.5 364 Q758 359 757 343 Q752 322 757 304 Q758 292 761 289 Q764 286 772 286 Q785 289 826 290.5 Q867 292 882.5 300 Q898 308 916 300.5 Q934 293 955 293 Q972 293 980.5 286.5 Q989 280 988 269 Q983 247 919 257 Q883 262 841 264 Q799 266 794 262.5 Q789 259 771 254 L752 247 L747 184 Q740 119 736.5 28 Q733 -63 729.5 -70.5 Q726 -78 730 -114 Q737 -169 720 -166 Q713 -165 702 -148 Q695 -135 694.5 -127.5 Q694 -120 699 -86 Q709 -29 708 163 Q703 230 698 230 Q688 226 654.5 217 Q621 208 614 203 Q598 191 512 168 Q475 160 454 167 Q429 174 422.5 178 Q416 182 415 194 Q414 202 418.5 204 Q423 206 451 206 Q489 206 541 222 Q696 268 703 268 Q706 268 706 277 Q706 286 704 299.5 Q702 313 699 325 Q694 343 691 346.5 Q688 350 673 350 Q640 352 621 363 Q604 374 610.5 381 Q617 388 633 385.5 Q649 383 668 387 L688 391 L687 415 ZM685 657 Q702 677 707.5 680.5 Q713 684 726 682 Q744 679 754 670 Q761 664 761 660.5 Q761 657 755 649 Q747 635 729.5 623.5 Q712 612 677 582 Q642 552 585 512 Q528 472 514 460 Q496 446 496 451 Q496 458 519 478 Q540 496 600 560.5 Q660 625 685 657 ZM293 667 Q288 674 306.5 683.5 Q325 693 334.5 689 Q344 685 362 685 Q379 685 401 678.5 Q423 672 429.5 666.5 Q436 661 429.5 650.5 Q423 640 411 635 L346 601 Q316 586 314.5 581.5 Q313 577 331 570 Q351 563 369.5 547.5 Q388 532 395 517 Q405 499 400 475 Q387 420 383 384.5 Q379 349 376 275 Q373 180 372 177 Q369 173 375 114 Q381 55 387 38 Q390 24 392 17 Q394 10 393.5 6 Q393 2 390.5 1 Q388 0 383 2 Q374 3 344 49.5 Q314 96 314 108 Q313 115 315 115 Q317 115 325 107 Q337 97 338 97 Q341 97 341 135.5 Q341 174 339.5 214 Q338 254 337 255 Q332 259 290 251.5 Q248 244 241 238 Q234 233 233 220.5 Q232 208 233 164 Q234 96 225 96 Q219 96 202 117 Q191 131 189.5 137 Q188 143 191 160 Q205 223 199 229 Q197 231 171 223.5 Q145 216 124.5 211 Q104 206 98 204 Q92 202 92 185 Q93 154 88 85 Q83 16 80 12 Q76 6 69 6 Q61 6 48.5 34 Q36 62 38 73 Q52 122 72 352 Q76 406 75.5 425 Q75 444 64 476 L57 500 L75 497 Q92 495 101.5 484.5 Q111 474 111 460 Q111 446 117.5 440 Q124 434 117 414 Q110 394 112.5 391 Q115 388 160 397 Q197 405 201.5 411.5 Q206 418 201 455 L197 478 L220 474 Q264 465 275 437 Q279 427 283.5 425 Q288 423 302 425 Q323 427 330 422 Q332 419 333 425.5 Q334 432 332 455 Q327 511 312 526 Q297 541 265 521 Q241 507 197 506 Q159 503 126 510 Q93 517 79 531 Q68 542 85 546 Q96 551 128 556 Q192 569 208.5 575 Q225 581 246 602 Q283 642 290 651.5 Q297 661 293 667 ZM337 381 L313 381 Q290 383 272.5 374.5 Q255 366 253 353 Q237 297 241 292 Q243 289 255 295 Q267 301 302 297.5 Q337 294 339.5 297 Q342 300 339 341 L337 381 ZM204 331 Q202 357 197 360 Q192 363 160 352 Q129 342 121 345 Q113 348 108 342 Q104 338 100.5 296 Q97 254 100 251 Q101 250 153 262 Q188 272 196.5 276 Q205 280 205 287 Q205 297 204 331 ZM162 728 Q181 744 189 747.5 Q197 751 211 748 Q230 745 249 724 Q268 703 271 693 Q274 686 268 678.5 Q262 671 254 671 Q247 671 218.5 654 Q190 637 162.5 622.5 Q135 608 127 602 Q96 580 51 577 Q27 576 21.5 577.5 Q16 579 13 586 Q9 597 34 619 Q86 665 162 728 ZM674 761 Q752 766 792 762 Q815 759 824.5 755 Q834 751 852 733 Q877 706 877 692.5 Q877 679 855.5 635 Q834 591 820 574 Q807 560 794.5 531 Q782 502 782 488 Q782 479 771.5 469.5 Q761 460 751 460 Q745 460 732.5 471.5 Q720 483 725 492.5 Q730 502 721 522 Q712 542 712 544 Q712 544 714 542.5 Q716 541 721 539 Q726 537 731 534 Q751 524 758 525 Q766 530 791.5 594 Q817 658 818 681 Q820 700 817.5 705 Q815 710 802.5 717 Q790 724 784.5 725 Q779 726 762 719 Q738 712 711.5 708.5 Q685 705 664 696 Q645 688 610.5 683.5 Q576 679 552 682.5 Q528 686 506 709 Q468 752 502 756 Q517 756 539 751.5 Q561 747 592.5 752.5 Q624 758 674 761 Z" /><glyph glyph-name="uni8BB0" unicode="&#x8bb0;" d="M165 413 Q171 420 213 420 Q250 421 264 414.5 Q278 408 276 392 Q271 379 261.5 368.5 Q252 358 252 351.5 Q252 345 240 318 Q228 291 222.5 261.5 Q217 232 211.5 207 Q206 182 209.5 144.5 Q213 107 213 74 L211 42 L222 51 Q235 64 260 99.5 Q285 135 302 166 Q320 201 326 201 Q327 201 332 197 Q347 176 319 114 Q304 82 295.5 59 Q287 36 275.5 18.5 Q264 1 257 -21 Q252 -35 248.5 -40 Q245 -45 235 -45 Q221 -48 207.5 -32.5 Q194 -17 189 -17 Q183 -17 174 1 Q165 19 164 33 Q162 46 161 179 Q158 306 151 306 Q143 301 137 294 Q126 280 63 298 Q19 310 19 319 Q19 323 12 331 Q4 340 8 345.5 Q12 351 25 351 Q39 351 59 359 Q85 369 123.5 388.5 Q162 408 165 413 ZM696 562 Q724 567 765 564.5 Q806 562 819 557 Q834 550 839 531 Q844 512 833 501 Q822 490 811.5 455 Q801 420 786 399 Q771 378 771 371 Q771 364 761 341 Q756 330 751.5 326 Q747 322 742 322 Q738 323 735.5 320 Q733 317 733 309 Q733 278 710 302 Q701 312 692.5 312.5 Q684 313 645 310 Q592 306 572 299 L553 292 L551 245 L547 165 Q546 137 551 100 Q556 63 563 51 Q567 44 581 43 Q595 42 658 43 Q749 44 773.5 49 Q798 54 823 58.5 Q848 63 858 67 Q873 72 878 131 Q880 161 887 165 Q894 170 904.5 162 Q915 154 922 135 Q936 98 974 72 L994 60 L974 51 Q955 44 939 36 Q914 23 761 8 Q718 4 679 -9 Q614 -30 574 -13 Q533 4 518.5 18 Q504 32 499 55.5 Q494 79 494 142 Q493 253 476 313 Q469 338 471 348 Q473 358 473 360 Q473 362 483 354 Q495 343 519.5 343.5 Q544 344 596 358 Q661 376 680 376 Q694 376 699 381 Q704 386 718 415 Q736 455 746 488 Q754 519 749.5 524.5 Q745 530 715 520 Q693 512 684.5 512 Q676 512 662 504.5 Q648 497 635.5 497 Q623 497 590 486.5 Q557 476 531 478.5 Q505 481 482 491.5 Q459 502 459 511 Q459 520 452 526 Q446 532 460 534 Q472 537 509 540 Q585 544 696 562 ZM180 631 Q180 645 183 645 Q189 644 224 635.5 Q259 627 271 621 Q281 617 289.5 602.5 Q298 588 298 574 Q298 562 285.5 535 Q273 508 267 505 Q248 492 229 536 Q217 562 200 589 Q183 616 180 631 Z" /><glyph glyph-name="uni8BF7" unicode="&#x8bf7;" d="M770 324 Q786 330 793 328.5 Q800 327 810 320 Q824 309 838 309 Q852 309 856.5 300.5 Q861 292 858.5 226 Q856 160 861 133 Q866 106 862 100 Q851 89 863 50 Q870 30 871.5 -13.5 Q873 -57 877 -76 Q889 -124 875 -142 Q869 -149 867.5 -149 Q866 -149 861 -142 Q854 -132 853 -126 Q852 -120 827 -90 Q789 -44 806 -48 Q810 -50 820 -57 Q830 -64 834 -64 Q838 -64 838 1.5 Q838 67 834 69 Q828 72 779 60 Q730 48 715 53 Q700 58 695 62 Q694 64 700.5 68 Q707 72 718.5 78.5 Q730 85 743.5 91 Q757 97 771.5 103 Q786 109 798 111 L827 120 L827 141 Q827 162 830 169 Q833 176 826 186 Q821 191 818.5 191 Q816 191 807 184 Q798 177 765 166 Q732 155 705 151 Q687 148 682 139 Q677 130 680 58 Q684 -58 663 -58 Q658 -58 631 -33 Q611 -15 607.5 -8 Q604 -1 604 19 Q604 75 614 140 Q624 205 635 222 Q642 235 658 230 Q676 226 681.5 219 Q687 212 687 193 Q687 167 693 167 Q695 169 698 173 Q702 179 743.5 192 Q785 205 802 205 L824 207 L824 235 Q823 265 817.5 276.5 Q812 288 796 291 Q786 293 776.5 289 Q767 285 744 270 Q704 243 692 237.5 Q680 232 673 239 Q665 247 671 257 Q677 267 716.5 293.5 Q756 320 770 324 ZM133 323 Q177 338 200 314 Q211 302 211.5 290.5 Q212 279 203 221 Q200 202 199 166 Q198 130 199 101 Q200 72 203 72 Q211 72 316 230 Q336 258 336 242 Q336 225 317 191 Q305 170 299 151 L289 110 Q284 90 258.5 40 Q233 -10 231 -19.5 Q229 -29 207.5 -29 Q186 -29 166 -12 L148 5 L147 81 Q147 155 145.5 170.5 Q144 186 143 212.5 Q142 239 137.5 239 Q133 239 112 226 Q93 214 61 212.5 Q29 211 14 221 Q-6 233 4 237 Q7 239 8 239 Q15 239 18 246 Q21 251 69 284 Q117 317 133 323 ZM688 722 Q693 729 715 723.5 Q737 718 749 708 Q771 687 757 660 Q750 649 756.5 645 Q763 641 775 649 Q785 655 810 658.5 Q835 662 856 660.5 Q877 659 877 652.5 Q877 646 853.5 635.5 Q830 625 807 621 Q777 615 768.5 609 Q760 603 758 583 Q754 527 758 526 Q760 526 767 527 Q805 534 836.5 534 Q868 534 868 526 Q868 522 848 501.5 Q828 481 805 478 L772 474 Q763 473 755 456.5 Q747 440 744 418 L740 389 L763 393 Q785 396 814 403 Q844 411 900 415 Q956 419 961 414.5 Q966 410 976.5 410 Q987 410 994 405 Q1009 396 984 375 Q959 355 942 363 Q926 370 862 377 Q840 380 805 370.5 Q770 361 753 358 Q736 355 721.5 344.5 Q707 334 672.5 320 Q638 306 623 291 Q604 274 544.5 248 Q485 222 467 223 Q456 223 433 236.5 Q410 250 410 256 Q410 263 456 278 Q502 293 536 306 L609 334 Q649 349 665 355 Q680 359 680.5 364 Q681 369 672 387 Q662 405 662 418 Q662 424 660 426.5 Q658 429 653.5 429 Q649 429 642 426.5 Q635 424 623 417 Q555 382 537 387 Q529 389 512 404 Q495 419 495 425 Q495 428 509 428 Q523 428 578.5 454 Q634 480 647 483.5 Q660 487 666 492 Q669 496 670.5 515 Q672 534 672 551 Q672 568 669 566 Q663 565 650.5 562 Q638 559 624.5 549.5 Q611 540 569 524 Q540 515 531.5 513.5 Q523 512 512 517 Q498 524 484.5 527 Q471 530 459 540 L448 550 L467 552 Q515 561 592 582.5 Q669 604 673 611 Q676 615 681 665.5 Q686 716 688 722 ZM166 740 Q168 747 172.5 747 Q177 747 183 740 Q189 733 196 736 Q203 739 203 733 Q203 727 231 706 Q259 685 267 670 Q271 662 278 596 Q285 530 281 527 Q280 526 256.5 525 Q233 524 229.5 519.5 Q226 515 220.5 519.5 Q215 524 203 527 Q191 530 187 538.5 Q183 547 182 572 Q180 589 175 596 Q170 603 166 624 Q154 694 159.5 701 Q165 708 165.5 721 Q166 734 166 740 Z" /><glyph glyph-name="uni8D5E" unicode="&#x8d5e;" d="M583 201 Q587 207 595 205 Q603 203 611.5 196 Q620 189 620 180 Q620 175 598 128 Q576 81 566 64 Q558 51 550.5 33.5 Q543 16 531 2 Q517 -14 487 -38 Q457 -62 454 -61 Q450 -58 432 -70 Q411 -86 396 -83 Q391 -82 393 -79 Q396 -75 435.5 -37 Q475 1 510 46 Q534 75 543 92.5 Q552 110 564 144 Q580 197 583 201 ZM426 211 Q439 226 461 194 Q471 179 473 167 Q475 155 475 105 Q477 14 464 14 Q460 14 446.5 28 Q433 42 422.5 58.5 Q412 75 411 83.5 Q410 92 414 124 Q419 168 420 186 Q421 204 426 211 ZM645 291 Q706 302 727 288 Q741 278 748 264 Q755 250 750 240 Q744 231 747 226 Q750 221 742 186.5 Q734 152 729.5 104 Q725 56 727 37 Q732 18 744 12 Q760 5 787 -12.5 Q814 -30 820 -37 Q825 -44 833.5 -62 Q842 -80 855 -98 Q865 -115 862 -115 Q855 -111 845 -121 Q832 -132 809 -119.5 Q786 -107 739 -61 Q671 4 642 29 Q621 46 604 65 L586 85 L603 82 Q621 79 635 67 Q646 58 663 50 Q680 42 683 44 Q685 49 679.5 151 Q674 253 670 257 Q664 263 628 244 Q592 225 561 218 Q537 212 530.5 212 Q524 212 510 221 Q494 232 494 235.5 Q494 239 514 242 Q534 245 578 266 Q622 287 645 291 ZM390 705 Q407 716 444.5 691.5 Q482 667 475 649 Q474 644 470 606 L467 568 L489 571 Q533 576 544 565 Q547 564 544 561 Q538 555 538 547 Q538 540 530 537 Q522 534 487 529 Q474 526 469 522.5 Q464 519 461 508 Q457 492 450 492 Q443 492 443 481 Q443 476 451.5 473 Q460 470 472 473 Q484 476 494 483 Q508 494 531 490 Q571 485 571 467 Q569 457 552 449 Q509 429 470 399 Q450 385 444 371.5 Q438 358 438 330 Q438 310 454 322 Q461 326 473 336 Q498 357 500.5 357 Q503 357 503 341.5 Q503 326 471.5 293.5 Q440 261 436 254 Q431 246 419.5 248 Q408 250 408 259 Q408 266 396 284.5 Q384 303 386.5 309.5 Q389 316 386 323.5 Q383 331 362.5 316 Q342 301 319 277 Q286 245 253.5 220.5 Q221 196 205 191 Q198 189 193 188 Q188 187 185.5 188 Q183 189 183 191.5 Q183 194 184 198 Q187 204 256.5 267 Q326 330 363 361 Q398 389 398 400 Q398 407 394.5 407.5 Q391 408 379 406 Q361 400 355 396 Q349 392 306.5 374.5 Q264 357 235.5 344 Q207 331 201 331 Q195 331 189 322 Q183 313 169 319.5 Q155 326 138 338 Q110 361 145 361 Q155 361 197 375 Q239 389 257 399 Q274 407 286.5 411 Q299 415 340 431 L380 446 L379 464 Q377 484 373.5 487.5 Q370 491 333 483 Q272 467 249 481 Q240 485 241.5 492 Q243 499 256 536 Q272 585 275 617 Q278 649 282 651 Q286 653 313 630 Q340 607 344 596 Q349 583 346.5 572.5 Q344 562 335 562 Q327 562 318.5 548 Q310 534 292.5 518 Q275 502 278 499.5 Q281 497 330 518 L379 540 L380 606 Q383 673 384.5 687.5 Q386 702 390 705 ZM443 427 Q447 435 443 436 Q440 436 433 431 Q424 420 429 414 Q431 413 433 414 Q438 417 443 427 ZM727 715 Q732 725 757 723 Q782 721 796 707 Q806 697 804 666 Q804 651 802 644 Q800 637 797 637 Q795 637 792.5 634.5 Q790 632 790 628 Q790 618 802 621 Q818 625 844 628 Q870 631 872 630 Q876 628 870.5 616 Q865 604 824 585 Q793 569 781 557.5 Q769 546 764 523 Q761 512 766.5 512 Q772 512 793 522 Q814 533 834 532 Q846 530 849.5 527.5 Q853 525 855 516 Q856 502 846.5 497 Q837 492 820 477 Q803 462 797.5 462 Q792 462 776 445 Q765 432 763.5 424.5 Q762 417 764 386 Q767 344 768 342 Q769 340 786 351 Q799 358 834.5 363 Q870 368 873 362 Q876 358 864 346 Q852 334 813 329 Q774 324 765.5 316.5 Q757 309 744 312 Q736 313 734 318.5 Q732 324 732 352 L730 392 L695 361 Q662 331 651.5 331 Q641 331 634.5 323.5 Q628 316 622 316 Q599 316 667 390 Q670 394 674 397 Q720 448 718 450 Q716 452 678 431 Q621 401 611 417 Q608 422 596 427 Q580 432 587 438 Q590 441 597 438 Q607 436 659 463 Q698 483 705 488.5 Q712 494 713 508 Q715 527 710 527 Q705 527 673 512 Q641 497 635 497 Q629 497 613 512 Q597 527 602 535.5 Q607 544 603 562.5 Q599 581 600 627 Q601 659 602.5 667.5 Q604 676 613 680 Q621 684 649.5 676.5 Q678 669 685 660 Q691 652 687.5 626 Q684 600 674 592 Q670 588 667 579.5 Q664 571 665 564 Q666 557 670 557 Q674 557 694 565 Q711 572 714.5 584 Q718 596 723 663 Q726 707 727 715 Z" /><glyph glyph-name="uni8F6F" unicode="&#x8f6f;" d="M700 100 Q700 103 703 103.5 Q706 104 708.5 102.5 Q711 101 713 98 Q716 94 737 94 Q760 94 791.5 75 Q823 56 840 31 Q857 6 877 -19 Q896 -43 896 -53 Q896 -63 879 -71 Q861 -78 847 -71 Q835 -64 800.5 -24 Q766 16 743 50 Q720 84 710 90 Q700 96 700 100 ZM588 625 Q592 632 596.5 633.5 Q601 635 612 633 Q634 628 649.5 613 Q665 598 668 580 Q671 562 663 523.5 Q655 485 648 479 Q643 474 628 418.5 Q613 363 596.5 318 Q580 273 581.5 272 Q583 271 671 310 Q759 349 771 356 Q783 363 791 381 Q816 432 843 432 Q854 432 876 419 Q898 406 898 401 Q898 394 884 370 Q870 346 861 342 Q851 335 825 279 Q805 236 787.5 214 Q770 192 731 160 Q702 135 702 147 Q702 149 703 152 Q706 160 700.5 164 Q695 168 706 191.5 Q717 215 729.5 224.5 Q742 234 739.5 242 Q737 250 741 259 L751 280 Q753 285 754.5 291 Q756 297 756 301.5 Q756 306 753 306 Q752 306 718 287 Q696 275 691 269.5 Q686 264 686 254 Q686 237 674 179 Q662 121 653 86 Q640 45 620 20 Q605 0 591.5 -7.5 Q578 -15 553 -19 Q536 -22 535 -16.5 Q534 -11 548 3 Q559 14 585 53.5 Q611 93 620 139 Q637 226 627 227 Q613 230 580 203 Q571 198 568.5 197 Q566 196 559 202 Q549 210 549 215 Q549 220 538 230 L527 238 L535 279 Q543 318 553.5 344 Q564 370 572 412 Q580 454 585 464 Q591 474 591.5 532.5 Q592 591 588 601 Q584 612 588 625 ZM331 664 Q333 672 339 672 Q345 672 363 665 Q389 654 413 625.5 Q437 597 434 577 Q433 565 424 543 Q415 521 409 521 Q405 521 402 512.5 Q399 504 391 483 Q384 465 384 463 Q384 461 391 461 Q401 461 412 449 Q423 437 423 427 Q423 418 416 412 Q409 406 384 398 Q357 390 349.5 383.5 Q342 377 330.5 354.5 Q319 332 305 295.5 Q291 259 293.5 256.5 Q296 254 309 259 Q322 264 326 286 Q329 301 332.5 304.5 Q336 308 350 308 Q368 310 380 297 Q387 289 392.5 287 Q398 285 412 287 Q433 290 438 283 Q444 278 441 259 Q438 240 432 240 Q426 240 419.5 233.5 Q413 227 398 222 Q387 219 383.5 213.5 Q380 208 375 189 Q363 139 375 139 Q389 139 430 160 Q438 164 455.5 163.5 Q473 163 476 159 Q482 150 466.5 136 Q451 122 423 112 Q387 97 379 93.5 Q371 90 371 16 Q371 -58 362.5 -64 Q354 -70 339 -56 L324 -42 L324 16 Q324 73 318 73 Q300 73 262 51 Q247 41 203.5 24 Q160 7 151 7 Q133 7 120 21 Q107 35 107 52 Q107 59 131.5 56.5 Q156 54 216 76 L298 108 L321 117 L319 152 Q318 185 313 190.5 Q308 196 269.5 182 Q231 168 202.5 164 Q174 160 162.5 156.5 Q151 153 151 162 Q151 171 133 187 Q121 196 119.5 201 Q118 206 122 215 Q128 229 146 229 Q164 229 172 224 Q191 215 209 238.5 Q227 262 245 318 Q262 367 260.5 368.5 Q259 370 247 363.5 Q235 357 210 356 Q185 355 181 352.5 Q177 350 149.5 358.5 Q122 367 122 370.5 Q122 374 111.5 377 Q101 380 102 387 Q105 397 199 411 Q228 416 256 427 Q276 434 281 440 Q286 446 290 461 L312 542 Q328 601 328 629 Q328 657 331 664 Z" /><glyph glyph-name="uni94FE" unicode="&#x94fe;" d="M418 219 Q417 243 417.5 248 Q418 253 425 253 Q438 253 454.5 243.5 Q471 234 474 226 Q477 218 471 198 Q456 150 456 129 Q456 103 467 68.5 Q478 34 493.5 11.5 Q509 -11 520 -6 Q533 -2 594.5 -1.5 Q656 -1 705 -5 Q775 -11 862 -12 L947 -12 L953 -26 Q959 -36 956.5 -40 Q954 -44 942 -55 Q922 -74 911 -77.5 Q900 -81 847 -88 L781 -96 L737 -78 Q695 -60 669 -44 Q648 -33 638 -31 Q628 -29 593 -32 Q544 -34 516 -43 Q480 -53 425.5 -43.5 Q371 -34 371 -18 Q371 -6 380.5 -2.5 Q390 1 406 -4 Q424 -9 442 -9 Q455 -9 455.5 -7.5 Q456 -6 449 -1 Q438 9 438 28.5 Q438 48 429.5 116 Q421 184 418 219 ZM394 411 Q400 416 415 404 L428 395 L413 386 Q399 376 389.5 367.5 Q380 359 372.5 359 Q365 359 327 342 Q303 332 296 326.5 Q289 321 289 313 Q289 300 287 274 L284 247 L324 262 Q359 275 369 276.5 Q379 278 389 271 Q394 267 393 263.5 Q392 260 380 247 Q364 230 320 211 Q281 192 272.5 186 Q264 180 264 167 Q264 155 257 134 Q250 117 246.5 63 Q243 9 249 2 Q257 -12 298 27 Q305 34 309 37.5 Q313 41 316 42.5 Q319 44 320.5 43.5 Q322 43 323 40 Q331 20 302 -13 Q284 -34 286.5 -38.5 Q289 -43 281 -54 Q264 -79 225 -44 L203 -23 L204 66 Q205 157 199.5 157 Q194 157 158 139 Q134 127 123.5 124 Q113 121 92 124 Q43 129 43 150 Q43 162 79 164 Q98 167 152 191 L207 215 L208 241 Q210 267 204 288 Q198 309 189 311 Q172 316 186 339 Q193 352 199 355 Q205 358 224 355 Q239 353 251 356.5 Q263 360 292 376 Q337 398 364.5 403.5 Q392 409 394 411 ZM393 537 Q425 552 438 533 Q443 524 443 519 Q443 514 436 503 Q428 489 410.5 482 Q393 475 294 444 L266 436 L242 450 Q219 464 219 470 Q219 481 263 486 Q288 489 333 510 L393 537 ZM232 636 Q252 666 256 666 Q263 666 278.5 652.5 Q294 639 302 625 Q319 600 313.5 583 Q308 566 280 552 Q256 540 249 530 Q235 510 178 464.5 Q121 419 110 419 Q105 419 93 404 Q72 377 63 402 Q57 416 62.5 428 Q68 440 91 464 Q116 491 164 549.5 Q212 608 232 636 ZM772 692 Q789 696 803 688 Q814 680 822 682.5 Q830 685 848 667.5 Q866 650 875 650 Q882 650 884 646 Q886 642 879 638 Q875 635 877.5 630 Q880 625 874.5 625 Q869 625 862 611 Q824 538 824 533 Q824 530 846 532.5 Q868 535 884 526 Q911 510 901 506 Q898 505 894 505 Q884 505 878.5 493 Q873 481 839.5 469.5 Q806 458 789 439 Q747 388 761 334 Q767 316 786 327 Q803 335 803 353 Q803 370 814.5 374.5 Q826 379 842 367 Q862 356 887 353 Q903 352 907 350 Q911 348 910 341 Q908 331 902.5 329 Q897 327 884.5 313 Q872 299 861 293 Q854 290 844 267 Q834 244 834 232 Q834 223 841 229 Q844 233 845 237 Q848 247 858 246.5 Q868 246 879 236 Q887 227 909.5 227 Q932 227 939 223 Q945 219 942.5 213.5 Q940 208 933 208 Q926 208 915.5 195.5 Q905 183 876 180 Q847 177 840 176 Q830 174 824.5 144.5 Q819 115 824 90 Q830 59 824.5 54.5 Q819 50 823 24 Q824 6 823.5 3.5 Q823 1 813 3 Q800 8 792 15.5 Q784 23 784 31 Q784 40 778 45 Q772 50 777 64 Q779 72 780 96 Q781 120 779.5 139.5 Q778 159 775 159 Q768 156 673 120 Q625 101 619.5 101 Q614 101 600 88.5 Q586 76 571 73 Q558 71 555.5 73.5 Q553 76 548 92 Q541 114 539 120 Q537 124 543.5 128 Q550 132 562 135.5 Q574 139 588 139 Q614 141 657.5 160.5 Q701 180 743.5 196 Q786 212 789 223 Q791 230 792 242 Q793 254 793 263 Q793 272 792 272 Q777 272 740.5 261 Q704 250 684 240 Q651 222 641 222 Q631 222 621 215 Q616 208 611 208.5 Q606 209 593 215 Q574 225 564.5 241 Q555 257 561 271 Q565 285 585.5 292 Q606 299 618 292 Q625 289 632 293 Q639 297 659 317 Q679 337 686 348 Q693 359 698 381 Q708 416 706 417.5 Q704 419 663 407 Q627 395 611 394.5 Q595 394 574 401 Q553 408 547 401 Q541 394 544 388 Q546 386 544.5 385 Q543 384 539 384 Q533 386 529 381 Q525 376 518 363 Q506 341 501.5 336 Q497 331 497 323.5 Q497 316 487 306.5 Q477 297 471 300 Q466 303 466 339.5 Q466 376 459 397 Q446 432 454.5 444 Q463 456 491 442 Q516 429 528 428.5 Q540 428 546 439 Q550 447 555.5 449 Q561 451 581 453 Q599 453 649.5 465.5 Q700 478 711 486 Q716 489 722.5 528.5 Q729 568 743 606.5 Q757 645 760.5 668 Q764 691 772 692 Z" /><glyph glyph-name="uni95EE" unicode="&#x95ee;" d="M576 455 Q584 466 624 456 Q643 452 652 449 Q674 443 676 425.5 Q678 408 659 390 L619 352 Q597 331 591 331 Q580 331 589 320 Q590 317 593 316 Q600 309 600 302 Q600 295 605.5 295 Q611 295 610 277 L608 257 L565 249 Q523 240 485 239 Q474 239 467 238.5 Q460 238 455.5 237 Q451 236 449 234.5 Q447 233 449 231 Q449 228 447.5 227 Q446 226 440 229 Q412 245 401 295 Q393 333 381 364.5 Q369 396 374 411 Q379 424 381.5 425.5 Q384 427 394 417 Q412 400 424 400 Q436 400 472 415 Q517 435 543 441.5 Q569 448 576 455 ZM542 371 Q545 380 540 380 Q533 380 491 361 L449 340 L449 284 L465 288 Q489 292 507.5 302.5 Q526 313 527 324 Q531 338 535.5 348 Q540 358 542 371 ZM250 394 Q247 411 229.5 430.5 Q212 450 217 463 Q222 476 236 473 Q253 470 268 462.5 Q283 455 288 448 Q295 435 298.5 399.5 Q302 364 297 351 Q293 334 295 208 L295 84 L282 70 L269 57 L261 77 Q254 93 252.5 124 Q251 155 257 170 Q261 180 257.5 275.5 Q254 371 250 394 ZM419 525 Q409 533 410 544 Q411 555 421.5 556.5 Q432 558 457 568 Q482 578 547 595.5 Q612 613 627.5 610 Q643 607 689 604 Q720 602 730.5 598.5 Q741 595 757 582 L779 562 L778 438 Q773 264 780 92 Q786 -34 782 -38 Q772 -48 752 -10 Q751 -7 750 -3 Q740 16 739 21 Q738 26 744 30 Q750 35 751 49 Q752 63 750 114 Q733 540 713 558 Q705 565 600 543 Q558 533 528 529.5 Q498 526 492 522 Q486 518 457.5 517 Q429 516 419 525 ZM296 610 Q321 638 323 638 Q325 638 343.5 624 Q362 610 367 604 Q373 597 373.5 577.5 Q374 558 369 555 Q365 553 362.5 559 Q360 565 349 559 Q338 553 329 553 Q320 553 295.5 542.5 Q271 532 257 522 Q241 511 237 518 Q233 525 233 529 Q233 539 296 610 Z" /><glyph glyph-name="uni95EF" unicode="&#x95ef;" d="M156 485 Q156 494 159 494 Q163 494 184 480 Q223 456 231.5 448 Q240 440 247 421 Q254 404 255.5 386.5 Q257 369 254 316 Q251 235 247 174.5 Q243 114 245 96.5 Q247 79 230.5 54 Q214 29 200 19 L186 8 L173 23 Q152 47 184 81 Q201 99 201 106.5 Q201 114 207 120 Q214 125 217.5 196.5 Q221 268 216 296 Q211 326 211 347 Q211 379 198.5 411 Q186 443 173 443 Q169 443 162.5 458 Q156 473 156 485 ZM426 491 Q460 499 527 508 Q594 517 597 520.5 Q600 524 608.5 517 Q617 510 634 502 Q667 484 641 450 Q627 431 617 408 L606 386 L643 386 Q669 386 676.5 384 Q684 382 691 372 Q698 363 699.5 344.5 Q701 326 698 240 Q694 125 684 116 Q677 110 643 130 Q583 166 629 166 Q649 166 660 177 Q667 184 668.5 191 Q670 198 667 221 L663 254 L614 251 Q564 249 538 233 Q509 218 380 179 Q335 165 306 183 Q289 193 305 204 Q323 219 410 237 Q481 253 510.5 260.5 Q540 268 603.5 271 Q667 274 668.5 275.5 Q670 277 662 316 L652 355 L632 354 Q613 354 580.5 338.5 Q548 323 520 316 L456 298 L421 289 L396 314 Q369 341 371 355 Q373 369 383 374 Q393 379 413 404 Q433 429 433 436 Q433 443 414.5 452 Q396 461 394 473 Q393 480 398.5 482.5 Q404 485 426 491 ZM576 456 Q578 461 578 467 Q578 473 577 475.5 Q576 478 575 478 Q566 478 539.5 466 Q513 454 510 449 Q505 442 486.5 410.5 Q468 379 468 376 Q468 373 505 373 Q531 373 539 375 Q547 377 555 389 Q565 400 568.5 411 Q572 422 576 456 ZM482 622 Q501 625 549 635.5 Q597 646 616.5 649.5 Q636 653 692 655 Q736 655 760.5 649 Q785 643 820 625 Q839 615 842 607.5 Q845 600 835 589 Q827 579 824 568 Q821 557 818 523 Q806 348 813 254 L818 172 Q821 144 825.5 43.5 Q830 -57 829 -58 Q828 -59 814 -62 Q806 -65 801.5 -61.5 Q797 -58 789 -40 Q775 -9 773.5 -1.5 Q772 6 782 13 Q789 20 789.5 37 Q790 54 788 137 Q785 250 777 343 Q769 436 768 506 Q767 583 758.5 599 Q750 615 712 613 Q683 610 662 603 Q603 583 537 576 Q503 573 487 582 Q460 594 459.5 606 Q459 618 482 622 ZM293 655 Q302 667 310 655 Q313 650 321.5 650 Q330 650 351 635 Q393 604 359 582 Q345 572 282 572 Q219 572 205 568 Q188 562 191 572 Q194 593 235 621 Q247 629 260 635 Q291 649 293 655 Z" /></font>
</defs>
</svg>
