<?xml version="1.0" standalone="no"?><!DOCTYPE svg PUBLIC "-//W3C//DTD SVG 1.1//EN" "http://www.w3.org/Graphics/SVG/1.1/DTD/svg11.dtd"><svg t="1685429591673" class="icon" viewBox="0 0 1024 1024" version="1.1" xmlns="http://www.w3.org/2000/svg" p-id="11976" width="64" height="64" data-spm-anchor-id="a313x.7781069.0.i31" xmlns:xlink="http://www.w3.org/1999/xlink"><path d="M512 147.2C310.528 147.2 147.2 310.528 147.2 512S310.528 876.8 512 876.8 876.8 713.472 876.8 512 713.472 147.2 512 147.2z m0 64c166.144 0 300.8 134.656 300.8 300.8S678.144 812.8 512 812.8 211.2 678.144 211.2 512 345.856 211.2 512 211.2z" fill="#2196F3" p-id="11977"></path><path d="M478.72 462.3104m33.28 0l0 0q33.28 0 33.28 33.28l0 173.056q0 33.28-33.28 33.28l0 0q-33.28 0-33.28-33.28l0-173.056q0-33.28 33.28-33.28Z" fill="#2196F3" p-id="11978"></path><path d="M512 370.7136m-48.64 0a48.64 48.64 0 1 0 97.28 0 48.64 48.64 0 1 0-97.28 0Z" fill="#2196F3" p-id="11979"></path></svg>