<?xml version="1.0" standalone="no"?><!DOCTYPE svg PUBLIC "-//W3C//DTD SVG 1.1//EN" "http://www.w3.org/Graphics/SVG/1.1/DTD/svg11.dtd"><svg t="1679728276686" class="icon" viewBox="0 0 1024 1024" version="1.1" xmlns="http://www.w3.org/2000/svg" p-id="2983" xmlns:xlink="http://www.w3.org/1999/xlink" width="100" height="100"><path d="M889.6 646.4l-128-128C757.333333 514.133333 753.066667 512 746.666667 512l-170.666667 0 0-85.333333 213.333333 0c12.8 0 21.333333-8.533333 21.333333-21.333333L810.666667 149.333333c0-12.8-8.533333-21.333333-21.333333-21.333333L576 128 576 85.333333c0-23.466667-19.2-42.666667-42.666667-42.666667l-42.666667 0c-23.466667 0-42.666667 19.2-42.666667 42.666667l0 42.666667-170.666667 0c-6.4 0-10.666667 2.133333-14.933333 6.4l-128 128C130.133333 266.666667 128 270.933333 128 277.333333s2.133333 10.666667 6.4 14.933333l128 128c4.266667 4.266667 8.533333 6.4 14.933333 6.4l170.666667 0 0 85.333333L234.666667 512c-12.8 0-21.333333 8.533333-21.333333 21.333333l0 256c0 12.8 8.533333 21.333333 21.333333 21.333333l213.333333 0 0 128c0 23.466667 19.2 42.666667 42.666667 42.666667l42.666667 0c23.466667 0 42.666667-19.2 42.666667-42.666667l0-128 170.666667 0c6.4 0 10.666667-2.133333 14.933333-6.4l128-128c4.266667-4.266667 6.4-8.533333 6.4-14.933333C896 654.933333 893.866667 650.666667 889.6 646.4zM490.666667 85.333333l42.666667 0 0 42.666667-42.666667 0L490.666667 85.333333zM285.866667 384l-106.666667-106.666667 106.666667-106.666667L768 170.666667l0 213.333333L285.866667 384zM533.333333 426.666667l0 85.333333-42.666667 0 0-85.333333L533.333333 426.666667zM533.333333 938.666667l-42.666667 0 0-128 42.666667 0L533.333333 938.666667zM738.133333 768 256 768 256 554.666667l482.133333 0 106.666667 106.666667L738.133333 768z" fill="#009688" p-id="2984"></path></svg>